<svg xmlns="http://www.w3.org/2000/svg" width="1400" height="1393" viewBox="0 0 1400 1393" fill="none"><path d="M1249.52 767.311C1250.12 766.833 1251.37 768.15 1252.84 768.518C1254.31 768.885 1256.4 769.533 1256.93 768.486C1257.47 767.439 1259.26 764.771 1259.38 761.737C1259.33 760.54 1259.03 759.416 1258.49 758.427L1257.97 757.767L1256.99 756.543C1256.22 754.373 1255.61 752.131 1255.14 749.828C1247.78 717.056 1237.83 685.366 1225.35 654.992C1219.44 641.688 1212.39 629.04 1204.28 617.148C1193.31 602.522 1184.19 586.527 1177.05 569.399C1175.38 563.63 1184.81 556.543 1197.74 552.841C1204.57 550.418 1211.55 549.455 1218.1 550.03C1224.66 550.604 1230.62 552.7 1235.51 556.15C1264.37 583.764 1284.51 618.906 1294.4 658.911C1297.81 670.844 1302.15 682.338 1307.42 693.311L1314.82 710.409L1318.37 719.007C1319.64 722.314 1320.03 724.017 1322.18 729.403C1325.75 739.646 1328.55 750.262 1330.55 761.185C1332.6 770.592 1333.17 780.54 1332.23 790.744C1331.25 799.16 1328.47 807.697 1324.05 815.83C1321.58 820.275 1317.73 824.117 1313.15 826.72C1309.05 828.458 1304.85 829.343 1300.84 830.702C1296.68 831.876 1292.49 832.577 1288.38 832.789L1281.77 833.598C1279.38 834.127 1277.01 834.177 1274.83 833.747C1265.82 834.006 1257.13 833.695 1248.27 834.143C1239.4 834.591 1229.6 835.33 1225.2 834.985C1198.08 834.262 1170.58 835.013 1142.84 837.236C1121.28 840.296 1099.63 844.514 1078.01 849.871C1073.36 850.777 1068.72 851.446 1064.11 851.874C1046.85 852.861 1042.27 847.873 1040.68 832.152C1040.23 828.648 1039.58 825.147 1039.52 821.64C1039.63 815.691 1041.91 809.48 1045.99 804.023C1050.07 798.567 1055.71 794.19 1061.98 791.609C1072.26 786.743 1082.67 782.329 1093.19 778.382C1103.36 775.649 1113.59 773.484 1123.86 771.604C1144.44 768.311 1164.92 766.158 1185.21 765.156C1200.4 764.28 1215.53 764.068 1230.54 763.952L1241.93 763.958L1244.61 764.127L1246.05 764.21C1246.58 764.661 1247.01 765.201 1247.34 765.812L1249.52 767.311Z" fill="white"></path><path d="M448.951 701.964C427.444 713.619 406.821 727.222 387.445 742.534C379.573 748.754 372.402 755.793 366.13 763.457C365.092 764.894 363.987 766.294 362.817 767.653C362.31 768.645 361.695 769.604 360.985 770.511C359.674 772.795 358.746 776.784 357.215 780.018C355.773 787.67 355.944 795.165 357.717 802.056C359.49 808.946 362.83 815.092 367.537 820.126C380.011 834.002 396.096 844.499 414.762 850.943C428.748 856.104 444.12 858.74 460.241 858.741C467.316 858.731 474.519 858.136 481.772 856.963C489.464 855.75 497.185 853.914 504.847 851.476C516.773 848.185 528.376 842.491 538.795 834.815C547.426 828.031 554.141 819.247 557.963 809.738C562.624 797.772 564.701 785.573 564.053 773.958C563.307 760.964 560.136 748.711 554.677 737.729C542.323 713.587 524 693.448 500.899 678.623C476.545 662.482 449.612 649.557 420.629 640.101C367.96 622.897 311.046 613.887 251.69 613.356C214.291 611.93 176.13 613.43 137.568 617.844C99.0725 620.389 60.0319 626.726 21.0612 636.757C-2.68216 643.86 -2.27384 637.506 17.0945 620.769C50.1804 594.519 87.9638 575.341 126.893 565.038C170.344 555.816 213.658 550.716 256.164 549.817C298.472 549.434 339.783 552.953 379.543 560.328C420.097 567.241 458.654 578.671 494.517 594.411C532.354 610.288 565.118 633.45 591.2 662.757C622.432 699.575 644 753.244 623.242 817.762C617.382 834.67 607.733 850.955 595.033 865.372C582.399 879.344 567.425 891.328 551.024 900.594C528.883 912.925 505.401 921.598 481.822 926.153C473.935 927.768 466.064 928.906 458.258 929.559C426.259 930.963 395.775 926.205 368.581 915.564C340.732 905.179 317.162 888.368 299.561 866.338C290.193 854.242 283.561 840.149 279.963 824.691C278.274 816.517 277.619 807.971 278.011 799.21L279.156 785.932C279.902 781.471 281.233 777.006 282.369 772.542C283.431 768.024 284.872 763.511 286.677 759.05C288.877 754.199 291.076 749.348 293.382 744.875C298.162 736.589 303.738 728.605 310.021 721.05C321.187 707.343 333.819 694.638 347.63 683.225C379.108 657.753 413.491 636.229 449.58 619.403C484.495 602.802 520.264 589.13 556.395 578.576C664.403 547.976 772.72 540.646 872.781 557.164C910.954 563.229 948.216 571.484 984.385 581.889C1020.45 592.778 1054.92 606.516 1087.51 622.983C1102.3 629.692 1115.77 637.455 1129.66 645.498C1148.32 655.388 1163.68 669.4 1174.77 686.663C1177.75 691.878 1179.71 697.717 1180.57 703.963C1180.57 709.65 1179.77 715.487 1178.18 721.327C1176.99 726.454 1176.73 731.764 1175.38 735.471C1171.64 746.495 1139.16 746.842 1102.94 728.545C1050.83 698.875 994.811 674.502 935.573 655.724C905.877 647.031 875.237 640.179 843.815 635.205C812.009 630.558 779.36 628.182 746.113 628.097C696.814 628.441 646.312 634.755 595.768 646.893C546.067 658.559 496.853 677.64 450.081 703.377L448.951 701.964Z" fill="white"></path></svg>