<svg xmlns="http://www.w3.org/2000/svg" width="1198" height="1225" viewBox="0 0 1198 1225" fill="none"><path d="M642.222 608.133C630.229 598.689 616.378 581.111 601.789 561.233C587.137 541.355 571.572 519.178 554.794 500.148C537.916 481.155 519.959 464.919 499.004 457.88C488.56 454.414 477.307 453.495 465.953 456.148C454.6 458.766 443.314 464.849 432.331 474.505C403.02 500.184 383.042 535.235 370.846 574.46C358.65 613.722 354.136 657.331 355.719 701.052C357.337 744.765 365.086 788.625 377.753 828.524C390.454 868.422 408.041 904.359 429.939 932.267C460.832 971.809 497.487 992.002 535.052 995.894C572.651 999.891 610.082 988.397 644.951 968.944C714.621 929.828 775.599 858.731 811.346 799.805C868.99 704.091 890.381 577.325 865.183 467.394C852.478 412.465 827.786 361.567 789.21 322.094C750.668 282.62 698.282 255.139 632.991 246.614C564.43 237.63 493.445 254.29 429.434 287.927C365.422 321.635 308.149 372.461 267.013 433.546C220.183 503.049 194.074 586.628 205.697 672.473C215.198 742.578 241.004 802.384 277.558 849.109C314.112 895.869 361.312 929.541 413.262 947.932C465.213 966.33 521.947 969.51 577.434 955.507C632.924 941.497 687.06 910.263 733.789 860.638C802.381 787.71 854.534 694.721 875.459 595.577C896.378 496.576 885.263 390.712 826.574 296.804C785.103 230.025 728.738 188.394 666.308 167.703C603.813 146.905 535.591 146.339 467.84 158.719C332.271 183.725 197.544 259.985 109.175 341.195C98.0904 351.417 87.343 364.751 76.7307 380.491C66.1524 396.231 55.8096 414.376 46.2755 434.042C27.1727 473.409 11.2034 518.824 3.96013 563.072C0.388754 585.214 -1.02582 607.107 0.793409 628.012C2.64632 648.918 7.73317 668.972 17.7059 686.623C27.6107 704.266 42.7042 719.163 62.1431 728.603C81.5826 738.12 104.997 742.466 132.387 741.656C144.111 741.334 155.397 737.303 164.729 730.797C174.129 724.292 181.743 715.627 188.279 705.719C201.284 685.875 210.582 660.692 218.971 631.408C235.513 572.94 247.742 497.494 264.217 421.201C280.59 344.978 301.276 268.154 332.843 208.909C348.577 179.269 366.905 154.121 388.298 135.127C409.792 116.134 434.184 103.047 463.663 97.0696C509.077 87.944 548.157 90.101 581.376 100.182C614.595 110.333 642.155 128.406 664.491 152.317C709.097 199.996 732.545 272.152 730.621 347.702C728.771 423.183 701.749 501.174 648.085 560.278C594.347 619.312 514.164 660.657 401.571 662.495C333.686 663.557 283.421 654.648 248.82 639.646C231.504 632.183 218.095 623.309 207.921 613.509C197.746 603.676 190.671 592.995 185.921 581.217C176.488 557.766 176.117 528.48 185.247 494.313C194.31 460.287 212.806 422.121 238.68 383.249C290.394 305.364 371.386 224.65 461.541 161.903C551.628 99.0506 651.014 54.2707 737.969 45.746C797.396 39.769 883.812 40.2651 959.346 60.0018C997.15 69.8346 1032.12 84.4412 1059.81 104.566C1087.57 124.799 1107.92 149.948 1118.87 182.489C1131.03 218.99 1127.16 259.099 1110.68 300.129C1094.24 340.982 1065.14 381.835 1029.46 416.816C993.842 451.833 951.732 480.977 910.162 499.37C868.618 517.833 827.786 525.191 795.173 519.001C777.017 515.605 763 509.096 752.019 500.608C741.037 492.083 732.951 481.507 727.12 469.092C715.5 444.439 713.609 411.723 721.257 379.218C728.804 346.748 745.749 315.057 768.897 292.773C792.178 270.419 820.744 257.226 854.435 258.817C892.165 260.657 932.83 274.875 971.679 298.431C1010.49 321.917 1047.38 354.634 1077.8 392.374C1108.26 430.079 1132.14 472.771 1145.62 515.816C1159.09 558.932 1162.16 602.12 1151.98 642.015C1140.16 688.886 1111.76 740.419 1072.18 789.862C1032.66 839.347 982.122 886.813 927.007 926.642C871.885 966.505 812.118 998.689 754.441 1018.07C696.731 1037.56 641.244 1044 594.785 1034.06C576.255 1030.13 561.937 1024.16 551.156 1017.19C540.342 1010.18 533.031 1002.26 527.944 993.665C522.89 985.036 519.992 975.596 519.015 965.087C518.038 954.62 519.083 943.09 522.115 931.135C528.078 907.224 542.127 881.719 561.196 860.498C580.265 839.243 604.219 822.298 628.977 813.99C652.125 806.031 690.195 802.992 731.533 806.527C765.563 809.322 802.049 816.568 835.3 828.028C868.584 839.417 898.667 855.09 919.932 873.341C930.574 882.432 939.033 892.089 944.93 901.885C950.854 911.717 954.328 921.548 955.506 931.945C956.684 942.384 955.639 953.557 951.36 966.575C947.08 979.558 939.399 994.266 927.173 1010.61C890.115 1060.3 851.639 1095.43 812.997 1119.31C774.321 1143.11 735.406 1155.91 695.992 1160.41C620.152 1168.86 541.588 1144.77 466.223 1101.41C405.985 1066.78 346.825 1020.9 295.919 967.421C287.733 958.791 273.144 971.634 279.815 981.605C322.298 1045.17 376.135 1104.77 439.304 1148.27C518.004 1202.42 609.743 1233.23 702.288 1223.08C750.228 1217.91 798.142 1201.29 843.32 1171.68C888.498 1142.08 930.88 1099.67 969.117 1043.51C983.333 1022.64 993.203 1002.3 998.867 982.318C1004.49 962.403 1005.74 942.769 1002.81 924.483C999.912 906.196 992.87 889.503 983.166 874.935C973.463 860.289 961.13 847.662 947.153 836.622C919.186 814.591 884.518 798.569 847.632 786.858C810.741 775.154 771.626 767.901 734.668 764.791C689.656 761.144 648.185 763.659 616.784 774.126C584.341 785.09 555.334 806.031 532.155 831.815C509.043 857.634 491.659 888.371 483.54 920.451C479.497 936.473 477.846 952.887 479.295 969.091C480.777 985.287 485.493 1001.27 494.017 1015.7C502.507 1030.13 514.703 1042.84 530.234 1052.84C545.799 1062.89 564.632 1070.39 586.868 1075.13C642.661 1086.91 704.411 1078.88 766.608 1058.01C828.831 1037.03 891.666 1003.04 949.609 961.202C1007.56 919.319 1060.55 869.624 1102.77 816.82C1144.94 763.974 1176.51 708.123 1190.63 652.838C1203.16 603.465 1198.99 551.86 1183.62 502.73C1168.19 453.531 1141.64 406.559 1108.36 365.211C1075.01 323.899 1034.85 288.209 991.692 262C948.498 235.862 902.208 219.132 856.358 216.798C811.007 214.428 771.287 233.139 741.743 261.824C712.092 290.545 691.746 329.026 682.315 369.172C672.977 409.281 674.362 451.549 691.107 487.662C699.46 505.63 711.826 521.865 728.198 534.527C744.505 547.19 764.684 556.174 788.165 560.525C831.659 568.518 879.266 558.721 925.789 538.242C972.318 517.621 1017.9 485.929 1056.95 447.658C1095.93 409.352 1128.37 364.468 1147.74 316.612C1157.41 292.666 1163.75 267.977 1165.66 243.006C1167.59 218.035 1165.02 192.815 1156.9 168.516C1142.89 126.355 1115.87 93.7436 1082.75 69.7626C1049.57 45.6755 1010.18 29.6532 969.083 18.9009C886.847 -2.46255 797.296 -2.67496 734.162 3.51453C637.303 13.2411 533.3 61.0269 439.136 126.497C345.04 192.073 260.949 275.441 205.394 358.844C177.633 400.616 156.948 442.388 146.133 482.781C135.352 523.032 134.375 562.647 148.457 597.805C155.465 615.281 166.212 631.303 180.429 644.991C194.68 658.68 212.368 670.104 233.357 679.16C275.368 697.264 330.688 706.25 402.144 705.258C524.002 703.595 616.412 657.513 677.663 589.812C738.98 522.185 769.336 434.112 771.493 348.799C773.576 263.557 747.639 180.189 693.769 122.217C666.847 93.3194 632.858 71.0357 592.797 58.8685C552.74 46.6306 506.786 44.5449 455.947 54.7668C419.394 62.0534 387.961 78.9595 361.817 102.233C335.572 125.507 314.483 154.969 296.963 187.899C261.993 253.829 240.903 333.979 224.092 411.652C207.347 489.29 194.983 564.663 179.486 619.026C171.838 646.158 163.214 667.91 154.42 681.102C150.041 687.713 145.795 692.101 142.09 694.651C138.317 697.195 135.284 698.187 131.208 698.396C108.568 699.067 91.7909 695.357 79.5946 689.383C67.399 683.297 59.3131 675.198 53.1813 664.514C47.1175 653.83 43.2765 640.142 41.8616 624.05C40.4466 607.991 41.4908 589.635 44.6576 570.359C50.8905 531.805 65.5793 489.714 83.0648 453.742C91.7903 435.738 101.224 419.256 110.488 405.497C119.72 391.773 128.884 380.702 136.43 373.805C218.668 297.865 349.015 224.367 474.915 201.553C537.916 190.022 599.533 191.047 653.743 209.192C708.019 227.407 755.22 262.036 791.872 320.645C843.752 404.118 853.662 496.327 834.894 586.168C816.098 675.869 767.886 762.457 704.212 829.977C662.634 874.117 615.54 900.963 567.698 913.058C519.891 925.118 471.209 922.4 426.57 906.553C381.93 890.74 341.333 861.847 309.699 821.418C278.097 780.953 255.39 728.96 246.9 666.317C237.063 593.809 258.894 521.334 300.973 458.764C337.83 403.941 390.083 357.322 447.997 326.657C505.877 295.955 569.146 281.312 628.072 288.775C685.649 296.097 729.11 318.982 761.822 351.806C794.468 384.7 816.431 428.133 828.192 476.98C851.872 574.602 833.443 693.233 781.935 780.457C749.829 835.246 691.679 904.044 629.823 939.554C598.895 957.449 567.462 966.966 537.949 964.206C508.437 961.376 479.733 947.122 451.905 912.988C432.566 889.147 415.688 856.397 403.324 819.328C390.926 782.295 382.941 740.915 380.819 699.815C378.662 658.715 382.368 617.894 392.98 581.818C403.559 545.74 420.944 514.509 446.178 491.66C454.97 483.666 463.056 479.386 470.603 477.475C478.15 475.601 485.393 475.99 493.041 478.36C508.235 482.958 524.709 496.398 540.713 514.048C556.782 531.627 572.482 553.133 587.609 572.975C602.801 592.818 617.224 611.034 632.079 622.492C639.66 628.326 649.736 614.075 642.222 608.133Z" fill="#F097D7"></path></svg>