<svg xmlns="http://www.w3.org/2000/svg" width="93" height="135" viewBox="0 0 93 135" fill="none"><path d="M46.9124 129.244C47.2386 129.564 46.6707 129.959 45.5832 130.187C45.0658 130.272 44.5418 130.272 44.0244 130.187C43.7344 130.035 43.4444 129.898 43.239 129.761C43.0336 129.625 42.5261 128.073 42.2603 127.511C42.0364 126.995 41.9044 126.424 41.8736 125.838C41.7649 124.682 41.5957 123.511 41.4749 122.34C41.4517 122.073 41.4765 121.802 41.5474 121.549C41.7589 120.656 41.7589 119.705 41.5474 118.811C41.5474 118.675 41.5474 118.507 41.354 118.386C41.1607 118.264 40.919 115.724 41.0278 115.344C41.1365 114.964 41.2694 114.508 41.3782 114.097L41.7407 112.835C41.7407 112.713 41.7407 112.591 41.9099 112.47C42.3328 112.181 42.2361 111.937 42.3207 111.679C42.4155 111.301 42.5368 110.935 42.6832 110.584C42.8075 110.372 42.9585 110.187 43.1303 110.036C43.2753 109.869 43.7103 110.036 43.7707 110.036C43.8311 110.036 44.1332 110.036 44.3265 110.036H44.5199C44.5199 110.036 44.8824 110.462 45.2932 110.934L45.8853 111.572C45.977 111.687 46.058 111.815 46.1269 111.953L46.2599 112.409C46.3444 112.667 46.4532 113.017 46.574 113.367C46.7794 114.097 46.9728 114.888 47.0332 114.994C47.0936 115.101 47.0332 115.344 47.0332 115.511C47.0332 115.679 47.6736 117.762 47.6494 117.869C47.6494 118.34 47.8669 118.781 47.4924 119.298C47.4722 119.342 47.4616 119.392 47.4616 119.443C47.4616 119.493 47.4722 119.543 47.4924 119.587C47.5831 120.394 47.5831 121.213 47.4924 122.02C47.508 122.434 47.5484 122.846 47.6132 123.252C47.6132 123.252 47.6132 123.42 47.5407 123.496C47.5039 123.585 47.4833 123.684 47.4803 123.785C47.506 124.806 47.5949 125.823 47.7461 126.826C47.8186 127.039 47.3957 128.21 47.4924 128.469C47.589 128.727 46.7915 129.077 46.9124 129.244Z" fill="#FFFD9C"></path><path d="M13.9247 109.793C17.4542 115.119 21.8948 119.372 26.9143 122.233C28.7701 123.227 30.6852 124.036 32.6418 124.652C36.1113 125.774 39.7 126.2 43.2752 125.914C46.9031 125.692 50.4875 124.822 53.9206 123.328C56.9669 121.989 59.844 120.104 62.4635 117.732C65.7996 114.648 68.8121 111.046 71.4293 107.01C72.2872 105.793 72.5531 106.265 72.251 107.74C72.0407 108.733 71.7491 109.697 71.381 110.614C70.8362 111.876 70.1839 113.059 69.4356 114.143C67.9425 116.256 66.305 118.2 64.5418 119.952C62.7534 121.693 60.84 123.221 58.8264 124.515C54.7697 127.034 50.3939 128.64 45.8972 129.26C43.1823 129.652 40.4476 129.784 37.7168 129.655C34.9286 129.505 32.1654 128.928 29.4881 127.937C23.6394 125.724 18.2676 121.865 13.7797 116.652C11.0242 113.479 8.64739 109.822 6.72307 105.793C3.85327 99.6528 2.12641 92.7736 1.67223 85.6726C1.27455 80.2476 1.65519 74.7768 2.79598 69.5214C3.08598 68.3959 3.32765 67.2705 3.64181 66.1299C4.9589 61.978 5.81682 60.9287 6.75932 60.4876C6.96969 60.3714 7.18811 60.2797 7.41182 60.2139C8.02807 60.2139 7.8589 62.0084 7.15807 64.9284C6.12381 69.3006 5.55894 73.8272 5.47848 78.3878C5.16214 84.0624 5.74717 89.7595 7.19942 95.1464C8.65168 100.533 10.9421 105.502 13.9368 109.763L13.9247 109.793Z" fill="#FFFD9C"></path><path d="M37.7894 31.1356C37.5236 30.9378 37.9586 30.6945 38.8044 30.3447C39.1984 30.2115 39.6048 30.1451 40.0127 30.147C40.244 30.2513 40.4665 30.3838 40.6773 30.5424C40.978 31.2515 41.2443 31.9829 41.4748 32.7324C41.6359 33.2137 41.7181 33.731 41.7165 34.2533L41.8011 37.2949C41.8 37.5215 41.7587 37.745 41.6802 37.9489C41.432 38.6553 41.3522 39.4373 41.4507 40.1997C41.4507 40.3214 41.4507 40.4431 41.5715 40.5647C41.7906 41.3574 41.8241 42.2125 41.6682 43.0285C41.3824 43.6386 41.132 44.2739 40.919 44.9295C40.919 45.0208 40.919 45.112 40.774 45.1881C40.3994 45.401 40.4598 45.5835 40.4357 45.7812C40.3987 46.061 40.3295 46.3325 40.2302 46.5872C40.11 46.7486 39.9716 46.887 39.8194 46.9978C39.5946 47.1183 39.346 47.1501 39.1065 47.0891C38.9373 46.9826 38.6957 47.0891 38.4782 47.0891H38.2486C37.7714 46.5538 37.3636 45.9277 37.0402 45.2337C37.0402 45.2337 36.9194 44.5949 36.8107 43.941C36.7019 43.287 36.5569 42.6331 36.5207 42.4201C36.4844 42.2072 36.5207 42.1312 36.6294 41.9943C36.7382 41.8574 36.3636 40.0172 36.3757 39.9412C36.3757 39.561 36.2911 39.1656 36.6415 38.7853C36.714 38.7093 36.6415 38.6333 36.6415 38.5572C36.6343 37.8852 36.6993 37.215 36.8348 36.5649C36.8529 36.2307 36.8529 35.8954 36.8348 35.5612C36.8348 35.5612 36.8348 35.4395 36.9073 35.3787C36.9418 35.3085 36.9663 35.2313 36.9798 35.1506C37.0403 34.3717 37.0403 33.5873 36.9798 32.8085C36.9798 32.6564 37.3182 31.7895 37.2457 31.607C37.1732 31.4245 37.8861 31.2268 37.7894 31.1356Z" fill="#FFFD9C"></path><path d="M3.04973 86.1895C2.65098 86.5088 2.40931 85.5507 2.77181 84.1363C2.98164 83.4767 3.22793 82.8364 3.50889 82.2201C3.67469 81.9375 3.80509 81.6247 3.89556 81.2924C3.89556 81.2924 4.12514 81.0338 4.31848 80.8666L5.09181 80.3495C5.40343 80.1234 5.75946 80.0126 6.11889 80.0301C6.84389 80.0301 7.61723 79.878 8.39056 79.7868C8.57812 79.7732 8.76533 79.8203 8.93431 79.9236C9.52183 80.2496 10.184 80.2929 10.7951 80.0453C10.9039 80.0453 11.0126 80.0453 11.0851 79.8172C11.1576 79.5891 12.9097 79.2241 13.1635 79.3609C13.4506 79.5202 13.7452 79.6574 14.0456 79.7716C14.3476 79.9084 14.6376 80.0909 14.9518 80.2582C15.0364 80.2582 15.121 80.2582 15.2056 80.4711C15.4351 81.0186 15.5922 80.9274 15.7856 80.973C16.0583 81.0386 16.3226 81.1512 16.571 81.3076C16.7304 81.4745 16.8653 81.6752 16.9697 81.9007C17.042 82.224 17.042 82.566 16.9697 82.8893C16.8731 83.1174 16.9697 83.452 16.9697 83.7561C16.9758 83.8574 16.9758 83.9591 16.9697 84.0603C16.5847 84.7274 16.1563 85.3531 15.6889 85.9309L14.7222 86.5545C14.2268 86.7674 13.6951 87.0259 13.5864 87.102C13.4776 87.178 13.3568 87.102 13.2239 86.9955C13.091 86.8891 11.641 87.7711 11.5685 87.7711C11.2301 87.7711 10.916 88.0449 10.5293 87.5886C10.4568 87.4974 10.3964 87.5886 10.3239 87.5886C9.73983 87.7106 9.14379 87.7106 8.55973 87.5886C8.25561 87.5998 7.95263 87.6405 7.65348 87.7103C7.59306 87.7103 7.53264 87.7103 7.48431 87.6191C7.41987 87.564 7.3446 87.5324 7.26681 87.5278C6.50397 87.5281 5.74166 87.5788 4.98306 87.6799C4.81389 87.7711 3.89556 87.0259 3.65389 87.0868C3.41223 87.1476 3.18264 86.0526 3.04973 86.1895Z" fill="#FFFD9C"></path><path d="M9.26061 114.888C5.57129 109.115 2.88716 102.431 1.38227 95.2688C-0.0829864 88.1654 -0.387185 80.7615 0.488107 73.5057C1.05435 68.2679 2.18445 63.1515 3.84727 58.2973C8.42495 45.4751 16.6934 35.3128 26.9869 29.8578C28.6734 28.9736 30.4004 28.2169 32.1585 27.5917L34.8048 26.7857L37.5598 26.2534C44.0302 25.3747 50.5735 26.4864 56.6273 29.4928C60.5246 31.3617 64.1255 34.0913 67.2606 37.5532C70.3357 41.1499 72.6632 45.6407 74.0394 50.6323C74.8489 53.674 73.6527 53.674 71.7314 52.0163C70.8252 51.1494 69.5202 50.0696 68.2514 48.7465C67.5165 48.1235 66.8105 47.4482 66.1369 46.7238C65.3612 46.039 64.615 45.3029 63.9014 44.5186C58.6604 38.6122 52.0456 34.9908 45.0394 34.1921C44.1692 34.0631 43.2935 34.0022 42.4173 34.0096H41.1123L39.8073 34.1161C39.3844 34.1161 38.9373 34.1161 38.5144 34.2378L37.2335 34.4963C36.3877 34.618 35.5177 34.8917 34.6356 35.1351C31.0921 36.1526 27.6795 37.7908 24.4977 40.0017C20.5663 42.7879 17.132 46.5617 14.4081 51.0886C11.6449 55.6786 9.51288 60.8194 8.10061 66.2969C6.5327 72.3141 5.89689 78.654 6.22769 84.9728C6.59101 91.3004 8.00719 97.4612 10.3844 103.055C11.1136 104.78 11.9204 106.45 12.801 108.059L14.251 110.355L14.9881 111.511L15.7977 112.576C17.9479 115.457 20.3847 117.977 23.0477 120.074C27.1201 123.253 31.6276 125.451 36.3394 126.552C41.0152 127.597 45.8193 127.275 50.3802 125.609C53.852 124.282 57.1203 122.226 60.0469 119.526C62.966 116.898 65.5563 113.735 67.7319 110.143C68.7469 108.622 69.5202 106.964 70.4748 105.382C71.2239 103.862 71.9006 102.538 72.4444 101.443C72.845 100.499 73.3142 99.6026 73.846 98.7667C74.4857 97.6226 75.3637 96.7227 76.3835 96.1661C76.7992 95.9442 77.2273 95.7612 77.6644 95.6186C78.2927 95.4665 78.5948 96.2269 78.631 97.8542C78.6429 98.8723 78.5863 99.8898 78.4619 100.896C78.2114 102.245 77.8884 103.571 77.4952 104.865C77.1689 105.96 76.7339 106.979 76.2869 108.059L75.6827 109.58L74.9698 111.101C74.4743 112.104 74.0152 113.169 73.4714 114.142C72.9277 115.116 72.2631 116.028 71.7194 116.986C69.2152 120.743 66.2979 124.031 63.0556 126.75C59.7035 129.538 56.0375 131.676 52.1806 133.092C51.2115 133.454 50.2272 133.748 49.2323 133.974L47.7339 134.369C47.2385 134.491 46.731 134.522 46.2235 134.598C45.2085 134.719 44.2056 134.902 43.1785 134.947H40.206C39.45 134.937 38.6953 134.866 37.9464 134.734L35.6989 134.385C34.2006 134.111 32.7506 133.579 31.2764 133.168C29.8023 132.757 28.461 131.982 27.0473 131.389C25.6335 130.795 24.3285 129.868 22.9873 129.062C17.6667 125.612 12.9594 120.836 9.15186 115.024L9.26061 114.888Z" fill="#FFFD9C"></path><path d="M42.5139 83.3459C42.4623 83.4664 42.4217 83.594 42.3931 83.7261C42.4412 83.8004 42.5036 83.858 42.5744 83.8934C42.6827 83.9547 42.7962 84.0006 42.9127 84.0303H43.1906H43.6135C43.905 84.0301 44.196 83.9996 44.4835 83.939C45.3294 83.8478 46.1631 83.5132 47.0452 83.3459C50.1385 82.768 53.3648 81.8251 56.7119 81.2623C58.2022 80.9285 59.7074 80.7101 61.2189 80.6084C63.1944 80.2932 65.2006 80.6667 67.019 81.6882C67.5869 82.0228 67.2848 82.8744 66.6323 83.6957C65.9921 84.5798 65.1463 85.1867 64.2156 85.4294C62.5655 85.5645 60.9257 85.8543 59.3098 86.2963L54.0173 87.2848C51.806 87.6498 49.6069 88.8057 47.2506 89.5205C46.6102 89.703 45.9335 89.8398 45.281 89.9919C44.9548 89.9919 44.6044 90.1136 44.266 90.1744L43.0577 90.3721C42.0427 90.4786 41.0519 90.4634 40.0731 90.509L38.6835 90.3417H38.0069C37.8014 90.3417 37.451 90.3417 37.5356 89.9919L37.3302 85.5359C37.3302 84.8363 37.2335 84.0151 37.2456 83.4219V81.9011C37.1852 78.8594 37.3906 75.8178 37.3664 72.8673C37.349 71.7172 37.2764 70.5694 37.1489 69.4303L36.9677 67.7269C36.9677 67.1642 36.9677 66.6015 36.8952 66.0388C36.8227 65.4761 36.8227 65.0503 36.8952 64.518C37.1127 62.6626 37.5477 62.0846 38.6956 61.6892C38.9491 61.5837 39.2073 61.4973 39.4689 61.4307C40.3027 61.2482 41.0639 62.0238 41.5835 63.4078C43.1664 67.5292 42.9973 71.8788 43.0456 76.0307C43.0456 77.5515 43.0456 79.0723 42.9369 80.5932L42.8644 82.9048V83.1482L42.5139 83.3459Z" fill="#FFFD9C"></path><path d="M63.3457 19.5772C63.6236 19.8053 63.3457 20.2159 62.5844 20.7634C62.2402 20.9813 61.8678 21.1203 61.4849 21.174C61.252 21.0814 61.0256 20.9644 60.8082 20.8243C60.3659 20.0612 59.9623 19.2637 59.5999 18.4365C59.3342 17.8774 59.1463 17.2654 59.044 16.6268C58.8024 15.3645 58.5486 14.087 58.3794 12.7943C58.3282 12.5256 58.3118 12.2482 58.3311 11.973C58.4715 10.9668 58.4715 9.93753 58.3311 8.93134C58.3311 8.76405 58.3311 8.59676 58.1861 8.42947C58.0411 8.26217 57.9928 5.3878 58.1861 4.97717C58.5365 4.09509 58.7903 3.21301 59.1528 2.34613C59.1528 2.22446 59.1528 2.07238 59.3461 1.99634C59.7811 1.84426 59.8174 1.57051 59.9261 1.31196C60.0585 0.923895 60.2714 0.587734 60.5424 0.338631C60.7269 0.208498 60.9212 0.101525 61.1224 0.0192561C61.2915 -0.0719939 61.5936 0.186548 61.6299 0.26259C61.6661 0.338632 61.9199 0.44509 62.0769 0.505923H62.234C62.234 0.62759 63.0799 2.77197 63.0919 2.92405C63.0397 3.91321 63.064 4.90642 63.1644 5.88967C63.1644 6.04176 63.1644 6.19384 63.0436 6.34592C62.9228 6.49801 63.3336 8.53592 63.3215 8.62717C63.3215 9.06822 63.4424 9.50926 63.1161 9.98071C63.0557 10.072 63.1161 10.1632 63.1161 10.2545C63.1646 11.039 63.1646 11.8272 63.1161 12.6118C63.1325 13.0155 63.1729 13.4171 63.2369 13.8132C63.2369 13.8132 63.2369 13.9653 63.2369 14.0413C63.2253 14.1371 63.2253 14.2345 63.2369 14.3303C63.3142 15.2877 63.4598 16.2345 63.6719 17.159C63.7444 17.372 63.5753 18.5126 63.6719 18.7559C63.7686 18.9993 63.2249 19.5772 63.3457 19.5772Z" fill="#FFFD9C"></path><path d="M81.4103 36.0324C81.4949 36.4278 81.0115 36.1997 80.202 35.6674C79.8082 35.3973 79.4463 35.0594 79.1265 34.6637C79.0083 34.3676 78.9152 34.0566 78.8486 33.736C79.0101 32.8613 79.2534 32.0138 79.5736 31.2114C79.7689 30.6245 80.0711 30.1035 80.4557 29.6906C81.1732 28.8414 81.9451 28.0683 82.7636 27.3789C82.9533 27.2247 83.168 27.1259 83.392 27.0899C84.1291 26.9508 84.8361 26.6248 85.4703 26.1318C85.579 26.0558 85.6999 26.0406 85.7603 25.7972C85.8207 25.5539 87.7782 24.5501 88.0803 24.7174C88.3824 24.8847 88.769 24.8847 89.1074 25.0368L90.1103 25.4778C90.1949 25.4778 90.2915 25.4778 90.3882 25.6756C90.432 25.822 90.512 25.9469 90.6164 26.0317C90.7208 26.1166 90.8442 26.157 90.9682 26.147C91.2154 26.1528 91.4571 26.2402 91.6691 26.4003C91.8812 26.5604 92.0561 26.7877 92.1765 27.0595C92.2494 27.3151 92.2494 27.5947 92.1765 27.8503C92.0678 28.0481 92.1765 28.3218 92.1765 28.5499C92.1819 28.636 92.1819 28.7224 92.1765 28.8085C92.1765 28.9149 90.9682 30.4814 90.8715 30.5574L90.6057 30.7399L90.0499 31.1962C89.6511 31.546 89.2282 31.7437 89.1557 31.8653C89.0832 31.987 88.9624 31.8653 88.8415 31.8653C88.4229 32.1292 88.0192 32.429 87.6332 32.7626C87.3553 32.7626 87.1982 33.1276 86.7874 32.7626C86.7028 32.7626 86.6666 32.7626 86.6182 32.7626C86.199 33.0316 85.7572 33.2407 85.3011 33.3862C85.0872 33.514 84.888 33.6777 84.709 33.8728C84.709 33.8728 84.6003 33.8728 84.552 33.8728C84.5036 33.8728 84.419 33.8728 84.3707 33.8728C83.9478 34.3443 83.3557 34.6028 83.0778 35.2568C83.0053 35.3937 82.2561 35.6066 82.1957 35.8043C82.1353 36.002 81.3861 35.8499 81.4103 36.0324Z" fill="#FFFD9C"></path></svg>