<svg xmlns="http://www.w3.org/2000/svg" width="1513" height="1532" viewBox="0 0 1513 1532" fill="none"><path d="M601.621 411.537C584.14 494.57 402.534 601.389 354.913 615.452C354.2 615.72 353.44 615.792 352.696 615.665C351.952 615.537 351.247 615.213 350.639 614.719L331.294 596.987C331.294 596.987 478.651 516.766 504.516 489.006C530.382 461.247 600.087 405.3 600.087 405.3L601.621 411.537Z" fill="#F097D7"></path><path d="M325.814 619.672C313.408 610.618 301.939 600.057 291.619 588.183C281.441 576.028 272.677 562.49 265.534 547.889C251.349 518.434 244.606 485.232 246.026 451.831C246.413 439.807 247.714 427.841 249.916 416.062C252.006 404.301 255.164 392.807 259.342 381.76C274.021 342.922 298.386 309.603 329.54 285.764C345.045 274.033 362.039 264.965 379.956 258.86C384.504 257.638 388.943 255.987 393.546 255.131L407.41 252.379L421.33 251.217C425.988 250.728 430.646 251.217 435.249 251.217H441.441L447.579 251.951C451.634 252.501 455.744 252.746 459.799 253.48C467.863 254.995 475.841 257.037 483.692 259.594C491.491 262.08 499.158 265.06 506.653 268.521C510.434 270.233 513.996 272.373 517.613 274.269C521.38 276.042 525.041 278.085 528.573 280.383C547.044 291.681 563.471 306.713 577.015 324.713C590.54 343.055 599.6 364.977 603.319 388.364C603.319 395.823 602.771 399.064 601.346 399.186C599.922 399.309 597.511 396.313 593.346 391.727L560.466 349.476C536.703 318.451 504.479 296.972 468.731 288.332C450.998 283.601 432.726 281.89 414.534 283.257C405.491 284.109 396.527 285.806 387.737 288.332C378.828 291.151 370.126 294.728 361.708 299.032C341.265 310.216 323.369 326.441 309.374 346.48C294.98 366.956 284.381 390.422 278.193 415.512C271.035 442.81 270.336 471.712 276.165 499.402C282.291 527.223 295.187 552.614 313.429 572.775C324.79 585.429 337.706 596.216 351.789 604.814C365.864 613.57 381.054 619.879 396.834 623.524C420.454 629.349 444.997 628.593 468.293 621.323C491.691 613.158 513.513 600.175 532.628 583.047C546.808 569.484 558.848 553.363 568.247 535.354C577.281 517.442 583.944 498.165 588.03 478.123L589.4 471.581C589.784 469.38 590.003 467.179 590.332 464.977C590.825 460.575 591.757 456.173 592.031 451.709C594.058 435.017 593.51 424.255 594.716 416.551C595.217 413.212 595.95 409.92 596.908 406.707C598.059 403.894 599.045 401.693 600.031 399.492C601.018 397.291 601.62 394.906 602.333 393.378C603.648 391.115 605.73 393.072 610.06 399.492C613.936 405.903 616.43 413.227 617.348 420.892C617.897 424.286 618.226 427.719 618.334 431.165C619.37 452.406 617.522 473.701 612.854 494.327C607.812 515.483 600.001 535.695 589.674 554.309C584.217 563.64 578.174 572.529 571.59 580.907C568.356 585.187 564.917 589.269 561.288 593.136L549.944 604.264L547.15 607.076L544.081 609.522L537.888 614.597C533.724 617.716 529.778 621.323 525.394 623.952L512.133 631.718C509.941 633.002 507.749 634.408 505.502 635.57L498.542 638.688L488.295 643.335C484.842 644.994 481.29 646.384 477.664 647.493C473.937 648.654 470.211 649.939 466.704 650.917L455.36 653.179C440.287 655.581 424.997 655.787 409.876 653.791C380.038 649.425 351.378 638.001 325.814 620.284V619.672Z" fill="#F097D7"></path><path d="M553.233 468.525C522.511 495.263 489.595 518.703 454.923 538.535C442.373 545.689 429.934 553.454 417.385 559.568C395.027 571.186 372.321 582.029 349.269 592.097C326.026 602.109 302.231 610.442 278.029 617.044C267.206 620.197 256.227 622.647 245.149 624.381C239.392 625.224 233.58 625.51 227.778 625.237C221.484 625.119 215.276 623.58 209.53 620.713C205.304 618.47 201.677 615.034 199.008 610.746C196.442 606.394 194.828 601.43 194.295 596.255C193.765 591.424 193.95 586.528 194.843 581.764C195.776 577.336 197.173 573.046 199.008 568.985C205.952 553.532 217.308 541.098 231.285 533.643C235.779 531.381 238.464 532.054 238.848 533.643C239.231 535.233 237.971 538.596 236.162 542.693C234.354 546.789 231.833 551.742 229.038 557.612C227.614 560.424 226.298 563.726 224.709 566.6L219.503 576.016C216.727 580.449 214.959 585.57 214.352 590.935C214.223 592.997 214.427 595.068 214.955 597.05C215.276 598.342 215.969 599.481 216.928 600.29C220.765 602.999 225.21 604.44 229.751 604.448C235.995 604.756 242.252 604.408 248.437 603.409C254.959 602.492 261.589 601.085 268.22 599.434C274.851 597.784 281.427 595.215 288.003 592.892C301.155 588.123 314.307 582.864 327.459 577.361C359.752 563.757 391.267 547.952 421.824 530.036C438.921 520.558 455.69 511.02 471.856 500.197C488.022 489.375 503.859 477.758 519.093 465.284C537.903 449.916 555.924 433.381 573.071 415.757C586.003 402.183 598.607 388.365 610.773 373.812C616.746 366.597 622.555 359.077 628.637 351.617C634.72 344.158 640.419 336.943 645.571 329.361C649.552 323.663 652.986 317.515 655.818 311.017C656.476 309.428 657.188 307.899 657.681 306.309L658.503 303.986C658.694 303.425 658.858 302.853 658.996 302.274C659.497 300.449 659.773 298.556 659.818 296.649C659.805 295.747 659.593 294.862 659.201 294.073C658.809 293.284 658.25 292.615 657.572 292.124C656.193 291.231 654.617 290.786 653.023 290.84C651.181 290.943 649.348 291.209 647.543 291.635C644.66 292.205 641.846 293.149 639.159 294.447C634.193 296.777 629.5 299.775 625.185 303.374C618.777 307.276 612.13 310.668 605.293 313.524C603.068 314.109 600.782 314.355 598.498 314.258C596.361 313.84 594.254 313.248 592.196 312.485C590.387 311.812 588.36 311.568 587.099 310.895C584.907 309.795 585.127 306.982 586.606 301.296C589.151 293.807 593.73 287.393 599.703 282.952C610.941 273.407 624.118 267.106 638.063 264.609C642.118 263.419 646.265 262.662 650.448 262.347C656.265 261.836 662.115 262.626 667.655 264.67C672.975 266.688 677.644 270.41 681.081 275.37C684.435 280.455 686.24 286.605 686.232 292.919C685.903 299.551 684.665 306.088 682.56 312.301C682.212 313.573 681.791 314.819 681.3 316.031L680.149 319.027C679.327 321.045 678.45 322.879 677.574 324.836C674.14 332.134 670.124 339.072 665.572 345.564C657.024 357.793 647.708 368.676 639.543 378.887C613.297 411.612 584.566 441.746 553.672 468.953L553.233 468.525Z" fill="#F097D7"></path><path d="M376.833 418.508C374.541 420.088 372.119 421.418 369.599 422.482C367.156 423.257 364.665 423.83 362.146 424.194C357.529 424.648 352.877 424.213 348.392 422.91L343.624 421.565C342.001 420.931 340.425 420.154 338.911 419.242C333.472 415.757 329.244 410.329 326.91 403.833C325.816 400.693 325.24 397.358 325.211 393.989C325.211 392.338 325.211 390.748 325.705 389.22L326.801 384.695C328.353 379.715 330.795 375.139 333.979 371.243C337.682 366.19 343.015 362.962 348.83 362.255C350.584 362.255 350.638 363.784 349.926 366.107C349.138 368.716 347.869 371.111 346.2 373.139C344.63 374.569 343.311 376.31 342.309 378.275C341.357 380.077 340.673 382.038 340.281 384.084C339.888 385.905 339.704 387.775 339.733 389.648C339.843 391.398 339.843 393.156 339.733 394.906C339.733 399.37 343.569 402.305 347.789 404.078C352.657 406.392 358.117 406.632 363.133 404.75C365.873 403.396 368.157 401.105 369.654 398.208C370.912 395.823 371.704 393.169 371.978 390.418C372.252 387.668 372.002 384.884 371.243 382.249C369.903 378.189 367.567 374.63 364.503 371.977C363.767 371.518 363.07 370.986 362.42 370.387C361.397 369.37 360.668 368.036 360.327 366.555C359.985 365.075 360.046 363.514 360.502 362.072C360.502 361.216 360.776 360.299 360.941 359.443C361.598 356.691 364.064 355.285 368.174 355.652C374.571 356.877 380.385 360.553 384.614 366.046C386.916 368.967 388.767 372.294 390.094 375.89C390.533 377.786 390.916 379.742 391.19 381.699C391.464 383.656 391.19 385.735 391.464 387.813C391.396 393.888 390.064 399.861 387.572 405.262C385.081 410.664 381.498 415.345 377.107 418.936L376.833 418.508Z" fill="#F097D7"></path><path d="M58.1435 1248.89C62.5228 1291.58 74.8261 1332.36 94.052 1367.92C101.279 1380.74 109.429 1392.7 118.398 1403.63C133.309 1424.2 150.894 1441.4 170.394 1454.49C190.441 1467.87 212.076 1477.06 234.454 1481.69C254.796 1485.83 275.449 1486.99 296.002 1485.13C309.144 1484.14 322.359 1481.96 335.573 1479.69C348.787 1477.43 362.361 1476.7 375.934 1475.07C384.337 1474.34 383.978 1478.15 377.873 1485.04C368.214 1495.97 357.005 1504.49 344.837 1510.15C316.712 1519.6 287.76 1524.56 258.657 1524.93C243.735 1524.96 228.854 1522.96 214.274 1518.95C206.989 1517.05 199.795 1514.63 192.729 1511.69L181.956 1507.16C178.437 1505.44 174.774 1503.35 171.543 1501.45C138.507 1483.32 105.184 1458.21 81.3404 1422.58C54.9446 1383.96 36.2543 1337.92 26.8312 1288.32L25.6103 1282.79L24.8922 1277.08L23.384 1265.39C22.166 1257.84 21.3027 1250.21 20.7986 1242.54C19.6507 1227.3 19.2908 1211.97 19.7213 1196.67C21.0717 1150.55 29.1295 1105.13 43.4928 1062.68L47.6582 1050.63L52.1826 1038.75L56.8508 1026.88L59.1489 1020.62L61.878 1015C65.6124 1007.48 69.0597 999.77 73.0814 992.427C77.1032 985.084 82.1304 978.738 86.7267 971.939C90.7223 965.943 95.1194 960.393 99.8692 955.349C103.505 951.184 107.343 947.309 111.36 943.745C114.425 941.813 117.622 940.235 120.912 939.031C125.053 937.082 129.576 936.828 133.839 938.306C135.413 938.639 136.954 939.186 138.435 939.938C140.374 941.207 139.943 944.47 137.932 949.003C135.073 955.918 131.63 962.423 127.662 968.403C98.8783 1013.17 77.6192 1064.86 65.1815 1120.34C55.9891 1161.98 53.9084 1205.61 59.0771 1248.34L58.1435 1248.89Z" fill="white"></path><path d="M216.143 1097.95C214.228 1131.67 220.383 1165.33 233.81 1194.58C239.063 1205 245.257 1214.62 252.267 1223.23C264.421 1239.55 278.614 1253.24 294.28 1263.75C310.591 1274.62 328.166 1282.14 346.347 1286.05C362.775 1289.36 379.502 1289.55 395.973 1286.6C417.518 1283.33 437.77 1276.81 459.1 1270.92C465.851 1269.19 467.143 1275.45 463.696 1284.88C458.541 1298.06 449.721 1308.39 438.919 1313.89C433.174 1316.7 427.357 1319.32 421.396 1321.41C415.492 1323.78 409.47 1325.66 403.37 1327.03C397.265 1328.3 391.017 1328.84 384.841 1329.57C378.665 1330.29 372.345 1330.29 366.097 1329.57C340.871 1328.9 316.009 1321.84 292.987 1308.81C278.984 1300.93 265.426 1291.84 252.41 1281.61C239.222 1270.91 227.383 1257.77 217.292 1242.63C195.485 1209.21 182.547 1167.99 180.306 1124.78C179.007 1099.07 180.7 1073.26 185.333 1048.18C188.601 1029.03 194.069 1010.58 201.564 993.422C209.21 976.538 218.393 960.839 228.926 946.645C232.732 940.843 237.113 935.948 241.207 930.418C245.3 924.888 249.681 920.083 254.277 915.55C263.237 905.762 272.848 896.966 283.004 889.261C287.571 885.887 292.381 883.064 297.368 880.83C301.23 878.975 305.221 877.579 309.289 876.66C312.195 876.14 315.145 876.14 318.051 876.66C322.317 877.579 326.199 880.334 329.039 884.456C330.36 886.061 331.585 887.788 332.702 889.623C335.646 895.516 329.614 903.856 319.775 914.916C315.825 917.907 312.09 921.715 308.356 925.069C306.488 926.791 304.693 928.695 302.898 930.508C301.102 932.321 299.019 933.409 297.224 935.132C289.683 941.387 282.358 947.914 275.679 954.985C261.711 968.524 249.583 984.844 239.77 1003.3C232.784 1016.86 227.48 1031.69 224.042 1047.27C220.467 1063.82 218.347 1080.81 217.723 1097.95H216.143Z" fill="white"></path><path d="M49.7417 1169.47C47.3895 1185.12 45.9969 1200.97 45.5763 1216.89C45.2617 1232.71 45.9582 1248.53 47.659 1264.21C51.6782 1295.64 60.1698 1325.89 72.7231 1353.5C74.7472 1358.67 77.1517 1363.59 79.9048 1368.19L88.2356 1382.24C94.6273 1390.67 100.373 1400.37 107.339 1407.71C119.216 1422.34 132.399 1435.18 146.623 1445.97C161.252 1456.71 176.728 1465.49 192.801 1472.17C225.75 1485.78 260.504 1491.05 295.069 1487.67C302.824 1487.14 310.546 1486.02 318.194 1484.32C325.851 1482.93 333.43 1480.93 340.888 1478.33C355.764 1473.32 370.201 1466.43 383.978 1457.75C419.384 1435.73 449.763 1401.82 481.578 1369.46C491.56 1359.3 494.074 1365.65 490.196 1380.34C483.352 1403.14 472.24 1423.51 457.806 1439.71C441.31 1458.6 423.307 1475.28 404.087 1489.48C384.336 1503.92 363.021 1514.64 340.816 1521.3L332.486 1523.75L324.155 1525.65C318.625 1526.74 313.095 1528.19 307.493 1529.1C296.313 1530.78 285.069 1531.68 273.811 1531.82C262.519 1532.06 251.225 1531.49 239.985 1530.1C234.383 1529.37 228.782 1528.1 223.18 1527.11L214.849 1525.38L206.59 1522.94C179.638 1515.36 153.501 1503.73 128.74 1488.31C103.666 1472.14 81.0735 1450.47 62.0224 1424.3C41.0912 1395.29 24.8228 1361.42 14.1204 1324.58C8.89954 1306.22 5.1464 1287.24 2.91693 1267.92C0.587685 1248.82 -0.349861 1229.49 0.116061 1210.18C1.43754 1163.25 9.51706 1117.02 23.9593 1073.74C44.6975 1007.41 80.5955 950.355 127.089 909.84C145.282 894.589 164.83 882.084 185.332 872.581C205.872 863.73 227.15 857.89 248.747 855.176C258.298 853.725 267.563 853.363 277.474 853C312.951 854.541 323.437 862.065 328.607 879.108C329.99 882.799 331.073 886.656 331.839 890.622C332.557 896.877 329.182 901.863 322.79 905.308C319.062 907.22 315.15 908.5 311.156 909.115C306.56 909.931 301.389 910.294 295.572 910.928C262.017 911.652 228.764 919.056 197.038 932.866C181.981 940.061 167.543 949.173 153.948 960.063C140.364 971.279 127.919 984.553 116.891 999.588C99.8341 1022.99 85.6487 1049.48 74.8058 1078.19C69.1029 1092.81 64.3009 1107.96 60.4424 1123.51C56.3959 1138.78 53.2983 1154.42 51.178 1170.29L49.7417 1169.47Z" fill="white"></path><path d="M933.523 1115.29C934.966 1116.32 932.454 1117.6 927.643 1118.34C925.355 1118.61 923.037 1118.61 920.748 1118.34C919.465 1117.85 918.182 1117.4 917.274 1116.96C916.365 1116.52 914.12 1111.5 912.944 1109.68C911.953 1108.01 911.37 1106.16 911.233 1104.26C910.752 1100.52 910.004 1096.73 909.469 1092.94C909.367 1092.08 909.477 1091.2 909.79 1090.38C910.726 1087.49 910.726 1084.41 909.79 1081.52C909.79 1081.08 909.79 1080.54 908.935 1080.14C908.08 1079.75 907.011 1071.53 907.492 1070.3C907.973 1069.07 908.561 1067.59 909.042 1066.26L910.645 1062.18C910.645 1061.79 910.645 1061.39 911.394 1061C913.265 1060.06 912.837 1059.27 913.211 1058.44C913.631 1057.22 914.167 1056.03 914.815 1054.89C915.365 1054.21 916.033 1053.61 916.792 1053.12C917.434 1052.58 919.358 1053.12 919.625 1053.12C919.893 1053.12 921.229 1053.12 922.084 1053.12H922.94C922.94 1053.12 924.543 1054.5 926.36 1056.03L928.98 1058.09C929.385 1058.47 929.744 1058.88 930.049 1059.32L930.637 1060.8C931.011 1061.64 931.492 1062.77 932.026 1063.9C932.935 1066.26 933.79 1068.82 934.058 1069.17C934.325 1069.51 934.058 1070.3 934.058 1070.84C934.058 1071.38 936.891 1078.13 936.784 1078.47C936.784 1080 937.746 1081.42 936.089 1083.1C936 1083.24 935.953 1083.4 935.953 1083.57C935.953 1083.73 936 1083.89 936.089 1084.03C936.49 1086.64 936.49 1089.3 936.089 1091.91C936.158 1093.25 936.337 1094.58 936.623 1095.89C936.623 1095.89 936.623 1096.44 936.303 1096.68C936.14 1096.97 936.049 1097.29 936.035 1097.62C936.149 1100.92 936.542 1104.21 937.211 1107.46C937.532 1108.15 935.661 1111.94 936.089 1112.78C936.516 1113.61 932.989 1114.75 933.523 1115.29Z" fill="#FFFD9C"></path><path d="M787.598 1052.34C803.211 1069.57 822.855 1083.34 845.06 1092.6C853.269 1095.81 861.741 1098.43 870.396 1100.42C885.744 1104.06 901.619 1105.44 917.434 1104.51C933.483 1103.79 949.34 1100.97 964.526 1096.14C978.002 1091.81 990.73 1085.71 1002.32 1078.03C1017.07 1068.05 1030.4 1056.39 1041.98 1043.33C1045.77 1039.39 1046.95 1040.92 1045.61 1045.69C1044.68 1048.91 1043.39 1052.02 1041.77 1054.99C1039.36 1059.08 1036.47 1062.91 1033.16 1066.41C1026.55 1073.25 1019.31 1079.54 1011.51 1085.21C1003.6 1090.85 995.135 1095.79 986.228 1099.98C968.282 1108.13 948.926 1113.33 929.034 1115.34C917.024 1116.61 904.927 1117.03 892.846 1116.62C880.512 1116.13 868.289 1114.26 856.445 1111.06C830.573 1103.9 806.809 1091.41 786.957 1074.53C774.767 1064.27 764.253 1052.43 755.74 1039.39C743.045 1019.52 735.406 997.254 733.397 974.272C731.638 956.714 733.322 939.009 738.368 922C739.651 918.358 740.72 914.715 742.11 911.024C747.936 897.587 751.731 894.19 755.901 892.763C756.831 892.387 757.798 892.09 758.787 891.877C761.513 891.877 760.765 897.685 757.665 907.135C753.089 921.285 750.591 935.935 750.235 950.695C748.835 969.061 751.423 987.499 757.848 1004.93C764.272 1022.37 774.404 1038.45 787.652 1052.24L787.598 1052.34Z" fill="#FFFD9C"></path><path d="M893.168 797.767C891.992 797.127 893.916 796.34 897.658 795.208C899.401 794.777 901.198 794.562 903.003 794.568C904.026 794.906 905.01 795.334 905.943 795.848C907.273 798.143 908.451 800.51 909.471 802.935C910.183 804.493 910.547 806.167 910.54 807.858L910.914 817.702C910.909 818.435 910.727 819.158 910.379 819.818C909.281 822.104 908.928 824.635 909.364 827.103C909.364 827.496 909.364 827.89 909.898 828.284C910.867 830.849 911.016 833.617 910.326 836.258C909.062 838.232 907.954 840.289 907.012 842.41C907.012 842.706 907.012 843.001 906.37 843.247C904.713 843.936 904.981 844.527 904.874 845.167C904.71 846.072 904.404 846.951 903.965 847.775C903.433 848.298 902.821 848.745 902.148 849.104C901.153 849.494 900.053 849.597 898.994 849.4C898.246 849.055 897.177 849.4 896.214 849.4H895.199C893.088 847.667 891.284 845.641 889.854 843.395C889.854 843.395 889.319 841.327 888.838 839.211C888.357 837.094 887.715 834.978 887.555 834.289C887.395 833.6 887.555 833.354 888.036 832.911C888.517 832.468 886.86 826.512 886.914 826.266C886.914 825.035 886.54 823.756 888.09 822.525C888.41 822.279 888.09 822.033 888.09 821.787C888.058 819.612 888.345 817.443 888.945 815.339C889.025 814.257 889.025 813.172 888.945 812.09C888.945 812.09 888.945 811.697 889.266 811.5C889.418 811.273 889.526 811.023 889.586 810.762C889.854 808.241 889.854 805.702 889.586 803.182C889.586 802.689 891.083 799.884 890.762 799.293C890.442 798.703 893.595 798.063 893.168 797.767Z" fill="#FFFD9C"></path><path d="M739.492 975.945C737.728 976.978 736.659 973.877 738.263 969.3C739.191 967.165 740.28 965.093 741.523 963.098C742.257 962.184 742.834 961.171 743.234 960.096C743.234 960.096 744.249 959.259 745.105 958.718L748.526 957.044C749.904 956.312 751.479 955.954 753.069 956.01C756.276 956.01 759.697 955.518 763.118 955.223C763.948 955.179 764.776 955.331 765.524 955.666C768.123 956.721 771.051 956.861 773.755 956.06C774.236 956.06 774.717 956.06 775.038 955.321C775.359 954.583 783.109 953.402 784.232 953.845C785.502 954.36 786.805 954.804 788.134 955.174C789.47 955.617 790.753 956.207 792.143 956.749C792.517 956.749 792.891 956.749 793.265 957.438C794.281 959.21 794.976 958.914 795.831 959.062C797.038 959.274 798.207 959.639 799.306 960.145C800.011 960.685 800.608 961.335 801.069 962.065C801.389 963.111 801.389 964.218 801.069 965.264C800.642 966.002 801.069 967.085 801.069 968.069C801.096 968.397 801.096 968.726 801.069 969.054C799.366 971.213 797.471 973.238 795.403 975.108L791.127 977.126C788.936 977.815 786.584 978.652 786.103 978.898C785.622 979.144 785.087 978.898 784.499 978.553C783.911 978.209 777.497 981.064 777.176 981.064C775.679 981.064 774.29 981.95 772.579 980.473C772.259 980.178 771.991 980.473 771.671 980.473C769.087 980.868 766.45 980.868 763.866 980.473C762.521 980.509 761.181 980.641 759.858 980.867C759.59 980.867 759.323 980.867 759.109 980.571C758.824 980.393 758.491 980.291 758.147 980.276C754.772 980.277 751.4 980.441 748.044 980.768C747.296 981.064 743.234 978.652 742.165 978.849C741.096 979.046 740.08 975.502 739.492 975.945Z" fill="#FFFD9C"></path><path d="M766.966 1068.82C750.646 1050.14 738.772 1028.51 732.115 1005.33C725.633 982.34 724.287 958.377 728.159 934.895C730.664 917.943 735.663 901.384 743.019 885.674C763.269 844.176 799.846 811.287 845.381 793.632C852.841 790.771 860.481 788.322 868.258 786.298L879.965 783.69L892.152 781.967C920.775 779.123 949.72 782.721 976.5 792.451C993.74 798.5 1009.67 807.334 1023.54 818.538C1037.14 830.178 1047.44 844.712 1053.53 860.867C1057.11 870.711 1051.81 870.711 1043.32 865.346C1039.31 862.541 1033.53 859.046 1027.92 854.764C1024.67 852.748 1021.55 850.562 1018.57 848.218C1015.14 846.001 1011.84 843.619 1008.68 841.081C985.494 821.965 956.232 810.245 925.239 807.66C921.39 807.242 917.516 807.045 913.64 807.069H907.867L902.094 807.414C900.223 807.414 898.245 807.414 896.375 807.808L890.709 808.644C886.967 809.038 883.118 809.924 879.216 810.712C863.541 814.005 848.445 819.307 834.37 826.462C816.978 835.48 801.786 847.693 789.737 862.344C777.513 877.199 768.082 893.837 761.834 911.564C754.898 931.038 752.086 951.557 753.549 972.007C755.156 992.486 761.421 1012.42 771.937 1030.53C775.163 1036.11 778.732 1041.52 782.627 1046.72L789.042 1054.16L792.302 1057.9L795.884 1061.34C805.396 1070.67 816.175 1078.82 827.955 1085.61C845.97 1095.9 865.91 1103.01 886.753 1106.58C907.437 1109.96 928.689 1108.91 948.865 1103.52C964.223 1099.23 978.681 1092.57 991.627 1083.84C1004.54 1075.33 1016 1065.09 1025.62 1053.47C1030.11 1048.54 1033.53 1043.18 1037.76 1038.06C1041.07 1033.14 1044.06 1028.86 1046.47 1025.31C1048.24 1022.26 1050.32 1019.36 1052.67 1016.65C1055.5 1012.95 1059.38 1010.03 1063.9 1008.23C1065.73 1007.52 1067.63 1006.92 1069.56 1006.46C1072.34 1005.97 1073.68 1008.43 1073.84 1013.7C1073.89 1016.99 1073.64 1020.28 1073.09 1023.54C1071.98 1027.91 1070.55 1032.2 1068.81 1036.39C1067.37 1039.93 1065.45 1043.23 1063.47 1046.72L1060.79 1051.65L1057.64 1056.57C1055.45 1059.82 1053.42 1063.26 1051.01 1066.41C1048.61 1069.56 1045.67 1072.52 1043.26 1075.62C1032.18 1087.77 1019.28 1098.41 1004.94 1107.22C990.108 1116.24 973.891 1123.16 956.829 1127.74C952.542 1128.91 948.188 1129.87 943.787 1130.6L937.159 1131.87C934.967 1132.27 932.722 1132.37 930.477 1132.61C925.987 1133.01 921.551 1133.6 917.007 1133.75H903.858C900.514 1133.71 897.175 1133.48 893.862 1133.06L883.92 1131.92C877.292 1131.04 870.878 1129.32 864.356 1127.99C857.835 1126.66 851.902 1124.15 845.648 1122.23C839.394 1120.31 833.621 1117.31 827.688 1114.7C804.151 1103.53 783.328 1088.08 766.485 1069.27L766.966 1068.82Z" fill="#FFFD9C"></path><path d="M914.068 966.742C913.839 967.132 913.66 967.544 913.533 967.972C913.746 968.212 914.022 968.399 914.335 968.513C914.814 968.712 915.316 968.861 915.832 968.956H917.061H918.932C920.221 968.956 921.509 968.857 922.78 968.661C926.522 968.366 930.21 967.283 934.112 966.742C947.796 964.871 962.068 961.819 976.874 959.998C983.467 958.918 990.126 958.211 996.812 957.882C1005.55 956.862 1014.43 958.071 1022.47 961.376C1024.98 962.459 1023.65 965.216 1020.76 967.874C1017.93 970.735 1014.19 972.699 1010.07 973.485C1002.77 973.922 995.515 974.86 988.367 976.29L964.955 979.49C955.173 980.671 945.444 984.412 935.021 986.725C932.188 987.316 929.195 987.759 926.308 988.251C924.865 988.251 923.315 988.645 921.818 988.841L916.473 989.481C911.983 989.826 907.6 989.777 903.27 989.924L897.123 989.383H894.13C893.221 989.383 891.671 989.383 892.045 988.251L891.137 973.829C891.137 971.565 890.709 968.907 890.762 966.988V962.066C890.495 952.221 891.404 942.377 891.297 932.829C891.22 929.106 890.898 925.392 890.335 921.705L889.533 916.192C889.533 914.371 889.533 912.55 889.212 910.729C888.892 908.908 888.892 907.529 889.212 905.807C890.174 899.802 892.099 897.931 897.177 896.652C898.298 896.31 899.44 896.031 900.598 895.815C904.286 895.224 907.653 897.734 909.952 902.214C916.954 915.552 916.206 929.629 916.42 943.066C916.42 947.989 916.42 952.911 915.939 957.833L915.618 965.314V966.102L914.068 966.742Z" fill="#FFFD9C"></path><path d="M1006.22 760.36C1007.45 761.098 1006.22 762.427 1002.85 764.199C1001.33 764.904 999.682 765.354 997.988 765.528C996.958 765.228 995.957 764.849 994.995 764.396C993.038 761.926 991.253 759.345 989.65 756.668C988.475 754.859 987.643 752.878 987.191 750.811C986.122 746.726 984.999 742.591 984.251 738.407C984.024 737.538 983.952 736.64 984.037 735.75C984.658 732.493 984.658 729.162 984.037 725.905C984.037 725.364 984.037 724.823 983.396 724.281C982.754 723.74 982.54 714.437 983.396 713.108C984.946 710.253 986.068 707.399 987.672 704.593C987.672 704.199 987.672 703.707 988.527 703.461C990.451 702.969 990.612 702.083 991.093 701.246C991.679 699.99 992.62 698.902 993.819 698.096C994.635 697.675 995.495 697.329 996.385 697.062C997.133 696.767 998.469 697.604 998.63 697.85C998.79 698.096 999.912 698.44 1000.61 698.637H1001.3C1001.3 699.031 1005.04 705.971 1005.1 706.463C1004.87 709.665 1004.97 712.879 1005.42 716.061C1005.42 716.554 1005.42 717.046 1004.88 717.538C1004.35 718.03 1006.17 724.626 1006.11 724.921C1006.11 726.348 1006.65 727.776 1005.2 729.302C1004.94 729.597 1005.2 729.892 1005.2 730.188C1005.42 732.727 1005.42 735.278 1005.2 737.817C1005.28 739.123 1005.46 740.423 1005.74 741.705C1005.74 741.705 1005.74 742.197 1005.74 742.444C1005.69 742.753 1005.69 743.069 1005.74 743.379C1006.08 746.477 1006.72 749.541 1007.66 752.534C1007.98 753.223 1007.24 756.914 1007.66 757.702C1008.09 758.489 1005.69 760.36 1006.22 760.36Z" fill="#FFFD9C"></path><path d="M1086.13 813.616C1086.51 814.895 1084.37 814.157 1080.79 812.434C1079.04 811.56 1077.44 810.467 1076.03 809.186C1075.51 808.227 1075.09 807.221 1074.8 806.183C1075.51 803.352 1076.59 800.61 1078.01 798.013C1078.87 796.113 1080.21 794.427 1081.91 793.091C1085.08 790.343 1088.5 787.84 1092.12 785.609C1092.96 785.11 1093.91 784.79 1094.9 784.674C1098.16 784.224 1101.29 783.169 1104.09 781.573C1104.57 781.327 1105.11 781.278 1105.37 780.49C1105.64 779.703 1114.3 776.454 1115.64 776.996C1116.97 777.537 1118.68 777.537 1120.18 778.029L1124.62 779.457C1124.99 779.457 1125.42 779.457 1125.85 780.096C1126.04 780.57 1126.39 780.975 1126.86 781.249C1127.32 781.524 1127.86 781.655 1128.41 781.622C1129.51 781.641 1130.58 781.924 1131.51 782.442C1132.45 782.96 1133.23 783.696 1133.76 784.576C1134.08 785.403 1134.08 786.308 1133.76 787.135C1133.28 787.775 1133.76 788.661 1133.76 789.399C1133.78 789.678 1133.78 789.957 1133.76 790.236C1133.76 790.58 1128.41 795.65 1127.99 795.896L1126.81 796.487L1124.35 797.963C1122.59 799.096 1120.72 799.735 1120.39 800.129C1120.07 800.523 1119.54 800.129 1119.01 800.129C1117.15 800.983 1115.37 801.953 1113.66 803.033C1112.43 803.033 1111.74 804.214 1109.92 803.033C1109.54 803.033 1109.38 803.033 1109.17 803.033C1107.32 803.903 1105.36 804.58 1103.34 805.051C1102.4 805.465 1101.52 805.995 1100.72 806.626C1100.72 806.626 1100.24 806.626 1100.03 806.626C1099.82 806.626 1099.44 806.626 1099.23 806.626C1097.36 808.152 1094.74 808.989 1093.51 811.105C1093.19 811.548 1089.87 812.237 1089.61 812.877C1089.34 813.517 1086.02 813.025 1086.13 813.616Z" fill="#FFFD9C"></path><path d="M1187.99 534.738C1189.89 523.93 1191.94 512.836 1194.53 501.359C1197.24 488.813 1201.12 476.711 1206.08 465.301C1209.13 458.273 1212.97 451.831 1217.47 446.173C1220.06 443.037 1222.91 440.278 1225.99 437.948C1228.66 435.841 1231.48 434.048 1234.42 432.592C1244.37 427.364 1254.91 424.137 1265.65 423.027C1279.37 421.435 1293.2 421.884 1306.84 424.367C1318.16 426.471 1328.95 428.957 1339.29 430.583C1344.53 431.54 1349.47 432.114 1354.48 432.4C1360.64 432.4 1366.87 433.261 1372.27 434.026C1383.36 435.461 1393.92 436.896 1404.18 437.087C1413.36 438.048 1422.59 436.347 1431.16 432.114C1433.34 430.842 1435.03 428.539 1435.87 425.705C1436.27 424.065 1436.45 422.352 1436.4 420.636C1436.4 418.341 1436.4 416.046 1435.79 413.655C1433.62 403.661 1429.4 394.56 1423.56 387.257C1415.25 376.683 1406.19 367.079 1396.51 358.565C1386.86 349 1376.83 339.436 1366.95 329.872C1360.87 323.273 1363.07 321.647 1370.37 322.507C1382.19 323.42 1393.83 326.646 1404.87 332.072C1407.9 333.698 1411.1 335.419 1414.06 337.428C1417.02 339.436 1419.91 342.018 1422.8 344.41C1428.79 349.312 1434.46 354.813 1439.74 360.86C1445.54 367.521 1450.64 375.072 1454.94 383.336C1459.84 392.876 1463.03 403.647 1464.29 414.898C1465.19 421.812 1464.91 428.889 1463.45 435.652C1461.74 443.388 1458.46 450.437 1453.95 456.12C1446.65 464.486 1437.61 470.088 1427.89 472.283C1413.66 475.59 1399.11 476.235 1384.73 474.196C1377.13 473.335 1368.85 472.475 1361.93 472.283H1356.99H1350.38C1346.05 472.283 1341.79 472.283 1337.61 472.283C1320.97 471.518 1305.32 469.701 1290.58 469.031C1274.54 468.458 1259.19 468.266 1247.64 475.153L1246.5 475.726H1245.89C1245.46 475.94 1245.05 476.229 1244.68 476.587C1243.7 477.402 1242.81 478.366 1242.02 479.456C1239.91 482.306 1238.14 485.528 1236.78 489.021C1233.28 497.658 1230.5 506.729 1228.49 516.087C1222.87 540.476 1219.3 567.256 1213.3 594.132C1211.17 604.697 1208.5 615.08 1205.32 625.215C1201.82 636.471 1196.67 646.791 1190.12 655.63C1182.69 665.839 1172.44 672.098 1161.47 673.132C1150.53 674.035 1139.72 669.848 1131.07 661.368C1119.71 649.546 1110.92 634.273 1105.54 616.99C1100.42 601.202 1096.95 584.646 1095.21 567.734C1095.21 564.1 1094.37 560.465 1093.99 556.831C1093.61 553.197 1093.46 549.562 1093.38 545.928C1093.26 540.17 1093.54 534.409 1094.22 528.712C1094.96 524.719 1096.22 520.907 1097.94 517.426C1100.22 512.394 1103.74 508.432 1107.97 506.141C1109.63 504.97 1111.35 503.978 1113.14 503.176C1118.38 501.55 1122.72 512.74 1127.65 530.529C1129.1 543.632 1131.07 556.257 1133.13 568.786C1135.51 580.235 1138.61 591.428 1142.4 602.261C1144.79 610.566 1148.79 617.994 1154.02 623.876C1155.05 625.098 1156.35 625.898 1157.75 626.172C1157.85 626.104 1157.97 626.069 1158.09 626.069C1158.21 626.069 1158.32 626.104 1158.43 626.172C1158.43 626.172 1159.04 626.172 1159.34 626.172C1159.65 626.172 1160.56 626.172 1161.09 626.172C1162.01 625.79 1162.88 625.242 1163.67 624.546C1165.25 622.816 1166.63 620.82 1167.78 618.616C1171.37 611.653 1174.24 604.129 1176.29 596.236C1180.78 576.097 1184.38 555.663 1187.08 535.025L1187.99 534.738Z" fill="white"></path><path d="M1258.81 486.819C1257.98 486.819 1256.68 486.819 1254.33 490.645C1251.46 495.364 1249.16 500.584 1247.49 506.139C1243.57 521.52 1240.69 537.295 1238.9 553.291C1236.55 570.411 1234.34 588.487 1231.3 607.137C1229.7 616.904 1227.49 626.497 1224.69 635.83C1221.66 646.201 1217.82 656.165 1213.22 665.575C1207.66 676.666 1200.27 686.125 1191.56 693.311C1189.18 695.324 1186.64 696.992 1183.96 698.285L1179.33 700.771C1177.81 701.404 1176.26 701.915 1174.69 702.302C1168.47 704.167 1161.99 704.167 1155.77 702.302C1152.61 701.669 1149.52 700.545 1146.57 698.954C1145.07 698.3 1143.62 697.467 1142.24 696.467L1138.75 693.789C1134.34 690.445 1130.24 686.5 1126.51 682.025C1123.2 677.744 1120.12 673.174 1117.32 668.348C1114.78 663.732 1112.45 658.943 1110.33 654.002C1097.13 618.041 1090.43 578.842 1090.72 539.231C1090.15 512.168 1091.19 485.089 1093.84 458.222C1094.23 455.985 1094.23 453.669 1093.84 451.432C1093.68 450.72 1093.4 450.065 1093 449.519C1093 448.754 1092.17 448.371 1091.71 447.893C1090.22 446.95 1088.59 446.397 1086.92 446.267C1082.99 445.685 1079.03 445.43 1075.07 445.502C1057.78 446.718 1040.57 449.306 1023.55 453.249C1005.69 457.075 987.376 460.996 968.15 462.813C947.52 465.867 926.61 463.323 906.827 455.353C895.042 450.161 884.734 440.714 877.191 428.191C875.305 425.208 873.651 422.006 872.251 418.626C870.576 415.114 869.249 411.356 868.3 407.436C867.649 405.465 867.165 403.414 866.856 401.315C866.238 399.147 865.805 396.903 865.564 394.62C864.974 389.94 864.846 385.185 865.184 380.465C865.643 375.85 866.457 371.301 867.616 366.884C868.775 362.77 870.332 358.851 872.251 355.216C875.54 348.661 879.5 342.679 884.03 337.426C891.938 328.665 900.665 321.15 910.018 315.046C927.064 303.816 944.864 294.502 963.211 287.214C980.917 279.849 998.546 273.633 1015.95 267.32L1041.56 257.756C1045.74 256.226 1049.92 254.696 1053.71 253.07C1055.26 252.593 1056.74 251.853 1058.12 250.87C1059.14 250.419 1060.11 249.809 1061.01 249.053C1062.51 247.553 1063.63 245.523 1064.21 243.224C1064.79 240.924 1064.81 238.458 1064.28 236.141C1063.83 233.792 1063.11 231.537 1062.15 229.446C1060.52 225.855 1058.66 222.433 1056.6 219.212C1046.77 204.468 1035.82 190.952 1023.93 178.851C1011.84 165.748 999.23 152.932 986.996 138.681C980.595 131.29 974.651 123.297 969.214 114.771C965.931 110.039 963.1 104.839 960.779 99.2767C959.373 95.8494 958.302 92.2205 957.588 88.4692C956.769 84.7636 956.36 80.9338 956.372 77.0877C956.754 67.173 959.871 57.7364 965.187 50.4035C969.769 43.9435 975.356 38.7352 981.601 35.1007C992.725 28.8644 1004.76 25.6074 1016.94 25.5365C1039.39 25.4809 1061.63 31.0401 1082.36 41.8913C1092.56 46.9048 1102.46 52.8174 1112 59.5852C1121.24 66.7793 1130.05 74.8022 1138.37 83.5914C1155.04 100.872 1169.25 121.604 1180.39 144.898C1187.15 159.436 1187.99 166.991 1186.47 167.661C1184.95 168.33 1179.55 162.783 1171.27 154.08C1159.7 142.756 1147.51 132.466 1134.8 123.283C1127.2 117.64 1118.76 112.188 1109.8 106.832C1105.31 104.154 1100.75 101.381 1095.89 99.0854C1091.03 96.79 1086.54 93.3469 1081.68 90.6689C1064.91 80.6645 1046.88 74.4179 1028.41 72.21C1020.56 71.2162 1012.63 71.8299 1004.93 74.0272C1001.89 74.9338 998.976 76.3832 996.267 78.3311C995.165 79.1158 994.1 79.978 993.075 80.9134L992.163 81.5829C992.163 81.5829 991.555 80.2439 993.455 85.026C998.697 93.9163 1004.83 101.92 1011.69 108.841C1026.43 125.1 1043.3 140.881 1060.02 159.053C1069.06 168.647 1077.43 179.207 1085.02 190.615C1087.17 193.849 1089.18 197.234 1091.03 200.753L1092.47 203.527C1093.05 204.587 1093.56 205.706 1093.99 206.874L1097.41 215.387C1101.58 226.699 1103.16 239.253 1101.97 251.635C1100.85 263.708 1096.54 274.958 1089.73 283.579C1088.95 284.727 1088.08 285.783 1087.15 286.736L1084.19 289.414L1078.11 294.674L1072.1 298.595L1067.93 301.082C1062.45 304.334 1057.29 307.107 1052.04 309.69L1036.85 315.907C1016.4 323.845 996.495 331.018 977.269 339.243C958.678 346.066 940.599 354.931 923.241 365.736C918.936 368.625 914.842 371.986 911.006 375.779C908.573 378.554 906.312 381.559 904.243 384.769C903.548 385.701 903.008 386.799 902.655 387.998C902.303 389.198 902.145 390.474 902.191 391.751C902.488 392.646 902.717 393.575 902.875 394.525L904.243 397.681C905.111 399.784 906.183 401.744 907.435 403.515C913.855 411.396 922.218 416.288 931.143 417.383C942.558 419.298 954.111 419.522 965.567 418.053C989.96 415.183 1015.19 408.488 1041.56 403.132C1055.38 399.767 1069.42 398.038 1083.5 397.968C1093.02 397.939 1102.42 400.483 1111.09 405.428C1115.88 408.354 1120.12 412.514 1123.55 417.638C1126.98 422.762 1129.52 428.736 1131 435.173C1131.6 438.711 1132.14 442.441 1132.52 446.076C1132.71 449.547 1132.71 453.03 1132.52 456.501V461.665V465.109L1132.06 471.517L1130.01 497.34L1128.72 523.068C1128.72 531.58 1128.72 539.997 1128.72 548.509C1128.72 557.021 1129.48 565.246 1129.86 573.663C1130.24 582.079 1131.38 590.209 1132.97 597.956C1134.97 613.081 1139.68 627.438 1146.73 639.943C1148.25 642.908 1150.3 644.82 1151.89 647.498C1153.66 649.438 1155.57 651.167 1157.59 652.663C1158.93 653.914 1160.46 654.824 1162.08 655.341C1163.45 655.77 1164.88 655.77 1166.26 655.341C1166.9 655.234 1167.52 654.974 1168.08 654.576C1169.05 654.201 1169.96 653.583 1170.74 652.759C1172.56 651.248 1174.22 649.448 1175.68 647.403C1179.18 642.286 1181.98 636.467 1183.96 630.187C1186.42 622.946 1188.41 615.46 1189.89 607.807C1191.71 599.964 1193.23 591.643 1194.68 583.227L1202.96 530.624C1204.76 519.169 1207.01 507.837 1209.72 496.671C1212.44 484.12 1216.69 472.18 1222.34 461.283C1223.99 458.222 1225.84 455.342 1227.88 452.675C1230 449.744 1232.37 447.114 1234.95 444.832C1237.61 442.422 1240.46 440.37 1243.46 438.711C1246.48 437.244 1249.58 436.061 1252.73 435.173C1255.47 434.529 1258.24 434.145 1261.02 434.025H1265.42H1269.3L1282.29 435.651C1316.87 439.572 1351.52 442.92 1385.71 443.398C1398.4 443.729 1411.09 443.059 1423.71 441.389C1428.29 441.208 1432.85 440.729 1437.39 439.955C1440.93 439.401 1444.42 438.375 1447.8 436.894C1449.54 436.289 1451.14 435.164 1452.46 433.616C1453.78 432.068 1454.79 430.141 1455.4 427.999C1455.59 425.753 1455.43 423.481 1454.92 421.314C1454.41 419.147 1453.56 417.129 1452.43 415.375C1450.64 411.815 1448.6 408.456 1446.35 405.332C1442.98 400.966 1439.43 396.816 1435.72 392.899C1415.13 373.012 1393.69 354.557 1371.5 337.617C1365.71 332.573 1360.16 327.113 1354.86 321.263C1351.89 318.267 1349.05 315.074 1346.35 311.698C1343.05 307.603 1340.08 303.119 1337.46 298.308C1332.03 288.677 1329.62 276.855 1330.7 265.121C1331.23 262.251 1331.61 259.382 1332.22 256.608L1334.88 248.479C1337.04 243.465 1339.59 238.725 1342.48 234.324C1344.39 231.239 1346.49 228.36 1348.78 225.716C1350.91 222.942 1353.11 220.742 1355.24 218.351L1361.09 212.135C1362.84 210.317 1364.51 208.213 1366.26 206.3C1373.15 198.086 1379.6 189.299 1385.56 179.999C1397.41 161.302 1407.6 141.033 1415.96 119.553C1417.93 114.293 1419.76 109.032 1421.35 103.772L1423.48 96.2162C1423.86 94.4946 1424.39 92.3905 1424.55 91.1471C1426 85.7834 1426 79.9647 1424.55 74.601C1423.54 72.1689 1421.91 70.2443 1419.91 69.1494C1417.91 68.1286 1415.76 67.6089 1413.6 67.6191C1411.54 67.792 1409.5 68.2736 1407.52 69.0538C1406.54 69.0538 1405.62 70.0102 1404.71 70.4884L1403.12 71.2535L1400.23 73.0707C1386.32 81.1047 1371.96 93.2513 1355.93 103.772C1343.05 112.769 1329.78 120.848 1316.18 127.969C1310.88 130.418 1305.47 132.525 1300 134.282C1294.91 135.716 1290.35 136.769 1286.17 137.629C1274.13 140.659 1261.64 138.643 1250.6 131.891C1247.02 129.886 1243.6 127.418 1240.42 124.526C1237 120.222 1242.17 115.44 1252.35 108.65C1262.53 101.859 1277.66 91.0515 1296.88 75.3661C1311.55 64.6542 1325.99 52.2207 1341.41 39.309C1349.01 32.7097 1357.29 26.6842 1366.26 20.1805L1373.1 15.5897L1380.7 11.2858L1384.5 9.08602L1390.5 6.69496C1394.53 5.26033 1398.56 3.1562 1402.66 2.19978L1415.12 0C1419.23 0 1423.33 1.81711e-06 1427.43 0.478213C1431.47 0.921019 1435.47 1.84981 1439.36 3.25184C1443.17 4.80818 1446.88 6.72656 1450.46 8.99038C1457.61 13.6438 1463.83 20.2795 1468.65 28.3975C1473.46 36.5154 1476.75 45.9038 1478.27 55.8551C1479.83 66.3479 1479.83 77.1155 1478.27 87.6084C1477.65 93.131 1476.74 98.595 1475.53 103.963C1474.55 109.606 1472.95 113.527 1471.73 118.788C1467.73 132.03 1462.85 144.826 1457.14 157.045C1446.49 179.835 1434.1 201.264 1420.14 221.029C1413 231.158 1405.39 240.739 1397.34 249.722C1395.14 252.113 1393.01 254.409 1390.73 256.704L1384.73 262.634L1380.62 266.651L1377.43 270.381C1377.1 271.063 1376.66 271.65 1376.14 272.102L1378.8 275.45C1385.41 281.26 1392.32 286.531 1399.47 291.231L1424.17 309.69C1437.5 319.494 1450.38 330.222 1462.77 341.826L1467.63 346.703L1470.06 349.094L1472.95 352.251L1478.8 358.754L1486.4 368.319C1491.49 374.631 1495.29 381.708 1499.78 388.403L1504.87 399.115C1505.79 400.783 1506.6 402.542 1507.3 404.376L1508.82 409.732C1513.57 423.206 1514.3 438.387 1510.87 452.484C1507.27 466.582 1499.85 478.636 1489.9 486.533C1478.86 495.317 1466.49 501.114 1453.57 503.557C1450.15 504.418 1446.81 505.278 1443.54 505.757L1438.6 506.522L1434.35 507.096C1430.39 507.762 1426.4 507.955 1422.42 507.669C1414.82 507.669 1407.22 506.235 1399.62 505.852C1392.02 505.47 1384.42 504.991 1376.82 504.418C1362.08 503.174 1347.49 501.357 1333.05 499.444C1318.62 497.531 1304.18 495.236 1289.89 492.845L1268.46 489.21L1263.45 488.35C1262.79 488.442 1262.13 488.442 1261.47 488.35H1259.42L1258.81 486.819Z" fill="white"></path><path d="M1269.98 261.102C1275.15 270.667 1273.4 283.387 1273.4 294.003C1271.46 304.494 1267.4 314.177 1261.62 322.122C1258.79 325.877 1255.54 329.098 1251.97 331.686L1247.64 333.982C1235.51 337.884 1222.76 337.52 1210.79 332.93C1200.3 329.515 1190.33 323.923 1181.3 316.384C1172.99 310.754 1166.16 302.217 1161.62 291.804C1159.94 287.266 1159.23 282.254 1159.57 277.266C1159.96 272.313 1161.46 267.602 1163.9 263.685C1167.74 257.66 1173.1 253.474 1179.1 251.825C1182.52 250.677 1183.66 255.842 1183.73 262.25C1183.7 268.067 1183.42 273.877 1182.9 279.657C1182.9 279.657 1182.9 279.657 1182.9 280.422C1182.12 279.972 1181.3 279.62 1180.47 279.37C1180.79 279.468 1181.13 279.468 1181.45 279.37C1182.17 279.276 1182.87 279.017 1183.51 278.605L1184.34 278.127H1184.8L1185.94 278.988C1187 279.466 1187.46 281.092 1188.75 282.335C1191.47 285.497 1194.39 288.376 1197.49 290.943L1202.66 295.151L1205.47 297.16C1206.15 297.829 1206 298.02 1206.38 298.403C1207.7 300.233 1209.51 301.39 1211.47 301.655C1213.36 301.944 1215.28 301.944 1217.17 301.655H1218.39C1221.31 301.434 1224.06 299.799 1226.06 297.091C1228.05 294.383 1229.14 290.81 1229.1 287.117C1229.09 284.706 1228.64 282.33 1227.78 280.174C1226.93 278.018 1225.69 276.139 1224.16 274.684C1221.48 272.234 1218.31 270.775 1215.01 270.471C1211.71 270.167 1208.4 271.03 1205.47 272.962C1199.39 278.283 1193.98 284.732 1189.43 292.091C1188.41 293.926 1187.24 295.624 1185.94 297.16C1184.81 298.264 1183.59 299.195 1182.29 299.933C1181.04 300.318 1179.74 300.318 1178.49 299.933C1175.2 298.927 1172.1 297.106 1169.37 294.577C1167.62 293.143 1165.88 291.899 1164.28 290.465C1161.65 288.164 1159.74 284.782 1158.89 280.9C1157.86 276.661 1157.86 272.132 1158.89 267.893C1163.16 255.419 1170.14 244.713 1179.02 237.001C1180.09 235.949 1181.3 234.992 1182.44 234.036L1187.61 230.114C1191.56 228.01 1195.21 225.81 1199.62 223.993C1207.47 221.818 1215.51 220.823 1223.55 221.028C1226.29 221.028 1229.1 221.507 1231.76 222.176L1239.36 224.663C1244.05 227.113 1248.64 229.859 1253.11 232.888C1261.04 239.764 1267.14 249.5 1270.59 260.816L1269.98 261.102Z" fill="white"></path></svg>