<svg xmlns="http://www.w3.org/2000/svg" width="1134" height="1281" viewBox="0 0 1134 1281" fill="none"><path d="M601.621 160.537C584.14 243.57 402.534 350.389 354.913 364.452C354.2 364.72 353.44 364.792 352.696 364.665C351.952 364.537 351.247 364.213 350.639 363.719L331.294 345.987C331.294 345.987 478.651 265.766 504.516 238.006C530.382 210.247 600.087 154.3 600.087 154.3L601.621 160.537Z" fill="#F097D7"></path><path d="M325.814 368.672C313.408 359.618 301.939 349.057 291.619 337.183C281.441 325.028 272.677 311.49 265.534 296.889C251.349 267.434 244.606 234.232 246.026 200.831C246.413 188.807 247.714 176.841 249.916 165.062C252.006 153.301 255.164 141.807 259.342 130.76C274.021 91.9221 298.386 58.6034 329.54 34.7639C345.045 23.0335 362.039 13.9648 379.956 7.86042C384.504 6.63754 388.943 4.98664 393.546 4.13062L407.41 1.37914L421.33 0.217402C425.988 -0.271752 430.646 0.217402 435.249 0.217402H441.441L447.579 0.951131C451.634 1.50143 455.744 1.746 459.799 2.47974C467.863 3.99525 475.841 6.0369 483.692 8.59416C491.491 11.0799 499.158 14.0604 506.653 17.5212C510.434 19.2332 513.996 21.3733 517.613 23.2688C521.38 25.0424 525.041 27.0848 528.573 29.3832C547.044 40.6808 563.471 55.7129 577.015 73.7127C590.54 92.0548 599.6 113.977 603.319 137.364C603.319 144.823 602.771 148.064 601.346 148.186C599.922 148.309 597.511 145.313 593.346 140.727L560.466 98.4761C536.703 67.4505 504.479 45.9725 468.731 37.3319C450.998 32.6015 432.726 30.8905 414.534 32.2569C405.491 33.1086 396.527 34.8062 387.737 37.3319C378.828 40.1509 370.126 43.7281 361.708 48.0321C341.265 59.2163 323.369 75.4414 309.374 95.48C294.98 115.956 284.381 139.422 278.193 164.512C271.035 191.81 270.336 220.712 276.165 248.402C282.291 276.223 295.187 301.614 313.429 321.775C324.79 334.429 337.706 345.216 351.789 353.814C365.864 362.57 381.054 368.879 396.834 372.524C420.454 378.349 444.997 377.593 468.293 370.323C491.691 362.158 513.513 349.175 532.628 332.047C546.808 318.484 558.848 302.363 568.247 284.354C577.281 266.442 583.944 247.165 588.03 227.123L589.4 220.581C589.784 218.38 590.003 216.179 590.332 213.977C590.825 209.575 591.757 205.173 592.031 200.709C594.058 184.017 593.51 173.255 594.716 165.551C595.217 162.212 595.95 158.92 596.908 155.707C598.059 152.894 599.045 150.693 600.031 148.492C601.018 146.291 601.62 143.906 602.333 142.378C603.648 140.115 605.73 142.072 610.06 148.492C613.936 154.903 616.43 162.227 617.348 169.892C617.897 173.286 618.226 176.719 618.334 180.165C619.37 201.406 617.522 222.701 612.854 243.327C607.812 264.483 600.001 284.695 589.674 303.309C584.217 312.64 578.174 321.529 571.59 329.907C568.356 334.187 564.917 338.269 561.288 342.136L549.944 353.264L547.15 356.076L544.081 358.522L537.888 363.597C533.724 366.716 529.778 370.323 525.394 372.952L512.133 380.718C509.941 382.002 507.749 383.408 505.502 384.57L498.542 387.688L488.295 392.335C484.842 393.994 481.29 395.384 477.664 396.493C473.937 397.654 470.211 398.939 466.704 399.917L455.36 402.179C440.287 404.581 424.997 404.787 409.876 402.791C380.038 398.425 351.378 387.001 325.814 369.284V368.672Z" fill="#F097D7"></path><path d="M553.233 217.525C522.511 244.263 489.595 267.703 454.923 287.535C442.373 294.689 429.934 302.454 417.385 308.568C395.027 320.186 372.321 331.029 349.269 341.097C326.026 351.109 302.231 359.442 278.029 366.044C267.206 369.197 256.227 371.647 245.149 373.381C239.392 374.224 233.58 374.51 227.778 374.237C221.484 374.119 215.276 372.58 209.53 369.713C205.304 367.47 201.677 364.034 199.008 359.746C196.442 355.394 194.828 350.43 194.295 345.255C193.765 340.424 193.95 335.528 194.843 330.764C195.776 326.336 197.173 322.046 199.008 317.985C205.952 302.532 217.308 290.098 231.285 282.643C235.779 280.381 238.464 281.054 238.848 282.643C239.231 284.233 237.971 287.596 236.162 291.693C234.354 295.789 231.833 300.742 229.038 306.612C227.614 309.424 226.298 312.726 224.709 315.6L219.503 325.016C216.727 329.449 214.959 334.57 214.352 339.935C214.223 341.997 214.427 344.068 214.955 346.05C215.276 347.342 215.969 348.481 216.928 349.29C220.765 351.999 225.21 353.44 229.751 353.448C235.995 353.756 242.252 353.408 248.437 352.409C254.959 351.492 261.589 350.085 268.22 348.434C274.851 346.784 281.427 344.215 288.003 341.892C301.155 337.123 314.307 331.864 327.459 326.361C359.752 312.757 391.267 296.952 421.824 279.036C438.921 269.558 455.69 260.02 471.856 249.197C488.022 238.375 503.859 226.758 519.093 214.284C537.903 198.916 555.924 182.381 573.071 164.757C586.003 151.183 598.607 137.365 610.773 122.812C616.746 115.597 622.555 108.077 628.637 100.617C634.72 93.1576 640.419 85.9426 645.571 78.3607C649.552 72.6628 652.986 66.5148 655.818 60.0174C656.476 58.4277 657.188 56.8991 657.681 55.3093L658.503 52.9859C658.694 52.4248 658.858 51.8534 658.996 51.2738C659.497 49.4487 659.773 47.5564 659.818 45.6485C659.805 44.7467 659.593 43.8623 659.201 43.0733C658.809 42.2843 658.25 41.6149 657.572 41.1239C656.193 40.231 654.617 39.7862 653.023 39.8398C651.181 39.9428 649.348 40.2086 647.543 40.6347C644.66 41.2047 641.846 42.1486 639.159 43.4474C634.193 45.7769 629.5 48.7748 625.185 52.3744C618.777 56.2765 612.13 59.6682 605.293 62.5243C603.068 63.1086 600.782 63.3554 598.498 63.2581C596.361 62.8405 594.254 62.2478 592.196 61.4849C590.387 60.8123 588.36 60.5677 587.099 59.8951C584.907 58.7945 585.127 55.9819 586.606 50.2955C589.151 42.8067 593.73 36.3931 599.703 31.9523C610.941 22.4068 624.118 16.1058 638.063 13.609C642.118 12.4194 646.265 11.6618 650.448 11.3467C656.265 10.8357 662.115 11.6257 667.655 13.6702C672.975 15.6882 677.644 19.4097 681.081 24.3704C684.435 29.4551 686.24 35.6053 686.232 41.9188C685.903 48.551 684.665 55.0878 682.56 61.3014C682.212 62.5734 681.791 63.8192 681.3 65.0312L680.149 68.0273C679.327 70.0451 678.45 71.8794 677.574 73.836C674.14 81.1341 670.124 88.0716 665.572 94.5639C657.024 106.793 647.708 117.676 639.543 127.887C613.297 160.612 584.566 190.746 553.672 217.953L553.233 217.525Z" fill="#F097D7"></path><path d="M376.833 167.508C374.541 169.088 372.119 170.418 369.599 171.482C367.156 172.257 364.665 172.83 362.146 173.194C357.529 173.648 352.877 173.213 348.392 171.91L343.624 170.565C342.001 169.931 340.425 169.154 338.911 168.242C333.472 164.757 329.244 159.329 326.91 152.833C325.816 149.693 325.24 146.358 325.211 142.989C325.211 141.338 325.211 139.748 325.705 138.22L326.801 133.695C328.353 128.715 330.795 124.139 333.979 120.243C337.682 115.19 343.015 111.962 348.83 111.255C350.584 111.255 350.638 112.784 349.926 115.107C349.138 117.716 347.869 120.111 346.2 122.139C344.63 123.569 343.311 125.31 342.309 127.275C341.357 129.077 340.673 131.038 340.281 133.084C339.888 134.905 339.704 136.775 339.733 138.648C339.843 140.398 339.843 142.156 339.733 143.906C339.733 148.37 343.569 151.305 347.789 153.078C352.657 155.392 358.117 155.632 363.133 153.75C365.873 152.396 368.157 150.105 369.654 147.208C370.912 144.823 371.704 142.169 371.978 139.418C372.252 136.668 372.002 133.884 371.243 131.249C369.903 127.189 367.567 123.63 364.503 120.977C363.767 120.518 363.07 119.986 362.42 119.387C361.397 118.37 360.668 117.036 360.327 115.555C359.985 114.075 360.046 112.514 360.502 111.072C360.502 110.216 360.776 109.299 360.941 108.443C361.598 105.691 364.064 104.285 368.174 104.652C374.571 105.877 380.385 109.553 384.614 115.046C386.916 117.967 388.767 121.294 390.094 124.89C390.533 126.786 390.916 128.742 391.19 130.699C391.464 132.656 391.19 134.735 391.464 136.813C391.396 142.888 390.064 148.861 387.572 154.262C385.081 159.664 381.498 164.345 377.107 167.936L376.833 167.508Z" fill="#F097D7"></path><path d="M58.1435 997.888C62.5228 1040.58 74.8261 1081.36 94.052 1116.92C101.279 1129.74 109.429 1141.7 118.398 1152.63C133.309 1173.2 150.894 1190.4 170.394 1203.49C190.441 1216.87 212.076 1226.06 234.454 1230.69C254.796 1234.83 275.449 1235.99 296.002 1234.13C309.144 1233.14 322.359 1230.96 335.573 1228.69C348.787 1226.43 362.361 1225.7 375.934 1224.07C384.337 1223.34 383.978 1227.15 377.873 1234.04C368.214 1244.97 357.005 1253.49 344.837 1259.15C316.712 1268.6 287.76 1273.56 258.657 1273.93C243.735 1273.96 228.854 1271.96 214.274 1267.95C206.989 1266.05 199.795 1263.63 192.729 1260.69L181.956 1256.16C178.437 1254.44 174.774 1252.35 171.543 1250.45C138.507 1232.32 105.184 1207.21 81.3404 1171.58C54.9446 1132.96 36.2543 1086.92 26.8312 1037.32L25.6103 1031.79L24.8922 1026.08L23.384 1014.39C22.166 1006.84 21.3027 999.214 20.7986 991.542C19.6507 976.297 19.2908 960.974 19.7213 945.671C21.0717 899.547 29.1295 854.129 43.4928 811.684L47.6582 799.627L52.1826 787.751L56.8508 775.875L59.1489 769.62L61.878 763.999C65.6124 756.475 69.0597 748.77 73.0814 741.427C77.1032 734.084 82.1304 727.738 86.7267 720.939C90.7223 714.943 95.1194 709.393 99.8692 704.349C103.505 700.184 107.343 696.309 111.36 692.745C114.425 690.813 117.622 689.235 120.912 688.031C125.053 686.082 129.576 685.828 133.839 687.306C135.413 687.639 136.954 688.186 138.435 688.938C140.374 690.207 139.943 693.47 137.932 698.003C135.073 704.918 131.63 711.423 127.662 717.403C98.8783 762.168 77.6192 813.864 65.1815 869.34C55.9891 910.981 53.9084 954.611 59.0771 997.344L58.1435 997.888Z" fill="white"></path><path d="M216.143 846.947C214.228 880.666 220.383 914.334 233.81 943.584C239.063 954.003 245.257 963.616 252.267 972.231C264.421 988.548 278.614 1002.24 294.28 1012.75C310.591 1023.62 328.166 1031.14 346.347 1035.05C362.775 1038.36 379.502 1038.55 395.973 1035.6C417.518 1032.33 437.77 1025.81 459.1 1019.92C465.851 1018.19 467.143 1024.45 463.696 1033.88C458.541 1047.06 449.721 1057.39 438.919 1062.89C433.174 1065.7 427.357 1068.32 421.396 1070.41C415.492 1072.78 409.47 1074.66 403.37 1076.03C397.265 1077.3 391.017 1077.84 384.841 1078.57C378.665 1079.29 372.345 1079.29 366.097 1078.57C340.871 1077.9 316.009 1070.84 292.987 1057.81C278.984 1049.93 265.426 1040.84 252.41 1030.61C239.222 1019.91 227.383 1006.77 217.292 991.631C195.485 958.21 182.547 916.986 180.306 873.781C179.007 848.073 180.7 822.265 185.333 797.178C188.601 778.025 194.069 759.579 201.564 742.422C209.21 725.538 218.393 709.839 228.926 695.645C232.732 689.843 237.113 684.948 241.207 679.418C245.3 673.888 249.681 669.083 254.277 664.55C263.237 654.762 272.848 645.966 283.004 638.261C287.571 634.887 292.381 632.064 297.368 629.83C301.23 627.975 305.221 626.579 309.289 625.66C312.195 625.14 315.145 625.14 318.051 625.66C322.317 626.579 326.199 629.334 329.039 633.456C330.36 635.061 331.585 636.788 332.702 638.623C335.646 644.516 329.614 652.856 319.775 663.916C315.825 666.907 312.09 670.715 308.356 674.069C306.488 675.791 304.693 677.695 302.898 679.508C301.102 681.321 299.019 682.409 297.224 684.132C289.683 690.387 282.358 696.914 275.679 703.985C261.711 717.524 249.583 733.844 239.77 752.304C232.784 765.862 227.48 780.689 224.042 796.271C220.467 812.818 218.347 829.813 217.723 846.947H216.143Z" fill="white"></path><path d="M49.7417 918.474C47.3895 934.12 45.9969 949.971 45.5763 965.886C45.2617 981.705 45.9582 997.53 47.659 1013.21C51.6782 1044.64 60.1698 1074.89 72.7231 1102.5C74.7472 1107.67 77.1517 1112.59 79.9048 1117.19L88.2356 1131.24C94.6273 1139.67 100.373 1149.37 107.339 1156.71C119.216 1171.34 132.399 1184.18 146.623 1194.97C161.252 1205.71 176.728 1214.49 192.801 1221.17C225.75 1234.78 260.504 1240.05 295.069 1236.67C302.824 1236.14 310.546 1235.02 318.194 1233.32C325.851 1231.93 333.43 1229.93 340.888 1227.33C355.764 1222.32 370.201 1215.43 383.978 1206.75C419.384 1184.73 449.763 1150.82 481.578 1118.46C491.56 1108.3 494.074 1114.65 490.196 1129.34C483.352 1152.14 472.24 1172.51 457.806 1188.71C441.31 1207.6 423.307 1224.28 404.087 1238.48C384.336 1252.92 363.021 1263.64 340.816 1270.3L332.486 1272.75L324.155 1274.65C318.625 1275.74 313.095 1277.19 307.493 1278.1C296.313 1279.78 285.069 1280.68 273.811 1280.82C262.519 1281.06 251.225 1280.49 239.985 1279.1C234.383 1278.37 228.782 1277.1 223.18 1276.11L214.849 1274.38L206.59 1271.94C179.638 1264.36 153.501 1252.73 128.74 1237.31C103.666 1221.14 81.0735 1199.47 62.0224 1173.3C41.0912 1144.29 24.8228 1110.42 14.1204 1073.58C8.89954 1055.22 5.1464 1036.24 2.91693 1016.92C0.587685 997.824 -0.349861 978.495 0.116061 959.178C1.43754 912.25 9.51706 866.018 23.9593 822.743C44.6975 756.407 80.5955 699.355 127.089 658.84C145.282 643.589 164.83 631.084 185.332 621.581C205.872 612.73 227.15 606.89 248.747 604.176C258.298 602.725 267.563 602.363 277.474 602C312.951 603.541 323.437 611.065 328.607 628.108C329.99 631.799 331.073 635.656 331.839 639.622C332.557 645.877 329.182 650.863 322.79 654.308C319.062 656.22 315.15 657.5 311.156 658.115C306.56 658.931 301.389 659.294 295.572 659.928C262.017 660.652 228.764 668.056 197.038 681.866C181.981 689.061 167.543 698.173 153.948 709.063C140.364 720.279 127.919 733.553 116.891 748.588C99.8341 771.99 85.6487 798.482 74.8058 827.185C69.1029 841.806 64.3009 856.96 60.4424 872.512C56.3959 887.777 53.2983 903.417 51.178 919.29L49.7417 918.474Z" fill="white"></path><path d="M933.523 864.288C934.966 865.321 932.454 866.601 927.643 867.34C925.355 867.614 923.037 867.614 920.748 867.34C919.465 866.847 918.182 866.404 917.274 865.961C916.365 865.518 914.12 860.498 912.944 858.677C911.953 857.008 911.37 855.16 911.233 853.262C910.752 849.522 910.004 845.732 909.469 841.942C909.367 841.077 909.477 840.203 909.79 839.382C910.726 836.492 910.726 833.413 909.79 830.523C909.79 830.08 909.79 829.538 908.935 829.144C908.08 828.751 907.011 820.531 907.492 819.3C907.973 818.07 908.561 816.593 909.042 815.264L910.645 811.179C910.645 810.785 910.645 810.391 911.394 809.998C913.265 809.063 912.837 808.275 913.211 807.438C913.631 806.216 914.167 805.03 914.815 803.894C915.365 803.208 916.033 802.61 916.792 802.122C917.434 801.581 919.358 802.122 919.625 802.122C919.893 802.122 921.229 802.122 922.084 802.122H922.94C922.94 802.122 924.543 803.501 926.36 805.026L928.98 807.094C929.385 807.465 929.744 807.878 930.049 808.324L930.637 809.801C931.011 810.638 931.492 811.77 932.026 812.902C932.935 815.264 933.79 817.824 934.058 818.168C934.325 818.513 934.058 819.3 934.058 819.842C934.058 820.383 936.891 827.126 936.784 827.471C936.784 828.997 937.746 830.424 936.089 832.098C936 832.24 935.953 832.401 935.953 832.565C935.953 832.729 936 832.891 936.089 833.033C936.49 835.645 936.49 838.296 936.089 840.908C936.158 842.248 936.337 843.58 936.623 844.895C936.623 844.895 936.623 845.436 936.303 845.683C936.14 845.972 936.049 846.292 936.035 846.618C936.149 849.922 936.542 853.214 937.211 856.462C937.532 857.151 935.661 860.941 936.089 861.778C936.516 862.614 932.989 863.746 933.523 864.288Z" fill="#FFFD9C"></path><path d="M787.598 801.336C803.211 818.573 822.855 832.337 845.06 841.598C853.269 844.815 861.741 847.432 870.396 849.424C885.744 853.058 901.619 854.437 917.434 853.509C933.483 852.791 949.34 849.974 964.526 845.142C978.002 840.806 990.73 834.705 1002.32 827.029C1017.07 817.049 1030.4 805.39 1041.98 792.328C1045.77 788.391 1046.95 789.916 1045.61 794.691C1044.68 797.906 1043.39 801.023 1041.77 803.993C1039.36 808.076 1036.47 811.905 1033.16 815.413C1026.55 822.251 1019.31 828.543 1011.51 834.215C1003.6 839.849 995.135 844.793 986.228 848.981C968.282 857.134 948.926 862.331 929.034 864.338C917.024 865.607 904.927 866.035 892.846 865.617C880.512 865.131 868.289 863.264 856.445 860.055C830.573 852.895 806.809 840.406 786.957 823.534C774.767 813.265 764.253 801.429 755.74 788.391C743.045 768.518 735.406 746.254 733.397 723.272C731.638 705.714 733.322 688.009 738.368 671C739.651 667.358 740.72 663.715 742.11 660.024C747.936 646.587 751.731 643.19 755.901 641.763C756.831 641.387 757.798 641.09 758.787 640.877C761.513 640.877 760.765 646.685 757.665 656.135C753.089 670.285 750.591 684.935 750.235 699.695C748.835 718.061 751.423 736.499 757.848 753.933C764.272 771.367 774.404 787.448 787.652 801.237L787.598 801.336Z" fill="#FFFD9C"></path><path d="M893.168 546.767C891.992 546.127 893.916 545.34 897.658 544.208C899.401 543.777 901.198 543.562 903.003 543.568C904.026 543.906 905.01 544.334 905.943 544.848C907.273 547.143 908.451 549.51 909.471 551.935C910.183 553.493 910.547 555.167 910.54 556.858L910.914 566.702C910.909 567.435 910.727 568.158 910.379 568.818C909.281 571.104 908.928 573.635 909.364 576.103C909.364 576.496 909.364 576.89 909.898 577.284C910.867 579.849 911.016 582.617 910.326 585.258C909.062 587.232 907.954 589.289 907.012 591.41C907.012 591.706 907.012 592.001 906.37 592.247C904.713 592.936 904.981 593.527 904.874 594.167C904.71 595.072 904.404 595.951 903.965 596.775C903.433 597.298 902.821 597.745 902.148 598.104C901.153 598.494 900.053 598.597 898.994 598.4C898.246 598.055 897.177 598.4 896.214 598.4H895.199C893.088 596.667 891.284 594.641 889.854 592.395C889.854 592.395 889.319 590.327 888.838 588.211C888.357 586.094 887.715 583.978 887.555 583.289C887.395 582.6 887.555 582.354 888.036 581.911C888.517 581.468 886.86 575.512 886.914 575.266C886.914 574.035 886.54 572.756 888.09 571.525C888.41 571.279 888.09 571.033 888.09 570.787C888.058 568.612 888.345 566.443 888.945 564.339C889.025 563.257 889.025 562.172 888.945 561.09C888.945 561.09 888.945 560.697 889.266 560.5C889.418 560.273 889.526 560.023 889.586 559.762C889.854 557.241 889.854 554.702 889.586 552.182C889.586 551.689 891.083 548.884 890.762 548.293C890.442 547.703 893.595 547.063 893.168 546.767Z" fill="#FFFD9C"></path><path d="M739.492 724.945C737.728 725.978 736.659 722.877 738.263 718.3C739.191 716.165 740.28 714.093 741.523 712.098C742.257 711.184 742.834 710.171 743.234 709.096C743.234 709.096 744.249 708.259 745.105 707.718L748.526 706.044C749.904 705.312 751.479 704.954 753.069 705.01C756.276 705.01 759.697 704.518 763.118 704.223C763.948 704.179 764.776 704.331 765.524 704.666C768.123 705.721 771.051 705.861 773.755 705.06C774.236 705.06 774.717 705.06 775.038 704.321C775.359 703.583 783.109 702.402 784.232 702.845C785.502 703.36 786.805 703.804 788.134 704.174C789.47 704.617 790.753 705.207 792.143 705.749C792.517 705.749 792.891 705.749 793.265 706.438C794.281 708.21 794.976 707.914 795.831 708.062C797.038 708.274 798.207 708.639 799.306 709.145C800.011 709.685 800.608 710.335 801.069 711.065C801.389 712.111 801.389 713.218 801.069 714.264C800.642 715.002 801.069 716.085 801.069 717.069C801.096 717.397 801.096 717.726 801.069 718.054C799.366 720.213 797.471 722.238 795.403 724.108L791.127 726.126C788.936 726.815 786.584 727.652 786.103 727.898C785.622 728.144 785.087 727.898 784.499 727.553C783.911 727.209 777.497 730.064 777.176 730.064C775.679 730.064 774.29 730.95 772.579 729.473C772.259 729.178 771.991 729.473 771.671 729.473C769.087 729.868 766.45 729.868 763.866 729.473C762.521 729.509 761.181 729.641 759.858 729.867C759.59 729.867 759.323 729.867 759.109 729.571C758.824 729.393 758.491 729.291 758.147 729.276C754.772 729.277 751.4 729.441 748.044 729.768C747.296 730.064 743.234 727.652 742.165 727.849C741.096 728.046 740.08 724.502 739.492 724.945Z" fill="#FFFD9C"></path><path d="M766.966 817.824C750.646 799.141 738.772 777.509 732.115 754.329C725.633 731.34 724.287 707.377 728.159 683.895C730.664 666.943 735.663 650.384 743.019 634.674C763.269 593.176 799.846 560.287 845.381 542.632C852.841 539.771 860.481 537.322 868.258 535.298L879.965 532.69L892.152 530.967C920.775 528.123 949.72 531.721 976.5 541.451C993.74 547.5 1009.67 556.334 1023.54 567.538C1037.14 579.178 1047.44 593.712 1053.53 609.867C1057.11 619.711 1051.81 619.711 1043.32 614.346C1039.31 611.541 1033.53 608.046 1027.92 603.764C1024.67 601.748 1021.55 599.562 1018.57 597.218C1015.14 595.001 1011.84 592.619 1008.68 590.081C985.494 570.965 956.232 559.245 925.239 556.66C921.39 556.242 917.516 556.045 913.64 556.069H907.867L902.094 556.414C900.223 556.414 898.245 556.414 896.375 556.808L890.709 557.644C886.967 558.038 883.118 558.924 879.216 559.712C863.541 563.005 848.445 568.307 834.37 575.462C816.978 584.48 801.786 596.693 789.737 611.344C777.513 626.199 768.082 642.837 761.834 660.564C754.898 680.038 752.086 700.557 753.549 721.007C755.156 741.486 761.421 761.425 771.937 779.53C775.163 785.111 778.732 790.518 782.627 795.724L789.042 803.156L792.302 806.897L795.884 810.342C805.396 819.668 816.175 827.824 827.955 834.608C845.97 844.899 865.91 852.01 886.753 855.576C907.437 858.957 928.689 857.913 948.865 852.524C964.223 848.229 978.681 841.572 991.627 832.836C1004.54 824.331 1016 814.094 1025.62 802.467C1030.11 797.545 1033.53 792.18 1037.76 787.061C1041.07 782.139 1044.06 777.857 1046.47 774.313C1048.24 771.255 1050.32 768.355 1052.67 765.65C1055.5 761.947 1059.38 759.035 1063.9 757.233C1065.73 756.515 1067.63 755.923 1069.56 755.461C1072.34 754.969 1073.68 757.43 1073.84 762.697C1073.89 765.992 1073.64 769.285 1073.09 772.541C1071.98 776.907 1070.55 781.199 1068.81 785.387C1067.37 788.931 1065.45 792.229 1063.47 795.724L1060.79 800.646L1057.64 805.568C1055.45 808.816 1053.42 812.262 1051.01 815.412C1048.61 818.562 1045.67 821.515 1043.26 824.616C1032.18 836.774 1019.28 847.415 1004.94 856.215C990.108 865.237 973.891 872.156 956.829 876.74C952.542 877.912 948.188 878.865 943.787 879.595L937.159 880.875C934.967 881.269 932.722 881.367 930.477 881.613C925.987 882.007 921.551 882.598 917.007 882.745H903.858C900.514 882.712 897.175 882.481 893.862 882.056L883.92 880.924C877.292 880.038 870.878 878.315 864.356 876.987C857.835 875.658 851.902 873.147 845.648 871.228C839.394 869.308 833.621 866.306 827.688 863.697C804.151 852.533 783.328 837.076 766.485 818.267L766.966 817.824Z" fill="#FFFD9C"></path><path d="M914.068 715.742C913.839 716.132 913.66 716.544 913.533 716.972C913.746 717.212 914.022 717.399 914.335 717.513C914.814 717.712 915.316 717.861 915.832 717.956H917.061H918.932C920.221 717.956 921.509 717.857 922.78 717.661C926.522 717.366 930.21 716.283 934.112 715.742C947.796 713.871 962.068 710.819 976.874 708.998C983.467 707.918 990.126 707.211 996.812 706.882C1005.55 705.862 1014.43 707.071 1022.47 710.376C1024.98 711.459 1023.65 714.216 1020.76 716.874C1017.93 719.735 1014.19 721.699 1010.07 722.485C1002.77 722.922 995.515 723.86 988.367 725.29L964.955 728.49C955.173 729.671 945.444 733.412 935.021 735.725C932.188 736.316 929.195 736.759 926.308 737.251C924.865 737.251 923.315 737.645 921.818 737.841L916.473 738.481C911.983 738.826 907.6 738.777 903.27 738.924L897.123 738.383H894.13C893.221 738.383 891.671 738.383 892.045 737.251L891.137 722.829C891.137 720.565 890.709 717.907 890.762 715.988V711.066C890.495 701.221 891.404 691.377 891.297 681.829C891.22 678.106 890.898 674.392 890.335 670.705L889.533 665.192C889.533 663.371 889.533 661.55 889.212 659.729C888.892 657.908 888.892 656.529 889.212 654.807C890.174 648.802 892.099 646.931 897.177 645.652C898.298 645.31 899.44 645.031 900.598 644.815C904.286 644.224 907.653 646.734 909.952 651.214C916.954 664.552 916.206 678.629 916.42 692.066C916.42 696.989 916.42 701.911 915.939 706.833L915.618 714.314V715.102L914.068 715.742Z" fill="#FFFD9C"></path><path d="M1006.22 509.36C1007.45 510.098 1006.22 511.427 1002.85 513.199C1001.33 513.904 999.682 514.354 997.988 514.528C996.958 514.228 995.957 513.849 994.995 513.396C993.038 510.926 991.253 508.345 989.65 505.668C988.475 503.859 987.643 501.878 987.191 499.811C986.122 495.726 984.999 491.591 984.251 487.407C984.024 486.538 983.952 485.64 984.037 484.75C984.658 481.493 984.658 478.162 984.037 474.905C984.037 474.364 984.037 473.823 983.396 473.281C982.754 472.74 982.54 463.437 983.396 462.108C984.946 459.253 986.068 456.399 987.672 453.593C987.672 453.199 987.672 452.707 988.527 452.461C990.451 451.969 990.612 451.083 991.093 450.246C991.679 448.99 992.62 447.902 993.819 447.096C994.635 446.675 995.495 446.329 996.385 446.062C997.133 445.767 998.469 446.604 998.63 446.85C998.79 447.096 999.912 447.44 1000.61 447.637H1001.3C1001.3 448.031 1005.04 454.971 1005.1 455.463C1004.87 458.665 1004.97 461.879 1005.42 465.061C1005.42 465.554 1005.42 466.046 1004.88 466.538C1004.35 467.03 1006.17 473.626 1006.11 473.921C1006.11 475.348 1006.65 476.776 1005.2 478.302C1004.94 478.597 1005.2 478.892 1005.2 479.188C1005.42 481.727 1005.42 484.278 1005.2 486.817C1005.28 488.123 1005.46 489.423 1005.74 490.705C1005.74 490.705 1005.74 491.197 1005.74 491.444C1005.69 491.753 1005.69 492.069 1005.74 492.379C1006.08 495.477 1006.72 498.541 1007.66 501.534C1007.98 502.223 1007.24 505.914 1007.66 506.702C1008.09 507.489 1005.69 509.36 1006.22 509.36Z" fill="#FFFD9C"></path><path d="M1086.13 562.616C1086.51 563.895 1084.37 563.157 1080.79 561.434C1079.04 560.56 1077.44 559.467 1076.03 558.186C1075.51 557.227 1075.09 556.221 1074.8 555.183C1075.51 552.352 1076.59 549.61 1078.01 547.013C1078.87 545.113 1080.21 543.427 1081.91 542.091C1085.08 539.343 1088.5 536.84 1092.12 534.609C1092.96 534.11 1093.91 533.79 1094.9 533.674C1098.16 533.224 1101.29 532.169 1104.09 530.573C1104.57 530.327 1105.11 530.278 1105.37 529.49C1105.64 528.703 1114.3 525.454 1115.64 525.996C1116.97 526.537 1118.68 526.537 1120.18 527.029L1124.62 528.457C1124.99 528.457 1125.42 528.457 1125.85 529.096C1126.04 529.57 1126.39 529.975 1126.86 530.249C1127.32 530.524 1127.86 530.655 1128.41 530.622C1129.51 530.641 1130.58 530.924 1131.51 531.442C1132.45 531.96 1133.23 532.696 1133.76 533.576C1134.08 534.403 1134.08 535.308 1133.76 536.135C1133.28 536.775 1133.76 537.661 1133.76 538.399C1133.78 538.678 1133.78 538.957 1133.76 539.236C1133.76 539.58 1128.41 544.65 1127.99 544.896L1126.81 545.487L1124.35 546.963C1122.59 548.096 1120.72 548.735 1120.39 549.129C1120.07 549.523 1119.54 549.129 1119.01 549.129C1117.15 549.983 1115.37 550.953 1113.66 552.033C1112.43 552.033 1111.74 553.214 1109.92 552.033C1109.54 552.033 1109.38 552.033 1109.17 552.033C1107.32 552.903 1105.36 553.58 1103.34 554.051C1102.4 554.465 1101.52 554.995 1100.72 555.626C1100.72 555.626 1100.24 555.626 1100.03 555.626C1099.82 555.626 1099.44 555.626 1099.23 555.626C1097.36 557.152 1094.74 557.989 1093.51 560.105C1093.19 560.548 1089.87 561.237 1089.61 561.877C1089.34 562.517 1086.02 562.025 1086.13 562.616Z" fill="#FFFD9C"></path></svg>