<svg xmlns="http://www.w3.org/2000/svg" width="54" height="124" viewBox="0 0 54 124" fill="none"><path d="M18.2385 65.8598C18.2385 65.8598 24.4437 68.2627 25.2583 72.6427C26.025 76.7338 20.2271 78.6196 20.2271 78.6196C20.2271 78.6196 30.2896 80.0188 30.4213 75.0609C30.5531 70.1029 26.8995 65.1906 24.264 65.434C21.6286 65.6773 18.2385 65.8598 18.2385 65.8598Z" fill="#F097D7"></path><path d="M19.2926 68.5972C17.1949 68.1554 15.0488 68.2485 12.9796 68.8709C11.0216 69.439 9.20347 70.6088 7.68483 72.2776L7.32546 72.7338L7.16973 72.9619C7.16973 72.9619 7.16973 73.038 7.16973 73.0836C7.07423 73.2918 6.99402 73.5107 6.93015 73.7376C6.75444 74.5062 6.61839 75.2885 6.52286 76.0796C6.10004 79.7818 6.03568 83.5358 6.33119 87.2578C6.60185 91.2463 7.07401 95.2086 7.74473 99.1203C8.34679 102.616 9.14749 106.052 10.1406 109.401C10.7635 111.53 11.5062 113.614 12.213 115.667L12.74 117.188L13.1593 118.891C13.4109 119.971 13.6744 121.035 13.9619 122.085C14.2973 123.378 13.6025 123.925 12.177 123.606C11.2915 123.355 10.4425 122.929 9.6614 122.343C9.18228 122.008 8.72907 121.616 8.30775 121.172C8.08015 120.944 7.90046 120.686 7.67286 120.458C7.51116 120.165 7.36316 119.86 7.22963 119.545C5.44756 115.12 3.97641 110.504 2.83327 105.751C1.71463 100.978 0.991953 96.0694 0.677022 91.1055C0.485355 88.0638 0.197855 85.0222 0.0541049 81.9044C-0.018035 80.2784 -0.018035 78.6486 0.0541049 77.0226C0.167217 75.222 0.465227 73.4478 0.940563 71.7453C1.27046 70.6549 1.72232 69.6305 2.28223 68.7036L2.77338 67.9584L3.20462 67.4413C3.48292 67.0972 3.77907 66.7771 4.09108 66.4832C5.2744 65.3027 6.5805 64.3355 7.97234 63.6088C10.6199 62.2692 13.4363 61.5478 16.2859 61.4797C19.7487 61.3205 23.1899 62.234 26.3124 64.1411C27.7916 64.9838 29.0999 66.2437 30.1378 67.8249C31.1757 69.4061 31.9159 71.2671 32.302 73.2661C32.3676 73.7178 32.4036 74.1756 32.4098 74.6349C32.4098 75.0911 32.338 75.5474 32.314 76.0036C32.29 76.4599 32.0385 76.8553 31.8828 77.2659L31.2598 78.3761L30.4692 79.319C30.19 79.6017 29.8936 79.856 29.5828 80.0794C29.0682 80.4559 28.5316 80.7813 27.9775 81.0528C26.105 81.8956 24.1501 82.4074 22.1677 82.5736C21.2093 82.7257 20.2749 82.6801 19.3166 82.7257C18.3583 82.7713 17.4119 82.7257 16.4775 82.5584C15.5432 82.3911 14.8364 82.4367 14.0817 82.239C13.327 82.0413 12.6921 81.8892 12.177 81.7067C11.7546 81.5234 11.3521 81.2731 10.9791 80.9615C10.4413 80.5337 10.0483 79.8668 9.87702 79.0909C9.77507 78.7759 9.69491 78.4502 9.63744 78.1176C9.5416 77.1442 10.9192 76.5967 13.0515 76.5967C16.1362 76.9392 19.2386 76.9392 22.3234 76.5967C23.688 76.4505 25.0302 76.0667 26.3124 75.4561C26.576 75.304 26.7916 75.1367 27.0312 74.9999C27.2708 74.863 27.1869 74.863 27.1989 74.8478C27.0911 74.8478 27.1989 74.9542 27.1989 74.8478C27.1636 74.7534 27.1236 74.662 27.0791 74.574C27.0022 74.4061 26.9183 74.2437 26.8275 74.0874C26.6119 73.7832 26.4682 73.4182 26.2525 73.0988C25.768 72.358 25.1889 71.7257 24.5395 71.2282C22.9532 69.9083 21.158 69.0465 19.2807 68.7036L19.2926 68.5972Z" fill="#F097D7"></path><path d="M15.9145 17.7862C16.0583 16.9801 16.202 16.1893 16.3697 15.3832L16.5374 14.5468C16.5829 14.187 16.6469 13.8313 16.7291 13.4822L17.2202 11.3682C17.5077 9.93865 17.9869 8.67636 18.3463 7.35323L19.077 5.69553L19.4364 4.87428L19.8317 4.22032C20.6476 2.6505 21.8043 1.41442 23.1619 0.661568C23.8041 0.289262 24.494 0.0676995 25.1984 0.00760873C25.603 -0.0229817 26.0088 0.0388302 26.3963 0.190109C26.7355 0.33666 27.061 0.530482 27.3666 0.768025C28.1613 1.44015 28.8449 2.3029 29.3791 3.30782C30.0419 4.63602 30.5125 6.10387 30.7687 7.64219C31.0558 9.29067 31.2519 10.9626 31.3557 12.6457C31.3557 13.5126 31.4515 14.3795 31.4754 15.2464C31.4994 16.1132 31.4754 17.0866 31.4754 17.4668C31.4754 19.5351 31.4754 21.5882 31.3437 23.6414C31.176 27.7172 30.9364 31.7626 30.4932 35.808C30.1697 39.382 29.8343 42.9711 29.5109 46.4539C29.2342 51.0999 28.3221 55.6493 26.8155 59.898C26.2765 61.2211 25.6176 60.6889 25.1145 59.2745C24.3836 57.3164 24.007 55.1755 24.0124 53.0087C24.0723 51.8984 24.0124 50.773 24.1322 49.6628L24.3359 46.3322L24.6713 39.6101C24.7791 37.3745 24.8869 35.0476 24.9827 32.8728C25.0786 30.698 25.3301 28.3103 25.4978 26.1203C25.7035 23.3901 25.7236 20.6424 25.5577 17.9078L25.5458 16.9953V16.3109L25.402 14.8814C25.3324 14.2554 25.161 13.6546 24.8989 13.1172C24.8379 12.9922 24.7462 12.8961 24.638 12.8439C24.5297 12.7917 24.4109 12.7862 24.2999 12.8282C24.1063 12.9132 23.9331 13.0598 23.7968 13.2541C23.2073 14.1858 22.7678 15.2554 22.503 16.4022C22.4341 16.6108 22.3741 16.8241 22.3234 17.0409L21.9999 18.3489C21.7963 19.2461 21.5807 20.1282 21.401 21.0407C21.0057 22.8505 20.6942 24.7059 20.4307 26.5614C19.5893 32.1932 19.0807 37.897 18.9093 43.6251C18.8781 47.9914 19.1144 52.3541 19.6161 56.6739C19.7119 57.6168 19.8796 58.5141 19.9635 59.457C20.0491 60.7135 19.9885 61.9793 19.7838 63.2134C19.5861 63.9692 19.23 64.6422 18.7536 65.1601C18.5624 65.4103 18.3583 65.644 18.1426 65.8597C17.7952 66.1487 17.4119 65.9661 16.9447 65.3882C16.232 64.593 15.6743 63.5987 15.3155 62.4834C14.7052 60.5006 14.3025 58.4247 14.1176 56.3089C13.878 54.2101 13.6864 52.0657 13.5905 49.9366C13.4069 45.6293 13.4389 41.3116 13.6864 37.0095C13.8701 33.8056 14.1456 30.6017 14.5129 27.3978C14.7046 25.7857 14.9202 24.1889 15.1478 22.592C15.3754 20.9951 15.5671 19.3678 15.8187 17.7557L15.9145 17.7862Z" fill="#F097D7"></path><path d="M46.7009 26.2418C47.0004 24.9643 47.264 23.6716 47.4916 22.4093C47.7192 21.147 47.9827 19.9303 48.1384 18.7289V18.2878V18.0141C48.1437 17.9432 48.1437 17.872 48.1384 17.8011C48.1514 17.6495 48.1514 17.4965 48.1384 17.3449C48.1508 16.9872 48.0799 16.6329 47.9348 16.3259C47.8904 16.208 47.8134 16.1148 47.7184 16.0644C47.6234 16.0139 47.5171 16.0095 47.4197 16.0522C47.2585 16.1884 47.1063 16.341 46.9645 16.5084C46.829 16.6444 46.7046 16.7972 46.5931 16.9647C46.513 17.0616 46.4407 17.1686 46.3775 17.2841L46.3056 17.3905L46.1858 17.6643L45.9223 18.227C45.2395 19.7478 44.6285 21.2686 43.9338 22.8959C42.5921 26.0593 41.3582 29.3595 40.2322 32.7205C39.2379 35.7622 38.4832 38.8039 37.6687 41.8455C37.1775 43.8074 36.7582 45.7997 36.303 47.7616L35.6082 50.6816C35.4046 51.6245 34.9733 52.5522 34.7457 53.4039C34.59 53.9209 34.3624 53.9666 34.0509 54.073C33.7395 54.1795 33.2963 53.9666 32.853 53.2974C32.3183 52.4704 31.8824 51.548 31.5593 50.5599C31.2193 49.4051 31.1163 48.1596 31.2598 46.9403C31.5233 44.7199 31.8588 42.5451 32.2421 40.4007C32.5819 38.2448 33.0627 36.1285 33.6796 34.0741C34.8856 29.9318 36.3351 25.9106 38.016 22.0443C38.5312 20.8884 39.0223 19.687 39.5015 18.4855L41.1067 14.8659L41.6697 13.9534C41.8853 13.5124 42.089 13.0714 42.3405 12.6151C42.8197 11.7026 43.3228 10.8509 43.8259 10.0297C44.7095 8.55987 45.8889 7.41977 47.24 6.72948C47.9562 6.40202 48.74 6.40202 49.4562 6.72948C49.8035 6.9576 50.1509 7.17052 50.4983 7.41385L51.4327 8.25031C52.5635 9.74335 53.3327 11.6173 53.6489 13.6493C53.8378 14.7485 53.9342 15.87 53.9364 16.9951C53.9697 17.5012 53.9697 18.0099 53.9364 18.5159C53.9364 18.9266 53.9364 19.3524 53.8645 19.7326C53.746 21.272 53.5338 22.7974 53.2296 24.2951C52.4719 27.8719 51.5315 31.3823 50.4145 34.8041C48.7973 39.9445 46.8207 44.8568 44.952 49.7234C43.4785 53.5103 42.1848 57.3276 40.6395 61.0689C40.2921 61.8901 39.9806 62.7266 39.5853 63.5326C39.1296 64.6611 38.4784 65.6438 37.6806 66.407C37.0963 66.7672 36.4315 66.8586 35.7999 66.6655C35.5204 66.6226 35.244 66.5514 34.9733 66.4526C34.578 66.2549 34.4103 65.753 34.3744 64.9318C34.303 63.9232 34.4609 62.9098 34.8296 62.0118L38.5192 52.0655C39.7171 48.6589 40.915 45.1914 42.1129 41.7086C43.8573 36.6185 45.3301 31.3851 46.5213 26.0441L46.7009 26.2418Z" fill="#F097D7"></path><path d="M40.6156 96.0784C38.2317 99.9289 35.6078 103.53 32.7692 106.846C31.7641 108.149 30.6829 109.354 29.5349 110.45C28.4441 111.466 27.2667 112.324 26.025 113.005C25.3303 113.387 24.6025 113.662 23.8567 113.827C22.9715 114.035 22.0597 113.973 21.1974 113.644L20.5145 113.34C20.3109 113.203 20.1073 113.036 19.9156 112.884C19.5158 112.564 19.1597 112.163 18.8614 111.697C18.5668 111.233 18.3212 110.722 18.1307 110.177C17.9808 109.682 17.8606 109.173 17.7713 108.656C17.5611 106.835 17.7219 104.976 18.2385 103.257C18.9833 100.59 20.0153 98.0667 21.3052 95.7591C22.8255 92.837 24.7734 90.3124 27.0432 88.3222C27.7619 87.7139 28.1213 88.4591 28.1093 89.7366C28.0697 91.3733 27.6533 92.9595 26.9114 94.2991C26.5041 94.9378 26.1687 95.6222 25.7974 96.2761C25.6057 96.6107 25.438 96.9453 25.2823 97.2799L24.7312 98.238C24.065 99.4915 23.4686 100.803 22.9463 102.162C22.429 103.356 22.0574 104.643 21.8442 105.979C21.7621 106.479 21.7299 106.99 21.7484 107.5C21.8083 107.834 21.8083 108.123 21.9161 108.276C22.0239 108.428 21.976 108.382 22.0239 108.443C22.0387 108.476 22.0594 108.504 22.0844 108.525C22.1094 108.547 22.1379 108.56 22.1677 108.564C22.1677 108.564 22.2395 108.656 22.3234 108.656C22.4028 108.64 22.4836 108.64 22.563 108.656C23.1132 108.573 23.6437 108.345 24.1203 107.987C25.3833 107.034 26.5534 105.896 27.6062 104.595C30.1684 101.564 32.473 98.1995 34.4823 94.5576C35.7618 92.3036 36.9377 89.9576 38.0041 87.5314C38.7948 85.7064 39.5854 83.8661 40.2203 81.9803C40.388 81.5089 40.5198 81.0222 40.6635 80.5507C40.7354 80.3226 40.8073 80.0793 40.8672 79.8359L41.0109 79.2732C41.1671 78.6916 41.2715 78.0897 41.3224 77.4786C41.4079 77.058 41.3828 76.6134 41.2509 76.2125C41.119 75.8117 40.8875 75.4766 40.5916 75.2582C39.9927 74.8476 39.226 75.4255 38.7948 75.8514C38.5791 76.0643 38.3994 76.3532 38.2437 76.5053C38.1298 76.6356 37.9881 76.7202 37.8364 76.7486C37.8364 76.7486 37.525 76.7486 37.3812 76.7486C37.206 76.7714 37.0294 76.7714 36.8541 76.7486C36.5195 76.7077 36.1962 76.5726 35.9078 76.3532C35.582 76.0468 35.2881 75.6891 35.0333 75.2886C34.7967 74.9571 34.588 74.5952 34.4104 74.2089C34.2015 73.5378 34.1274 72.8113 34.1948 72.0949C34.1921 71.6769 34.2574 71.2628 34.3864 70.8782C34.4546 70.6781 34.5347 70.4849 34.626 70.3003L34.7698 70.0114L34.8536 69.8593C34.8536 69.7224 34.8536 69.7224 34.8536 69.7072L34.9494 69.5855C35.7616 68.7208 36.6136 67.9184 37.501 67.1826C38.3519 66.4896 39.2993 66.0095 40.2922 65.7682C40.7479 65.6806 41.209 65.6449 41.6698 65.6618H42.3645L43.0234 65.8443C43.9405 66.1343 44.8034 66.6511 45.563 67.3651L46.5812 68.8859C46.9026 69.3825 47.1723 69.9294 47.3838 70.5132C47.5875 71.1064 47.7073 71.7603 47.8869 72.3991C48.0666 73.0378 48.0307 73.7982 48.1026 74.4978C48.1744 75.1974 48.1026 76.0186 48.0427 76.7639C47.9643 77.5413 47.8361 78.3093 47.6593 79.0603C47.5324 79.8607 47.3602 80.6485 47.1442 81.4176L46.9047 82.3301C46.8448 82.5582 46.7849 82.7864 46.713 82.9993C45.2031 87.7182 43.1875 92.1502 40.7234 96.1697L40.6156 96.0784Z" fill="#F097D7"></path><path d="M46.701 101.341C44.9969 104.163 43.1438 106.836 41.1546 109.34C40.3999 110.222 39.7411 111.196 38.9265 112.002C37.4881 113.436 35.9619 114.723 34.3624 115.849C33.5303 116.436 32.6655 116.944 31.7749 117.37C30.8305 117.852 29.8317 118.139 28.8161 118.222C27.8112 118.269 26.8147 117.975 25.9291 117.37C25.4233 117.065 24.9779 116.619 24.6255 116.067C24.2731 115.514 24.0227 114.868 23.8927 114.177C23.7723 113.252 23.8595 112.303 24.1442 111.439C24.377 110.717 24.7143 110.057 25.1385 109.492C25.8218 108.509 26.632 107.681 27.5343 107.044C28.0973 106.679 28.3729 107.257 28.4208 108.276C28.4787 109.492 28.3485 110.712 28.0374 111.865C27.8982 112.254 27.7937 112.663 27.726 113.082C27.726 113.234 27.726 113.082 27.726 113.173C27.726 113.173 27.6541 113.173 27.9177 113.355C28.3147 113.637 28.7794 113.723 29.2234 113.599C29.581 113.547 29.9315 113.434 30.2656 113.264C30.6249 113.021 30.9963 112.853 31.3677 112.564C33.2289 111.025 34.8528 109.066 36.1593 106.785C37.7525 104.337 39.4775 101.964 40.951 99.3028C41.8698 97.699 42.7137 96.0283 43.4786 94.2992C44.6735 91.8293 45.5283 89.1189 46.0062 86.2845C46.1499 85.3989 46.0703 84.4783 45.7786 83.6534C45.7442 83.523 45.6768 83.4108 45.5869 83.334C45.5614 83.3081 45.5297 83.294 45.4971 83.294C45.4644 83.294 45.4327 83.3081 45.4072 83.334L45.6708 83.0603L45.8145 82.9234C45.8984 82.9234 46.0062 82.6801 46.0541 82.6345C46.1045 82.5703 46.1487 82.4988 46.1859 82.4215C46.3057 82.2086 46.1859 82.2542 46.1859 82.6953C46.1614 82.9936 46.1614 83.2943 46.1859 83.5926C46.1859 83.7903 46.1859 83.988 46.1859 84.1857V84.2922L45.9223 84.3682C45.4199 84.5371 44.8915 84.5371 44.389 84.3682C43.8679 84.0535 43.4276 83.5579 43.1192 82.9386C42.9275 82.604 42.7239 82.2999 42.5682 81.9805C42.3247 81.4365 42.2439 80.7994 42.3406 80.1859C42.4199 79.4328 42.684 78.7304 43.0953 78.1784C43.479 77.5934 43.9268 77.0813 44.4249 76.6576C44.9281 76.2416 45.5001 75.9786 46.0963 75.8889C46.6926 75.7992 47.2972 75.8853 47.863 76.1405C48.6507 76.4283 49.3733 76.9495 49.9713 77.6613C50.1071 77.8134 50.2269 77.9655 50.3307 78.1176C50.4385 78.2697 50.5104 78.3913 50.5942 78.5282L51.0614 79.3799C51.3207 79.9148 51.5298 80.4865 51.6843 81.0832C51.8394 81.5731 51.9519 82.0831 52.0197 82.604C52.2473 84.2981 52.2229 86.0313 51.9479 87.714C51.7447 89.0841 51.444 90.428 51.0494 91.729C49.918 95.1786 48.4619 98.4417 46.713 101.447L46.701 101.341Z" fill="#F097D7"></path></svg>