<svg xmlns="http://www.w3.org/2000/svg" width="99" height="116" viewBox="0 0 99 116" fill="none"><path d="M9.28357 22.6106C9.28357 22.6106 14.7436 14.4894 16.9617 16.8923C18.9726 19.0671 19.3017 23.5992 19.3017 23.5992L12.4279 32.8154L9.28357 22.6106Z" fill="#FFFD9C"></path><path d="M33.488 6.47469C21.398 17.0293 13.1592 45.8186 15.3164 50.9895C16.4742 53.7726 3.12891 48.9059 3.12891 48.9059L28.7227 4.07178L33.488 6.47469Z" fill="#FFFD9C"></path><path d="M23.872 97.7399C31.4364 94.6172 39.1064 91.8797 46.882 89.5274C49.7095 88.6758 52.5248 87.7024 55.4133 87.0181C60.3492 85.8622 65.3339 84.9649 70.3552 84.387C71.5739 84.2501 72.7927 84.1133 74.1089 84.0068L77.5702 83.7483C78.1166 83.7408 78.662 83.69 79.2033 83.5962C79.3308 83.57 79.4543 83.5187 79.5689 83.4441C79.6218 83.3874 79.6596 83.3118 79.677 83.2275C79.6944 83.1432 79.6907 83.0542 79.6664 82.9726L79.3373 82.0601L79.1911 81.6799L78.8499 80.7978L78.1186 78.9881L76.5952 75.186C75.5714 72.6614 74.5842 70.1064 73.6092 67.5818C72.3905 64.2968 71.1717 60.9814 70.1114 57.5443C69.5879 55.8067 69.1403 54.0348 68.7708 52.2366C68.566 51.3328 68.4354 50.4054 68.3808 49.4687C68.2828 48.5205 68.2339 47.5655 68.2345 46.6095C68.2345 44.1762 69.3436 44.4803 70.8061 46.0468C71.668 46.9971 72.482 48.013 73.2436 49.0885C74.1557 50.4937 74.8688 52.083 75.352 53.7878C76.6317 58.2135 78.1674 62.6391 79.7761 67.0495C80.5886 69.2598 81.4011 71.465 82.2136 73.6651L83.4324 76.9653L83.5908 77.376L83.9077 78.1364L84.5658 79.7333C85.0045 80.7978 85.4555 81.8472 85.7845 82.8966L85.9917 84.2501V85.3755C85.975 85.7386 85.9175 86.097 85.8211 86.4401C85.7102 86.856 85.5456 87.2465 85.3336 87.596C84.4073 88.9556 83.099 89.8209 81.6774 90.0141C80.8364 90.1662 80.0077 90.3031 79.1302 90.3639L77.8383 90.4703H77.0705L74.2552 90.592C67.3083 90.881 60.2152 92.782 53.2683 94.6983C45.6267 96.8122 38.0339 99.4128 30.5264 102.424C28.2108 103.337 25.9195 104.31 23.6161 105.283C21.3127 106.257 19.5211 107.154 16.1939 108.979L15.548 109.313L13.8905 109.587L13.0617 109.724C12.7814 109.876 12.5133 109.633 12.2939 109.405C11.4569 108.313 10.8389 106.989 10.4902 105.542C10.283 104.766 10.1002 104.021 9.94172 103.169L9.58828 101.36C9.39328 100.234 9.21047 99.0935 9.02765 97.9681C8.34515 93.4056 7.8089 88.843 7.39453 84.4022C6.53376 77.2344 6.12625 69.9932 6.17578 62.7456C6.18768 61.103 6.27722 59.4627 6.4439 57.8333C6.67838 55.5769 7.3156 53.4149 8.30859 51.5066C8.9706 50.5547 9.86606 49.9025 10.8558 49.6512C11.1755 49.5326 11.5012 49.4411 11.8308 49.3774C12.2695 49.3774 12.3427 49.9858 12.5255 51.1568C12.8121 52.6862 12.8822 54.2663 12.7327 55.8258C12.5986 58.6697 12.5133 61.6049 12.5377 64.6314C12.562 67.6578 12.6961 70.7147 12.9033 73.878C13.3177 80.1287 13.927 86.5466 14.8289 92.8428C15.2067 95.5195 15.6577 98.3178 16.1573 100.751C16.1573 100.751 16.1573 100.903 16.1573 100.888L16.9252 100.599H17.0227L17.2298 100.508L17.8148 100.249L19.0336 99.717C20.618 99.0022 22.2145 98.2874 23.8111 97.6183L23.872 97.7399Z" fill="#FFFD9C"></path><path d="M6.96794 49.2406C6.89852 49.3442 6.84483 49.4628 6.8095 49.5904C6.8095 49.7577 6.907 49.7881 6.98013 49.8186C7.08129 49.8345 7.18365 49.8345 7.28481 49.8186H7.52857H7.66263L8.24763 49.6513C11.4286 48.6627 14.6948 47.4309 17.9976 46.199C20.3742 45.3017 22.7142 44.2219 25.1151 43.355C33.6159 40.1792 42.2812 37.7351 51.0501 36.0398C54.9783 35.2914 58.9376 34.8242 62.9086 34.6406C65.4899 34.5052 68.0759 34.6579 70.6354 35.0969C71.9341 35.3154 73.2147 35.6767 74.4623 36.1767C75.7294 36.7058 76.9536 37.383 78.1186 38.1994C79.5445 39.2792 78.8498 40.2069 77.2776 40.724C76.3234 41.0486 75.3491 41.2724 74.3648 41.3931C73.154 41.6387 71.9194 41.6387 70.7086 41.3931C65.9691 40.5733 61.1655 40.5069 56.4126 41.1954C51.5376 41.8038 46.6626 42.8684 41.7876 44.0394C35.7628 45.7447 29.8284 47.9135 24.0183 50.5334L14.2683 54.4875C12.6108 55.1263 10.9411 55.7498 9.22263 56.3125C7.96782 56.7535 6.68876 57.0788 5.39575 57.2859C4.28135 57.4856 3.14538 57.3765 2.06857 56.9665C1.38927 56.7717 0.783264 56.2944 0.350128 55.6129C0.0827809 54.9065 -0.0347215 54.1262 0.00887752 53.3469C0.145624 51.5272 0.559266 49.7567 1.22763 48.1304L1.75169 46.7921L2.26357 45.5754L3.05575 43.7961C3.592 42.625 4.15263 41.4692 4.71325 40.3286C8.17396 33.5078 11.9081 26.9092 15.9014 20.5577C18.8595 15.5331 22.0414 10.7197 25.432 6.14022C26.212 5.13647 26.9676 4.13272 27.8695 3.20502C31.1601 -0.216859 32.9151 -0.581858 34.3167 0.634808C34.6577 0.879013 34.9729 1.17533 35.2551 1.51689C35.4231 1.84283 35.5019 2.22785 35.48 2.61437C35.458 3.0009 35.3364 3.36816 35.1333 3.66127C34.5407 4.73681 33.8311 5.70421 33.0248 6.53564C29.9718 10.161 27.1213 14.0432 24.4936 18.1548C21.7026 22.3827 18.9604 26.8236 16.3158 31.3861C14.3658 34.7775 12.4645 38.2298 10.6608 41.7429C9.77106 43.4919 8.89357 45.2561 8.08919 47.0354L7.492 48.3738L7.22388 48.9821C7.19259 49.0302 7.16408 49.081 7.13857 49.1342L6.96794 49.2406Z" fill="#FFFD9C"></path><path d="M60.9099 30.3669L54.8161 25.1201C54.0727 24.4813 53.2439 23.9794 52.5005 23.3103C49.9153 20.8367 47.4454 18.1811 45.1027 15.3563C44.0911 14.0636 42.9211 12.999 41.8608 11.8128C40.3931 10.3923 39.1946 8.58514 38.3508 6.52028C38.0827 5.85111 38.7408 5.24278 39.728 4.89299C40.7743 4.43194 41.9203 4.46985 42.9455 4.99945C43.3111 5.30361 43.6889 5.60778 44.0789 5.86632L44.6517 6.29216L45.1392 6.82445C45.773 7.55445 46.358 8.34528 47.0771 8.98403C48.2958 10.5049 49.6364 11.904 50.8796 13.5465C51.6535 14.4928 52.5123 15.3246 53.4389 16.0255L56.2177 18.2611C58.2164 19.9644 60.2639 21.6678 62.3114 23.3711L66.1627 26.504C68.1249 28.0249 69.9652 29.9411 71.8908 31.5684C73.3777 32.8459 75.0352 33.804 76.4124 35.2488C76.7375 35.5318 77.0469 35.8417 77.3386 36.1765C78.3989 37.4844 78.5574 38.1688 78.1308 39.3399C78.0333 39.5984 77.9602 39.8722 77.8505 40.1155C77.4727 40.8911 76.6318 41.0128 75.5714 40.5413C74.8036 40.1915 74.0846 39.7809 73.3046 39.4463L72.1589 38.914C71.7933 38.7315 71.4642 38.4578 71.1108 38.2297C69.7092 37.3172 68.3564 36.2982 66.9549 35.3097C64.883 33.8953 62.9208 32.1463 60.8611 30.519L60.9099 30.3669Z" fill="#FFFD9C"></path><path d="M5.22508 13.5925C5.22508 13.5013 5.28602 13.4405 5.22508 13.334L5.2982 13.0907C5.68763 12.169 6.19384 11.3319 6.79727 10.6117C7.23642 10.0932 7.7185 9.63432 8.23539 9.24295C9.14127 8.55123 10.1008 7.97546 11.0995 7.52441C11.8167 7.13818 12.5587 6.82785 13.3176 6.59671C13.6832 6.50546 13.9757 6.44462 14.4023 6.38379C14.9093 6.27662 15.424 6.23585 15.9379 6.26212C16.8835 6.26807 17.8102 6.59394 18.6191 7.20504C19.007 7.49227 19.3235 7.90819 19.5332 8.4065C19.6181 8.64608 19.6835 8.89575 19.7282 9.1517C19.7865 9.41507 19.8232 9.68513 19.8379 9.95775C19.8746 10.55 19.8746 11.1449 19.8379 11.7371C19.8379 12.3302 19.8379 12.9538 19.8379 13.258C19.8213 14.5933 19.8661 15.9288 19.972 17.2577C20.1742 18.9617 20.1329 20.6969 19.8501 22.383C19.716 22.9152 18.8995 22.8696 18.022 22.4742C17.1445 22.0788 16.1573 21.3032 15.9501 20.345C15.5602 18.6954 15.3591 16.9853 15.3529 15.2655V13.988V13.3492C15.3529 13.1971 15.3529 13.2275 15.3529 13.1971H15.426C15.6197 13.007 15.7534 12.7377 15.8038 12.4367C15.8038 11.9957 15.5235 11.9348 15.2676 11.9348H15.0726H14.707L13.6345 12.1782C12.8056 12.3489 11.9901 12.6084 11.197 12.9538C10.824 13.1173 10.4614 13.3156 10.1123 13.5469C9.82997 13.7307 9.56086 13.9444 9.30789 14.1857C9.18745 14.3106 9.08449 14.4596 9.0032 14.6267C8.91088 14.8517 8.87278 15.1053 8.89352 15.3567C8.92773 15.8009 8.98061 16.2426 9.05195 16.6798C9.39835 18.7546 9.88348 20.7895 10.5023 22.7632C11.0513 24.2269 11.7299 25.6093 12.5254 26.8846C12.6716 27.1736 12.8788 27.4017 13.0251 27.6907C13.2527 28.0465 13.3579 28.5005 13.3176 28.953C13.2039 29.4158 13.0034 29.8382 12.7326 30.1848C12.5741 30.4282 12.4401 30.6715 12.2816 30.8996C12.1656 31.0781 12.0188 31.2214 11.852 31.3189C11.6852 31.4164 11.503 31.4654 11.3188 31.4623C10.8735 31.4506 10.4443 31.2524 10.1001 30.8996C8.16927 28.5302 6.73387 25.6059 5.91977 22.383C5.566 21.1878 5.29685 19.9563 5.11539 18.7025C5.01789 18.079 4.93258 17.3946 4.87164 16.6798V16.0867C4.84699 15.8138 4.84699 15.5383 4.87164 15.2655C4.87553 14.7023 4.92866 14.1413 5.03008 13.5925H5.22508Z" fill="#FFFD9C"></path><path d="M24.3717 73.0111C25.1395 74.0301 36.7664 69.787 37.4245 69.3763C38.0827 68.9657 36.5592 58.6088 35.4014 55.5976C34.7677 53.9399 22.6167 56.7686 22.6167 56.7686C22.1902 56.8599 22.6411 70.7451 24.3717 73.0111Z" fill="#FFFD9C"></path><path d="M60.788 65.3159C60.3127 66.5782 48.1983 67.0649 47.4792 66.9432C46.7602 66.8215 45.6024 56.3734 45.9558 53.0276C46.1386 51.2026 58.3992 49.1647 58.3992 49.1647C58.8502 49.119 61.8605 62.4872 60.788 65.3159Z" fill="#FFFD9C"></path><path d="M80.1539 89.6645C84.3128 88.2254 88.532 87.0729 92.7923 86.2122C93.2676 86.0905 93.7307 85.9688 94.0111 85.8624H94.1695L94.2548 86.0905L94.3767 86.4555C94.5229 86.9118 94.7911 87.4593 94.9129 87.7634C94.9865 87.9444 95.0721 88.1174 95.1689 88.2805C95.2335 88.4193 95.3069 88.5516 95.3883 88.6759L95.5954 88.9649C95.6486 89.0263 95.7057 89.0823 95.7661 89.1322C95.9854 89.2843 95.8757 89.1322 95.5954 89.3603C95.5305 89.4089 95.4693 89.4649 95.4126 89.5276L93.6211 91.6111V91.5199L93.4504 91.4134L93.1214 91.1701C92.9584 91.0825 92.7915 91.0063 92.6217 90.942C90.909 90.2836 89.1352 89.9053 87.3445 89.8166C84.3414 89.7387 81.3374 89.8961 78.3501 90.288C67.6624 91.388 57.0496 93.4208 46.5895 96.3713C41.9095 97.6488 37.2782 99.2609 32.7567 101.056C29.8682 102.257 26.9432 103.322 24.0426 104.447L19.6795 106.15L17.4126 106.956C16.6936 107.245 15.9257 107.428 15.1945 107.717C13.342 108.31 13.4273 107.884 14.5973 106.196C16.4682 103.458 18.7653 101.223 21.3492 99.6259C22.7873 98.7438 24.2376 97.877 25.6879 97.0557L27.8817 95.8238L30.1364 94.8505C33.1589 93.573 36.2301 92.4324 39.2526 91.3526C45.3886 89.1649 51.6342 87.4883 57.9482 86.3338C65.5289 85.0107 73.3167 82.9576 81.2995 82.4405C83.5239 82.2809 85.7538 82.2809 87.9782 82.4405C90.4052 82.5343 92.8043 83.1145 95.0836 84.1591L96.0707 84.7978L96.5583 85.1172C96.7167 85.2541 96.8873 85.4366 97.0579 85.6038L97.5454 86.1209L97.8501 86.4859L97.972 86.6076L98.2158 86.9878L98.3376 87.2007L98.4961 87.5505C98.6151 87.8222 98.7013 88.1143 98.752 88.4174C98.8072 88.8047 98.8072 89.2011 98.752 89.5884C98.7268 89.9791 98.6441 90.3605 98.5082 90.7138C98.3331 91.1899 98.0799 91.6148 97.7648 91.9609C97.5962 92.1398 97.4169 92.3025 97.2286 92.4476C96.8259 92.7399 96.3962 92.9698 95.9489 93.132C95.6198 93.2689 95.3273 93.3601 95.0348 93.4513C94.4498 93.6186 93.9136 93.7707 93.3773 93.8924C91.2445 94.4247 89.2092 94.9114 87.1861 95.4132C82.2002 96.7255 77.3331 98.6617 72.6586 101.192C67.6339 103.934 62.9312 107.516 58.6795 111.838L58.8867 111.58C58.6466 111.287 58.3761 111.037 58.0823 110.834C57.9807 110.743 57.8642 110.681 57.7411 110.652C57.6822 110.624 57.6171 110.624 57.5582 110.652C57.6192 110.592 57.6587 110.505 57.6679 110.409C57.7917 110.046 57.8698 109.661 57.8995 109.268V108.888H58.0336H58.3382C58.8014 108.888 59.3498 108.705 59.8739 108.568C60.9464 108.295 62.0432 107.945 63.1279 107.595C69.0267 105.694 74.7426 103.23 80.8607 101.679C82.2136 101.344 83.542 100.979 84.9801 100.797C86.9863 100.384 89.0434 100.603 90.9642 101.436C91.587 101.767 92.1322 102.29 92.5486 102.957C92.8759 103.501 93.0552 104.162 93.0604 104.842C93.1013 105.37 93.012 105.901 92.8045 106.363C92.4389 106.926 91.8295 106.819 91.2445 107.063C90.8666 107.188 90.4777 107.255 90.0867 107.261L88.1854 107.397C85.7904 107.687 83.4155 108.195 81.0801 108.918C78.6426 109.663 76.1076 110.439 73.5604 111.412L65.8701 113.861C64.5417 114.317 63.2132 114.773 61.7995 115.184C61.0804 115.397 60.3857 115.61 59.5082 115.777C58.9254 115.909 58.3332 115.965 57.7411 115.944C57.5993 115.964 57.4562 115.964 57.3145 115.944C57.1262 115.921 56.9391 115.886 56.7539 115.838C56.4415 115.736 56.1359 115.603 55.8398 115.443C55.5313 115.269 55.2408 115.049 54.9745 114.789C54.6612 114.487 54.386 114.128 54.1579 113.724C53.8394 113.168 53.6041 112.544 53.4632 111.884C53.3345 111.132 53.3345 110.355 53.4632 109.603C53.4867 109.41 53.5276 109.221 53.5851 109.04C53.6764 108.602 53.8073 108.179 53.9751 107.778L54.1336 107.489C54.2311 107.306 54.3529 107.108 54.4626 106.941L54.6698 106.637L54.9501 106.333L56.1689 105.04C63.2714 97.9917 71.3995 92.7242 80.1051 89.5276L80.1539 89.6645Z" fill="#FFFD9C"></path></svg>