<svg xmlns="http://www.w3.org/2000/svg" width="84" height="114" viewBox="0 0 84 114" fill="none"><path d="M9.86718 66.4148C10.6104 73.5768 12.6983 80.4186 15.9609 86.3833C17.1874 88.5351 18.5705 90.541 20.0925 92.3754C22.6229 95.8257 25.6071 98.7112 28.9162 100.907C32.3183 103.152 35.9898 104.693 39.7875 105.47C43.2395 106.165 46.7444 106.359 50.2322 106.048C52.4625 105.88 54.705 105.515 56.9475 105.135C59.19 104.755 61.4934 104.633 63.7969 104.36C65.2228 104.238 65.1619 104.877 64.1259 106.033C62.4868 107.865 60.5846 109.295 58.5197 110.245C53.7467 111.83 48.8335 112.663 43.8947 112.724C41.3624 112.73 38.8371 112.393 36.3628 111.72C35.1265 111.402 33.9058 110.996 32.7066 110.504L30.8784 109.743C30.2812 109.454 29.6597 109.105 29.1112 108.785C23.505 105.744 17.85 101.531 13.8037 95.554C9.32432 89.0747 6.15255 81.3517 4.55343 73.0304L4.34625 72.1027L4.22437 71.1446L3.96843 69.1827C3.76174 67.9171 3.61523 66.6374 3.52968 65.3502C3.33488 62.7928 3.27381 60.2222 3.34687 57.6548C3.57603 49.9169 4.94345 42.2976 7.38093 35.1769L8.08781 33.1542L8.85562 31.1619L9.64781 29.1696L10.0378 28.1202L10.5009 27.1773C11.1347 25.915 11.7197 24.6223 12.4022 23.3904C13.0847 22.1586 13.9378 21.094 14.7178 19.9534C15.3959 18.9475 16.1421 18.0164 16.9481 17.1702C17.5651 16.4715 18.2164 15.8214 18.8981 15.2236C19.4182 14.8994 19.9607 14.6347 20.5191 14.4327C21.2219 14.1057 21.9895 14.0631 22.7128 14.3111C22.98 14.3669 23.2415 14.4587 23.4928 14.5848C23.8219 14.7977 23.7487 15.3452 23.4075 16.1056C22.9223 17.2658 22.338 18.357 21.6647 19.3602C16.78 26.87 13.1723 35.5427 11.0616 44.8494C9.50158 51.8352 9.14848 59.1547 10.0256 66.3236L9.86718 66.4148Z" fill="white"></path><path d="M36.6797 41.0927C36.3548 46.7495 37.3993 52.3977 39.6778 57.3048C40.5693 59.0526 41.6204 60.6653 42.81 62.1106C44.8727 64.8479 47.2812 67.1445 49.9397 68.9088C52.7078 70.7313 55.6902 71.9941 58.7756 72.65C61.5634 73.2049 64.4021 73.2356 67.1972 72.7413C70.8534 72.1938 74.2903 71.0988 77.91 70.1102C79.0556 69.8213 79.275 70.8706 78.69 72.4523C77.8152 74.6641 76.3184 76.3965 74.4853 77.319C73.5103 77.7904 72.5231 78.2315 71.5116 78.5813C70.5096 78.9794 69.4877 79.2943 68.4525 79.5242C67.4165 79.7371 66.3562 79.8283 65.3081 79.95C64.26 80.0717 63.1875 80.0717 62.1272 79.95C57.8463 79.8381 53.6272 78.6537 49.7203 76.4673C47.3439 75.1451 45.0432 73.6207 42.8344 71.9048C40.5963 70.1101 38.5873 67.9056 36.8747 65.3652C33.174 59.7585 30.9784 52.8426 30.5981 45.5944C30.3776 41.2817 30.6651 36.952 31.4512 32.7433C32.0058 29.5303 32.9338 26.4357 34.2056 23.5575C35.5032 20.7249 37.0616 18.0912 38.8491 15.71C39.495 14.7367 40.2384 13.9154 40.9331 12.9877C41.6278 12.06 42.3712 11.254 43.1512 10.4936C44.6717 8.85146 46.3028 7.37587 48.0262 6.08314C48.8013 5.51711 49.6174 5.04355 50.4637 4.66876C51.1192 4.35763 51.7965 4.12342 52.4869 3.96918C52.98 3.88202 53.4806 3.88202 53.9737 3.96918C54.6977 4.12347 55.3565 4.58558 55.8384 5.27709C56.0626 5.54631 56.2704 5.83608 56.46 6.14397C56.9597 7.13251 55.9359 8.53168 54.2662 10.3871C53.5959 10.889 52.9622 11.5277 52.3284 12.0904C52.0116 12.3794 51.7069 12.6988 51.4022 13.0029C51.0975 13.3071 50.7441 13.4896 50.4394 13.7786C49.1597 14.8279 47.9166 15.9229 46.7831 17.1092C44.4128 19.3806 42.3546 22.1184 40.6894 25.2152C39.5037 27.4899 38.6036 29.9773 38.0203 32.5913C37.4135 35.3673 37.0538 38.2183 36.9478 41.0927H36.6797Z" fill="white"></path><path d="M8.44126 53.0923C8.0421 55.717 7.80577 58.3762 7.73438 61.0462C7.681 63.7001 7.7992 66.3549 8.08782 68.985C8.7699 74.2577 10.2109 79.3328 12.3413 83.9652C12.6848 84.8323 13.0928 85.6572 13.56 86.429L14.9738 88.7862C16.0584 90.2006 17.0334 91.8279 18.2156 93.0598C20.2313 95.5139 22.4684 97.6676 24.8822 99.4777C27.3647 101.279 29.9911 102.752 32.7188 103.873C38.3103 106.156 44.208 107.04 50.0738 106.474C51.3898 106.385 52.7003 106.197 53.9981 105.911C55.2975 105.677 56.5838 105.342 57.8494 104.907C60.3738 104.067 62.8238 102.91 65.1619 101.455C71.1703 97.7592 76.3256 92.0713 81.7247 86.6419C83.4188 84.9385 83.8453 86.0031 83.1872 88.4669C82.0258 92.2921 80.14 95.7098 77.6906 98.4283C74.8912 101.597 71.8361 104.395 68.5744 106.778C65.2225 109.199 61.6053 110.998 57.8372 112.116L56.4234 112.526L55.0097 112.846C54.0713 113.028 53.1328 113.272 52.1822 113.424C50.2849 113.705 48.3768 113.857 46.4663 113.88C44.55 113.92 42.6334 113.824 40.7259 113.591C39.7753 113.469 38.8247 113.256 37.8741 113.089L36.4603 112.8L35.0588 112.39C30.4849 111.118 26.0495 109.168 21.8475 106.58C17.5923 103.869 13.7583 100.233 10.5253 95.8429C6.97327 90.9758 4.21247 85.2943 2.39626 79.1137C1.51027 76.0323 0.873354 72.8481 0.495009 69.6085C0.0997312 66.4042 -0.0593721 63.1614 0.0196958 59.9208C0.243954 52.0481 1.61506 44.2921 4.06595 37.0323C7.58526 25.9037 13.6772 16.3324 21.5672 9.53563C24.6547 6.97701 27.9721 4.87914 31.4513 3.285C34.9369 1.80013 38.5478 0.820361 42.2128 0.365C43.8338 0.121666 45.4059 0.0608333 47.0878 0C53.1084 0.258542 54.8878 1.52083 55.7653 4.38C55.9999 4.99907 56.1837 5.64619 56.3138 6.31146C56.4356 7.36083 55.8628 8.19729 54.7781 8.77521C54.1455 9.09606 53.4816 9.31085 52.8038 9.41396C52.0238 9.55083 51.1463 9.61167 50.1591 9.71812C44.4649 9.83953 38.8217 11.0816 33.4378 13.3985C30.8825 14.6055 28.4323 16.1342 26.1253 17.961C23.8201 19.8428 21.7081 22.0696 19.8366 24.5919C16.942 28.5178 14.5347 32.9622 12.6947 37.7775C11.7269 40.2303 10.912 42.7726 10.2572 45.3817C9.57049 47.9425 9.04483 50.5663 8.68501 53.2292L8.44126 53.0923Z" fill="white"></path></svg>