<svg xmlns="http://www.w3.org/2000/svg" width="109" height="101" viewBox="0 0 109 101" fill="none"><path d="M89.8805 39.9302C86.0259 60.5831 45.9818 87.152 35.4814 90.6499C35.3241 90.7164 35.1565 90.7346 34.9925 90.7028C34.8285 90.6711 34.673 90.5903 34.5389 90.4674L30.2734 86.057C30.2734 86.057 62.7655 66.1037 68.4689 59.1991C74.1722 52.2945 89.5422 38.3789 89.5422 38.3789L89.8805 39.9302Z" fill="#F097D7"></path><path d="M29.0652 91.6995C26.3296 89.4475 23.8008 86.8207 21.5252 83.8672C19.2811 80.8438 17.3486 77.4765 15.7735 73.8449C12.6457 66.5187 11.1588 58.2602 11.4718 49.9526C11.5572 46.9618 11.8442 43.9855 12.3298 41.0557C12.7906 38.1303 13.487 35.2716 14.4081 32.5239C17.6449 22.8637 23.0173 14.5764 29.8868 8.64678C33.3057 5.7291 37.0529 3.47344 41.0035 1.95512C42.0064 1.65095 42.9852 1.24032 44.0002 1.02741L47.0573 0.343033L50.1264 0.0540741C51.1535 -0.0675926 52.1806 0.0540741 53.1956 0.0540741H54.561L55.9143 0.236574C56.8085 0.373449 57.7148 0.434282 58.6089 0.616782C60.3871 0.993735 62.1463 1.50155 63.8773 2.13762C65.5971 2.75588 67.2875 3.49723 68.9402 4.35803C69.7739 4.78387 70.5593 5.31616 71.3568 5.78762C72.1875 6.22878 72.9947 6.73678 73.7735 7.30845C77.8464 10.1185 81.4685 13.8574 84.4552 18.3345C87.4374 22.8967 89.435 28.3494 90.2552 34.1664C90.2552 36.0218 90.1343 36.8278 89.8202 36.8582C89.506 36.8887 88.9743 36.1434 88.056 35.0028L80.806 24.4939C75.5662 16.7769 68.4609 11.4347 60.5785 9.28553C56.6684 8.10893 52.6393 7.68335 48.6281 8.02324C46.6339 8.23506 44.6574 8.65731 42.7193 9.28553C40.7549 9.9867 38.8361 10.8765 36.9798 11.947C32.4721 14.7288 28.526 18.7645 25.4402 23.7487C22.2664 28.8416 19.9292 34.6782 18.5648 40.9189C16.9864 47.7088 16.8324 54.8976 18.1177 61.7847C19.4685 68.7046 22.312 75.0202 26.3343 80.0347C28.8395 83.1821 31.6875 85.8654 34.7927 88.0039C37.8963 90.1817 41.2456 91.751 44.7252 92.6576C49.9334 94.1063 55.345 93.9183 60.4818 92.1101C65.6412 90.0792 70.4528 86.85 74.6677 82.5897C77.7944 79.2162 80.4493 75.2064 82.5218 70.7272C84.5137 66.2718 85.983 61.4772 86.8839 56.4922L87.186 54.8649C87.2706 54.3174 87.3189 53.7699 87.3914 53.2224C87.5002 52.1274 87.7056 51.0324 87.766 49.9222C88.2131 45.7703 88.0923 43.0937 88.3581 41.1774C88.4687 40.3467 88.6303 39.5281 88.8414 38.7289C89.0952 38.0293 89.3127 37.4818 89.5302 36.9343C89.7477 36.3868 89.8806 35.7937 90.0377 35.4134C90.3277 34.8507 90.7868 35.3374 91.7414 36.9343C92.5961 38.5289 93.1461 40.3506 93.3485 42.2572C93.4695 43.1012 93.5422 43.9551 93.566 44.8122C93.7944 50.0956 93.387 55.3922 92.3577 60.5224C91.2458 65.7847 89.5236 70.8119 87.2464 75.4418C86.0431 77.7628 84.7106 79.9735 83.2589 82.0574C82.5458 83.1221 81.7875 84.1375 80.9873 85.0991L78.486 87.867L77.8698 88.5666L77.1931 89.1749L75.8277 90.4372C74.9093 91.2128 74.0393 92.1101 73.0727 92.7641L70.1485 94.6955C69.6652 95.0149 69.1818 95.3647 68.6864 95.6537L67.1518 96.4293L64.8923 97.5851C64.1309 97.9978 63.3476 98.3434 62.5481 98.6193C61.7264 98.9082 60.9048 99.2276 60.1314 99.471L57.6302 100.034C54.3065 100.631 50.9352 100.682 47.601 100.186C41.0215 99.0998 34.7021 96.2584 29.0652 91.8516V91.6995Z" fill="#F097D7"></path><path d="M79.211 54.1042C72.4368 60.7547 65.1787 66.5851 57.5335 71.5178C54.7664 73.2971 52.0235 75.2286 49.2564 76.7494C44.3264 79.639 39.3199 82.3359 34.2368 84.8402C29.1118 87.3304 23.8649 89.4031 18.5285 91.0452C16.1419 91.8294 13.7211 92.4388 11.2785 92.8702C10.0089 93.0798 8.72734 93.151 7.44805 93.0832C6.0602 93.0537 4.69145 92.6709 3.4243 91.9577C2.49257 91.4 1.69282 90.5454 1.1043 89.4788C0.538435 88.3963 0.182488 87.1617 0.0651346 85.8744C-0.0518634 84.6727 -0.011041 83.455 0.185968 82.27C0.391506 81.1687 0.699756 80.1018 1.1043 79.0915C2.63533 75.248 5.13932 72.1553 8.22138 70.3011C9.21222 69.7384 9.8043 69.9057 9.88888 70.3011C9.97347 70.6965 9.69555 71.533 9.2968 72.5519C8.89805 73.5709 8.34222 74.8027 7.72597 76.2627C7.4118 76.9623 7.1218 77.7836 6.77138 78.4984L5.62347 80.8405C5.01121 81.9431 4.62138 83.2167 4.48763 84.5513C4.45916 85.0642 4.50418 85.5793 4.62055 86.0721C4.69139 86.3936 4.84424 86.6768 5.05555 86.8782C5.90163 87.5518 6.8819 87.9103 7.88305 87.9123C9.25993 87.9888 10.6395 87.9023 12.0035 87.6538C13.4414 87.4257 14.9035 87.0759 16.3655 86.6652C17.8276 86.2546 19.2776 85.6159 20.7276 85.0379C23.6276 83.8517 26.5276 82.5438 29.4276 81.175C36.5484 77.7911 43.4973 73.86 50.2351 69.4038C54.0051 67.0465 57.7026 64.674 61.2672 61.9821C64.8318 59.2902 68.3239 56.4007 71.6831 53.2982C75.8306 49.4757 79.8042 45.363 83.5851 40.9794C86.4368 37.6032 89.216 34.1661 91.8985 30.5465C93.2155 28.7519 94.4964 26.8813 95.8376 25.0259C97.1789 23.1705 98.4355 21.3759 99.5714 19.49C100.449 18.0728 101.207 16.5436 101.831 14.9275C101.976 14.5321 102.133 14.1519 102.242 13.7565L102.423 13.1786C102.465 13.039 102.501 12.8969 102.532 12.7527C102.642 12.2988 102.703 11.8281 102.713 11.3536C102.71 11.1293 102.663 10.9093 102.577 10.713C102.491 10.5168 102.367 10.3503 102.218 10.2282C101.914 10.0061 101.566 9.89544 101.215 9.90879C100.808 9.9344 100.404 10.0005 100.006 10.1065C99.3706 10.2483 98.7501 10.4831 98.1576 10.8061C97.0625 11.3855 96.0278 12.1312 95.0764 13.0265C93.6634 13.9971 92.1976 14.8407 90.6901 15.5511C90.1995 15.6964 89.6955 15.7578 89.1918 15.7336C88.7206 15.6297 88.2562 15.4823 87.8022 15.2925C87.4035 15.1252 86.9564 15.0644 86.6785 14.8971C86.1951 14.6234 86.2435 13.9238 86.5697 12.5094C87.1308 10.6467 88.1405 9.05148 89.4576 7.94691C91.9356 5.57268 94.841 4.00544 97.916 3.38441C98.81 3.08851 99.7244 2.9001 100.647 2.8217C101.929 2.69462 103.219 2.8911 104.441 3.39962C105.614 3.90156 106.644 4.82722 107.401 6.06108C108.141 7.3258 108.539 8.85554 108.537 10.4259C108.465 12.0755 108.192 13.7014 107.728 15.2469C107.651 15.5633 107.558 15.8731 107.45 16.1746L107.196 16.9198C107.015 17.4217 106.821 17.878 106.628 18.3646C105.871 20.1799 104.985 21.9054 103.982 23.5202C102.097 26.5619 100.043 29.269 98.2422 31.8088C92.455 39.9484 86.1199 47.4435 79.3076 54.2107L79.211 54.1042Z" fill="#F097D7"></path><path d="M40.3148 41.6641C39.8094 42.057 39.2753 42.388 38.7198 42.6526C38.1811 42.8454 37.6318 42.9877 37.0764 43.0784C36.0584 43.1912 35.0325 43.0832 34.0435 42.7591L32.9923 42.4245C32.6343 42.2668 32.2868 42.0735 31.9531 41.8466C30.7537 40.9799 29.8215 39.6297 29.3068 38.0141C29.0655 37.2331 28.9385 36.4035 28.9323 35.5655C28.9323 35.1549 28.9323 34.7595 29.041 34.3793L29.2827 33.2539C29.6249 32.0152 30.1635 30.877 30.8656 29.908C31.682 28.6512 32.8579 27.8483 34.1402 27.6724C34.5268 27.6724 34.5389 28.0526 34.3818 28.6305C34.2081 29.2794 33.9282 29.8752 33.5602 30.3795C33.2141 30.7351 32.9232 31.1682 32.7023 31.657C32.4925 32.1052 32.3415 32.5931 32.2552 33.1018C32.1685 33.5548 32.1279 34.0198 32.1343 34.4857C32.1585 34.9212 32.1585 35.3582 32.1343 35.7937C32.1343 36.9039 32.9802 37.6339 33.9106 38.0749C34.984 38.6506 36.188 38.7101 37.2939 38.2422C37.8981 37.9053 38.4017 37.3354 38.7318 36.6149C39.0093 36.0218 39.1839 35.3615 39.2443 34.6774C39.3047 33.9933 39.2495 33.3009 39.0823 32.6455C38.7866 31.6355 38.2717 30.7503 37.596 30.0905C37.4338 29.9764 37.2801 29.8441 37.1368 29.6951C36.9112 29.4421 36.7505 29.1103 36.6752 28.742C36.5999 28.3736 36.6134 27.9854 36.7139 27.6268C36.7139 27.4139 36.7743 27.1857 36.8106 26.9728C36.9556 26.2884 37.4993 25.9387 38.4056 26.0299C39.8161 26.3346 41.098 27.2489 42.0306 28.6153C42.538 29.3419 42.9463 30.1693 43.2389 31.0639C43.3356 31.5353 43.4202 32.022 43.4806 32.5087C43.541 32.9953 43.4806 33.5124 43.541 34.0295C43.526 35.5403 43.2323 37.0261 42.6828 38.3695C42.1334 39.713 41.3434 40.8773 40.3752 41.7705L40.3148 41.6641Z" fill="#F097D7"></path></svg>