<svg xmlns="http://www.w3.org/2000/svg" width="103" height="79" viewBox="0 0 103 79" fill="none"><path d="M30.1156 5.264C34.3484 2.73926 38.8752 1.10093 43.5203 0.412536C44.7182 0.19962 45.8083 0.138787 46.9583 0.0627453C48.0954 -0.0209151 49.2353 -0.0209151 50.3724 0.0627453L53.7505 0.19962C54.8766 0.336495 56.0026 0.549412 57.1167 0.716704C57.9313 0.868787 58.7578 0.944829 59.5125 1.11212L61.9083 1.72045L64.3042 2.344C65.1068 2.60254 65.8854 2.96754 66.7 3.30212C72.2641 5.58387 77.4324 9.19759 81.9255 13.948C86.3441 18.65 90.1452 24.2149 93.1859 30.4338L95.0427 34.6465C95.3422 35.3461 95.6896 36.0152 95.9531 36.7452L96.7438 38.92C97.2589 40.4409 97.8339 41.8096 98.313 43.2848L99.7146 47.8473C100.231 49.7658 100.659 51.7209 100.996 53.7025C101.428 55.658 101.748 57.6503 101.955 59.6642C102.146 61.6717 102.386 63.664 102.47 65.7475V68.7892C102.47 69.8082 102.29 70.8271 102.206 71.8309C101.895 74.3555 101.14 74.0057 99.8104 72.0438C98.9416 70.8459 98.1968 69.512 97.5943 68.0744C96.8773 66.2915 96.3034 64.4217 95.8813 62.493C95.5741 60.6474 95.1739 58.8288 94.6833 57.0484C94.2042 55.2842 93.8448 53.4744 93.2938 51.7559C92.7427 50.0373 92.3234 48.2884 91.8323 46.5394L90.1073 41.4902C87.6371 34.8227 84.3229 28.7141 80.2964 23.4075C77.8216 20.1345 74.9552 17.3783 71.8031 15.2407C71.0125 14.6932 70.162 14.2825 69.3354 13.7959C68.5199 13.299 67.6842 12.8573 66.8318 12.4727L64.2203 11.3473L62.9385 10.7998L61.6089 10.4196L58.6859 9.53754C57.7156 9.279 56.7094 9.18775 55.7151 8.99004C53.7311 8.62859 51.7298 8.44058 49.7255 8.42733C40.6962 8.03167 31.8713 11.8945 24.9526 19.2709C19.0625 25.57 14.3523 33.4566 11.1646 42.3571C8.75174 49.2047 7.05623 56.4242 6.12135 63.8313C5.91771 65.4434 5.64219 67.0098 5.4026 68.6219C4.44427 74.5988 4.12083 76.4846 2.74323 77.7469C2.46771 78.0359 2.21615 78.4465 2.00052 78.629C1.4375 79.2677 0.0838542 76.6063 0 71.694C0 69.8842 0 68.0592 0 66.2342C0 65.3065 2.05279e-07 64.394 0.0838544 63.4663C0.167709 62.5386 0.275521 61.6413 0.371354 60.7288C0.837057 57.0595 1.48929 53.4324 2.32396 49.87C4.04771 42.4992 6.56731 35.4669 9.81094 28.9738C14.6913 18.8108 21.6892 10.5581 30.0318 5.12712L30.1156 5.264Z" fill="#F097D7"></path><path d="M36.1292 22.8598C39.3466 21.1469 42.7452 20.0451 46.2156 19.59C47.0662 19.4836 47.9287 19.438 48.7792 19.3619C49.6297 19.2859 50.4802 19.3619 51.3307 19.3619C53.0267 19.3721 54.72 19.5348 56.3979 19.8486C58.8815 20.2417 61.3263 20.9603 63.6932 21.993C67.8433 23.8724 71.6761 26.7311 74.9896 30.4184C78.1629 34.1372 80.8482 38.4755 82.9438 43.2694L84.2854 46.3263C84.7167 47.3909 85.0521 48.5011 85.4833 49.5809C86.2452 51.7397 86.9169 53.948 87.4958 56.1965C87.8672 57.6413 88.0828 59.1317 88.3703 60.5917L88.7776 62.7969L89.0172 65.0325C89.4246 67.996 89.4246 71.0267 89.0172 73.9903C88.7177 75.8609 88.0469 75.6175 86.8969 74.188C86.1614 73.3465 85.5169 72.3851 84.9802 71.3288C84.6921 70.7042 84.4321 70.0594 84.2016 69.3973C83.9333 68.7011 83.7206 67.9725 83.5667 67.2225C83.1115 64.485 82.3688 61.8996 81.7219 59.299C81.2906 58.0519 81.0151 56.7592 80.6797 55.4665C80.535 54.8186 80.3466 54.1876 80.1167 53.5807L79.5177 51.7253C77.8755 46.7782 75.6366 42.1861 72.8813 38.1138C69.2793 33.2687 64.6411 29.8646 59.5365 28.3196L57.4281 27.7113C57.0807 27.62 56.7214 27.4832 56.362 27.4223L55.2719 27.255L53.0917 26.9053H50.8755C47.9362 26.7772 44.998 27.1974 42.1547 28.1523C38.6358 29.3156 35.3282 31.3351 32.4156 34.0988C27.9109 38.409 24.2841 44.0252 21.838 50.4782C19.9943 55.4266 18.7234 60.6873 18.0646 66.0971C17.9328 67.2834 17.7292 68.424 17.5375 69.6102C16.8068 73.9902 16.5073 75.3742 15.2974 76.3323C15.0458 76.5605 14.8302 76.8494 14.6505 76.9863C14.1474 77.4578 12.9495 75.4655 12.8057 71.8155C12.7339 70.4619 12.6979 69.0932 12.6859 67.7092C12.6539 66.3242 12.7302 64.9385 12.9136 63.5725C13.8961 55.0452 16.3906 46.9122 20.2089 39.7867C24.1204 32.3099 29.6134 26.3851 36.0573 22.6925L36.1292 22.8598Z" fill="#F097D7"></path><path d="M42.1428 43.6345C46.1715 41.4552 50.6349 40.9237 54.9126 42.1137C55.6672 42.3722 56.4219 42.5699 57.1766 42.798C57.9313 43.0262 58.6381 43.4064 59.3448 43.7714C61.7855 45.2097 64.0108 47.1754 65.9214 49.581C67.7876 51.931 69.3663 54.6222 70.6053 57.5653L71.4079 59.4968L72.0428 61.5347C72.5579 62.8274 72.8813 64.2114 73.2407 65.5345C73.4683 66.4166 73.5761 67.3291 73.7558 68.2112L73.9834 69.5495L74.1032 70.9182C74.353 72.7351 74.2586 74.6015 73.8277 76.3628C73.5042 77.4882 72.9292 77.2905 71.9589 76.3628C71.3724 75.8844 70.8369 75.3119 70.3657 74.6595C69.9381 73.9638 69.6134 73.1754 69.4073 72.3326C69.0678 70.8324 68.668 69.3553 68.2094 67.907C67.9744 67.2038 67.7743 66.4825 67.6105 65.7474C67.4409 65.0296 67.2409 64.3239 67.0115 63.6335C66.0771 60.799 64.87 58.1223 63.4178 55.6643C61.4825 52.7342 58.9383 50.5527 56.0745 49.368C52.9831 47.861 49.6052 47.5748 46.3834 48.5468C44.3803 49.2237 42.5058 50.4084 40.873 52.0295C38.2525 54.5945 36.1298 57.8878 34.6678 61.6564C33.594 64.5466 32.8595 67.6209 32.4876 70.7814C32.4075 71.4597 32.2915 72.1304 32.1402 72.7889C31.9874 73.7045 31.7375 74.5895 31.3975 75.4199C31.2786 75.6803 31.1245 75.912 30.9422 76.1043C30.7297 76.29 30.5053 76.4528 30.2714 76.591C30.0558 76.7126 29.8641 76.8951 29.6964 76.9712C29.5287 77.0472 29.1573 76.9712 28.786 76.3476C28.5657 76.0451 28.4055 75.6801 28.3188 75.283C28.1944 74.7891 28.114 74.2789 28.0792 73.7622C27.9832 72.9204 27.9232 72.0725 27.8995 71.2224V69.9449C27.9111 69.5214 27.9472 69.0995 28.0073 68.6826C28.5807 63.4949 30.0982 58.5482 32.4396 54.2347C34.8058 49.5934 38.1173 45.8516 42.023 43.4064L42.1428 43.6345Z" fill="#F097D7"></path></svg>