<svg xmlns="http://www.w3.org/2000/svg" width="104" height="112" viewBox="0 0 104 112" fill="none"><path d="M51.3593 85.03C51.6614 83.3115 51.9876 81.5473 52.3984 79.7223C52.8306 77.7274 53.447 75.8031 54.2351 73.9888C54.7208 72.8712 55.3311 71.8469 56.0476 70.9471C56.4582 70.4485 56.9122 70.0097 57.4009 69.6392C57.8264 69.3042 58.2753 69.0191 58.7422 68.7875C60.3241 67.9563 61.9999 67.443 63.7084 67.2667C65.8906 67.0134 68.0888 67.0849 70.2576 67.4796C72.058 67.8142 73.7739 68.2096 75.4172 68.4682C76.2509 68.6202 77.0364 68.7115 77.8339 68.7571C78.8126 68.7571 79.8034 68.894 80.6614 69.0157C82.4255 69.2438 84.1051 69.4719 85.7364 69.5023C87.1955 69.6552 88.663 69.3846 90.0259 68.7115C90.3726 68.5093 90.6418 68.1431 90.7751 67.6925C90.8386 67.4316 90.8672 67.1592 90.8597 66.8865C90.8597 66.5215 90.8597 66.1565 90.763 65.7763C90.4171 64.1872 89.7463 62.74 88.8176 61.5788C87.4963 59.8973 86.0565 58.3702 84.5159 57.0163C82.9814 55.4954 81.3864 53.9746 79.8155 52.4538C78.8489 51.4044 79.1993 51.1459 80.3593 51.2827C82.2396 51.4278 84.0904 51.9409 85.8451 52.8036C86.3284 53.0621 86.8359 53.3359 87.3072 53.6552C87.7784 53.9746 88.2376 54.3852 88.6968 54.7654C89.6493 55.545 90.5504 56.4197 91.3914 57.3813C92.3126 58.4405 93.1246 59.6412 93.808 60.9552C94.5874 62.4723 95.0946 64.185 95.2943 65.974C95.4377 67.0734 95.3924 68.1987 95.1614 69.2742C94.8883 70.5043 94.3681 71.6252 93.6509 72.5288C92.489 73.8591 91.0525 74.75 89.5064 75.099C87.2429 75.6248 84.9302 75.7273 82.643 75.4032C81.4347 75.2663 80.1176 75.1294 79.018 75.099H78.2326H77.1814C76.4926 75.099 75.8159 75.099 75.1514 75.099C72.5051 74.9773 70.0159 74.6884 67.6718 74.5819C65.1222 74.4907 62.6814 74.4602 60.8447 75.5552L60.6634 75.6465H60.5668C60.4975 75.6804 60.4324 75.7265 60.3734 75.7834C60.2181 75.9129 60.076 76.0662 59.9505 76.2396C59.6152 76.6927 59.3344 77.2051 59.1168 77.7604C58.5605 79.1338 58.1192 80.5762 57.7997 82.0644C56.9055 85.9425 56.3376 90.2009 55.383 94.4744C55.0445 96.1544 54.6208 97.8054 54.1143 99.4171C53.5587 101.207 52.7387 102.848 51.6976 104.253C50.5157 105.877 48.8867 106.872 47.1422 107.036C45.4033 107.18 43.6832 106.514 42.3089 105.166C40.5011 103.286 39.1038 100.857 38.2489 98.1092C37.4346 95.5987 36.8822 92.966 36.6055 90.2769C36.6055 89.699 36.4726 89.1211 36.4122 88.5431C36.3518 87.9652 36.3276 87.3873 36.3155 86.8094C36.2966 85.8938 36.3411 84.9778 36.4484 84.0719C36.5665 83.437 36.7665 82.8307 37.0405 82.2773C37.4033 81.477 37.9632 80.8471 38.6355 80.4827C38.8983 80.2966 39.1732 80.1389 39.4572 80.0113C40.2909 79.7527 40.9797 81.5321 41.7651 84.3609C41.9947 86.4444 42.3089 88.4519 42.6351 90.4442C43.0141 92.2647 43.5071 94.0445 44.1093 95.7671C44.49 97.0877 45.1252 98.2688 45.958 99.2042C46.1215 99.3984 46.328 99.5257 46.5501 99.5692C46.567 99.5585 46.5856 99.5529 46.6045 99.5529C46.6234 99.5529 46.642 99.5585 46.6589 99.5692C46.6589 99.5692 46.7555 99.5692 46.8039 99.5692C46.8522 99.5692 46.9972 99.5692 47.0818 99.5692C47.2279 99.5084 47.3663 99.4213 47.4926 99.3106C47.7435 99.0355 47.963 98.7182 48.1451 98.3677C48.7171 97.2605 49.172 96.0642 49.4984 94.809C50.2121 91.6067 50.785 88.3573 51.2143 85.0756L51.3593 85.03Z" fill="#FFFD9C"></path><path d="M62.621 77.4104C62.4881 77.4104 62.2826 77.4104 61.9081 78.0188C61.4524 78.7691 61.086 79.5991 60.8206 80.4825C60.1966 82.9283 59.7398 85.4366 59.4551 87.9802C59.0806 90.7025 58.7301 93.5769 58.2468 96.5425C57.9914 98.0955 57.6399 99.621 57.1956 101.105C56.7139 102.754 56.1027 104.339 55.371 105.835C54.4873 107.598 53.3129 109.103 51.9272 110.245C51.5494 110.565 51.1441 110.831 50.7189 111.036L49.9818 111.431C49.7404 111.532 49.4942 111.613 49.2447 111.675C48.2557 111.971 47.225 111.971 46.236 111.675C45.733 111.574 45.2419 111.395 44.7739 111.142C44.5349 111.038 44.3042 110.906 44.0851 110.747L43.5293 110.321C42.8283 109.789 42.1759 109.162 41.5839 108.451C41.0565 107.77 40.5679 107.043 40.1218 106.276C39.7181 105.542 39.347 104.78 39.0101 103.995C36.9113 98.2763 35.8466 92.0433 35.8926 85.7446C35.8018 81.4412 35.9674 77.1353 36.3881 72.8631C36.4499 72.5074 36.4499 72.1391 36.3881 71.7833C36.3634 71.6702 36.3179 71.566 36.2551 71.4792C36.2551 71.3575 36.1222 71.2967 36.0497 71.2206C35.8124 71.0707 35.5535 70.9828 35.2885 70.9621C34.6629 70.8696 34.0332 70.8289 33.4035 70.8404C30.6548 71.0338 27.9185 71.4452 25.211 72.0723C22.3714 72.6806 19.4593 73.3042 16.4022 73.5931C13.1218 74.0787 9.7968 73.6742 6.65098 72.4069C4.77704 71.5813 3.13794 70.079 1.93848 68.0877C1.63869 67.6135 1.37568 67.1042 1.15306 66.5669C0.886612 66.0083 0.675593 65.4107 0.524725 64.7875C0.421276 64.4741 0.344324 64.1479 0.295142 63.8142C0.196911 63.4695 0.128053 63.1126 0.0897257 62.7496C-0.00418043 62.0053 -0.0244741 61.2493 0.0293088 60.4988C0.10226 59.7648 0.231759 59.0415 0.415976 58.3392C0.600236 57.685 0.847792 57.0618 1.15306 56.4837C1.67597 55.4414 2.30569 54.4903 3.02598 53.655C4.28354 52.2619 5.67126 51.0669 7.15848 50.0963C9.8689 48.3105 12.6993 46.8295 15.6168 45.6706C18.4322 44.4996 21.2356 43.511 24.0026 42.5073L28.0747 40.9865C28.7393 40.7431 29.4039 40.4998 30.0081 40.2413C30.2533 40.1654 30.4891 40.0478 30.7089 39.8915C30.871 39.8198 31.0253 39.7227 31.1681 39.6025C31.4069 39.364 31.5839 39.0413 31.6765 38.6756C31.769 38.3099 31.7729 37.9179 31.6876 37.5494C31.6161 37.1759 31.5021 36.8174 31.3493 36.4848C31.09 35.9138 30.795 35.3697 30.4672 34.8575C28.9032 32.513 27.1632 30.3638 25.2714 28.4396C23.3501 26.356 21.3443 24.3181 19.3989 22.0521C18.3811 20.8768 17.4359 19.6058 16.5714 18.25C16.0492 17.4977 15.5991 16.6708 15.2301 15.7863C15.0065 15.2413 14.8361 14.6642 14.7226 14.0677C14.5925 13.4785 14.5274 12.8695 14.5293 12.2579C14.59 10.6814 15.0857 9.18082 15.931 8.01479C16.6596 6.98757 17.5479 6.15938 18.541 5.58146C20.3099 4.5898 22.2233 4.0719 24.1597 4.06063C27.7303 4.05178 31.2666 4.93576 34.5635 6.66125C36.1849 7.45845 37.7597 8.39863 39.276 9.47479C40.7447 10.6187 42.146 11.8945 43.4689 13.2921C46.1204 16.0399 48.3801 19.3366 50.151 23.0406C51.2264 25.3523 51.3593 26.5537 51.1176 26.6602C50.876 26.7667 50.0181 25.8846 48.701 24.5006C46.8607 22.7001 44.9227 21.0637 42.901 19.6035C41.6926 18.7063 40.3514 17.8394 38.9256 16.9877C38.2126 16.5619 37.4876 16.1208 36.7143 15.7558C35.941 15.3908 35.2281 14.8433 34.4547 14.4175C31.7883 12.8267 28.9219 11.8334 25.9843 11.4823C24.7355 11.3243 23.4746 11.4219 22.2506 11.7713C21.7678 11.9154 21.3039 12.1459 20.8731 12.4556C20.6979 12.5804 20.5285 12.7175 20.3656 12.8663L20.2206 12.9727C20.2206 12.9727 20.1239 12.7598 20.426 13.5202C21.2596 14.9339 22.2342 16.2066 23.326 17.3071C25.6701 19.8925 28.3526 22.4019 31.011 25.2915C32.4486 26.8171 33.7786 28.4962 34.9864 30.3102C35.3285 30.8245 35.6472 31.3627 35.941 31.9223L36.1706 32.3633C36.2629 32.5318 36.3438 32.7099 36.4122 32.8956L36.956 34.2492C37.6195 36.048 37.8706 38.0443 37.681 40.0131C37.5031 41.9329 36.818 43.7218 35.7356 45.0927C35.6108 45.2751 35.4733 45.4431 35.3247 45.5946L34.8535 46.0204L33.8868 46.8569L32.9322 47.4804L32.2676 47.8758C31.3976 48.3929 30.576 48.834 29.7422 49.2446L27.3256 50.2331C24.0751 51.4954 20.9093 52.636 17.8522 53.944C14.896 55.0288 12.0212 56.4385 9.26098 58.1567C8.57654 58.6161 7.92555 59.1504 7.31556 59.7535C6.92864 60.1948 6.56912 60.6728 6.24014 61.1831C6.12956 61.3313 6.04371 61.506 5.98768 61.6966C5.93164 61.8873 5.90655 62.0902 5.91389 62.2933C5.9611 62.4357 5.99751 62.5834 6.02264 62.7344L6.24014 63.2363C6.37822 63.5707 6.54868 63.8823 6.74764 64.164C7.76855 65.4172 9.09832 66.195 10.5176 66.3692C12.3327 66.6736 14.1698 66.7093 15.9914 66.4756C19.8701 66.0194 23.8818 64.9548 28.0747 64.1031C30.2728 63.568 32.5059 63.2931 34.7447 63.2819C36.2574 63.2773 37.7533 63.6819 39.131 64.4681C39.8925 64.9334 40.5678 65.5948 41.1132 66.4096C41.6586 67.2244 42.0618 68.1744 42.2968 69.1979C42.3935 69.7606 42.4781 70.3538 42.5385 70.9317C42.5687 71.4836 42.5687 72.0375 42.5385 72.5894V73.4106V73.9581L42.466 74.9771L42.1397 79.0833L41.9343 83.1744C41.9343 84.5279 41.9343 85.8663 41.9343 87.2198C41.9343 88.5733 42.0551 89.8812 42.1156 91.2196C42.176 92.5579 42.3572 93.8506 42.611 95.0825C42.9291 97.4877 43.6769 99.7705 44.7981 101.759C45.0397 102.23 45.366 102.535 45.6197 102.96C45.901 103.269 46.2044 103.544 46.526 103.782C46.7394 103.981 46.9815 104.125 47.2389 104.207C47.4571 104.276 47.6853 104.276 47.9035 104.207C48.0054 104.19 48.1038 104.149 48.1935 104.086C48.3484 104.026 48.4922 103.928 48.6164 103.797C48.9062 103.557 49.1702 103.27 49.4018 102.945C49.9591 102.132 50.4043 101.206 50.7189 100.208C51.1105 99.0562 51.4258 97.8659 51.6614 96.649C51.9514 95.4019 52.1931 94.0788 52.4226 92.7404L53.7397 84.3758C54.0255 82.5545 54.3844 80.7525 54.8151 78.9769C55.2469 76.9812 55.9237 75.0826 56.821 73.3498C57.0838 72.863 57.3788 72.4051 57.7031 71.981C58.0404 71.515 58.4172 71.0968 58.8268 70.734C59.2495 70.3506 59.7031 70.0244 60.1801 69.7606C60.6598 69.5273 61.1525 69.3392 61.6543 69.1979C62.0891 69.0956 62.5294 69.0345 62.9714 69.0154H63.6722H64.2885L66.3547 69.274C71.8526 69.8975 77.3626 70.4298 82.8001 70.5058C84.8174 70.5586 86.8352 70.4519 88.8418 70.1865C89.5695 70.1576 90.2954 70.0815 91.0168 69.9583C91.5808 69.8704 92.1357 69.7072 92.6722 69.4717C92.9491 69.3754 93.2034 69.1966 93.4137 68.9504C93.6241 68.7042 93.7842 68.3979 93.8806 68.0573C93.9112 67.7001 93.8853 67.3388 93.8044 66.9943C93.7235 66.6497 93.5892 66.3287 93.4093 66.0498C93.1238 65.4838 92.8004 64.9496 92.4426 64.4529C91.9055 63.7586 91.3409 63.0987 90.751 62.4758C87.4774 59.3136 84.0688 56.379 80.5406 53.6854C79.6195 52.8833 78.7359 52.015 77.8943 51.0848C77.4221 50.6084 76.9703 50.1008 76.541 49.564C76.0168 48.9127 75.5434 48.1997 75.1272 47.4348C74.2632 45.9033 73.8801 44.0234 74.0518 42.1575C74.1364 41.7013 74.1968 41.245 74.2935 40.804L74.7164 39.5112C75.061 38.714 75.4656 37.9603 75.9247 37.2604C76.2283 36.7699 76.5638 36.3121 76.9277 35.8917C77.266 35.4506 77.6164 35.1008 77.9547 34.7206L78.8851 33.7321C79.1631 33.4431 79.4289 33.1085 79.7068 32.8044C80.803 31.4982 81.8284 30.101 82.776 28.6221C84.6601 25.649 86.2808 22.4261 87.6093 19.0104C87.9235 18.174 88.2135 17.3375 88.4672 16.501L88.8056 15.2996C88.866 15.0258 88.9506 14.6912 88.9747 14.4935C89.2058 13.6406 89.2058 12.7154 88.9747 11.8625C88.8152 11.4758 88.555 11.1697 88.2376 10.9956C87.9191 10.8333 87.5784 10.7507 87.2347 10.7523C86.9065 10.7798 86.5819 10.8564 86.2681 10.9804C86.111 10.9804 85.966 11.1325 85.821 11.2085L85.5672 11.3302L85.1081 11.6192C82.8968 12.8967 80.6131 14.8281 78.0635 16.501C76.0159 17.9317 73.9061 19.2163 71.7439 20.3488C70.9001 20.7381 70.041 21.0731 69.1702 21.3525C68.3606 21.5806 67.6356 21.7479 66.971 21.8848C65.0574 22.3665 63.0711 22.046 61.316 20.9723C60.7455 20.6536 60.2029 20.2611 59.6968 19.8013C59.1531 19.1169 59.9747 18.3565 61.5939 17.2767C63.2131 16.1969 65.6176 14.4783 68.6747 11.9842C71.0068 10.2808 73.3027 8.30375 75.7556 6.25062C76.9639 5.20125 78.281 4.24312 79.7068 3.20896L80.7943 2.47896L82.0026 1.79458L82.6068 1.44479L83.5614 1.06458C84.2018 0.836458 84.8422 0.501876 85.4947 0.349792L87.4764 0C88.1289 0 88.7814 2.88943e-07 89.4339 0.076042C90.076 0.146454 90.7113 0.294142 91.331 0.517084C91.9366 0.764562 92.5263 1.06961 93.0951 1.42958C94.2323 2.16953 95.2212 3.2247 95.9872 4.51556C96.7533 5.80641 97.2766 7.29929 97.5176 8.88167C97.7664 10.5502 97.7664 12.2623 97.5176 13.9308C97.4192 14.809 97.2738 15.6778 97.0826 16.5315C96.9256 17.4288 96.6718 18.0523 96.4785 18.8888C95.8412 20.9944 95.0652 23.0292 94.1585 24.9721C92.4641 28.596 90.4933 32.0036 88.2739 35.1465C87.139 36.757 85.9285 38.2805 84.6489 39.709C84.2985 40.0892 83.9601 40.4542 83.5976 40.8192L82.6431 41.7621L81.9906 42.4008L81.4831 42.994C81.4307 43.1025 81.3607 43.1958 81.2776 43.2677L81.7006 43.8C82.7525 44.7239 83.8503 45.562 84.9872 46.3094L88.9143 49.2446C91.034 50.8035 93.0833 52.5095 95.0527 54.3546L95.826 55.1302L96.2127 55.5104L96.6718 56.0123L97.6022 57.0465L98.8106 58.5673C99.6201 59.571 100.224 60.6965 100.937 61.761L101.747 63.4644C101.894 63.7295 102.023 64.0093 102.133 64.3008L102.375 65.1525C103.131 67.2952 103.247 69.7091 102.701 71.9506C102.13 74.1924 100.949 76.1091 99.3664 77.3648C97.6111 78.7616 95.6442 79.6835 93.5906 80.0719C93.0468 80.2088 92.5151 80.3456 91.9956 80.4217L91.2102 80.5433L90.5335 80.6346C89.9048 80.7406 89.2696 80.7712 88.6364 80.7258C87.4281 80.7258 86.2197 80.4977 85.0114 80.4369C83.8031 80.376 82.5947 80.3 81.3864 80.2088C79.0422 80.011 76.7222 79.7221 74.4264 79.4179C72.1306 79.1138 69.8347 78.7488 67.5631 78.3685L64.1556 77.7906L63.3581 77.6538C63.2537 77.6684 63.1483 77.6684 63.0439 77.6538H62.7176L62.621 77.4104Z" fill="#FFFD9C"></path><path d="M64.3972 41.5186C65.2188 43.0394 64.9409 45.0621 64.9409 46.7502C64.6319 48.4183 63.9869 49.9581 63.068 51.2215C62.6171 51.8185 62.1003 52.3307 61.5334 52.7423L60.8447 53.1073C58.9159 53.7278 56.8887 53.6699 54.9843 52.94C53.3162 52.397 51.7317 51.5078 50.2959 50.309C48.9748 49.4138 47.8878 48.0563 47.1663 46.4005C46.8992 45.6789 46.7867 44.882 46.8401 44.0888C46.9021 43.3012 47.141 42.5521 47.5288 41.9292C48.1393 40.9712 48.9923 40.3056 49.9455 40.0434C50.4893 39.8609 50.6705 40.6821 50.6826 41.7011C50.6771 42.626 50.6328 43.55 50.5497 44.469C50.5497 44.469 50.5497 44.469 50.5497 44.5907C50.4254 44.5191 50.2959 44.4631 50.163 44.4234C50.2146 44.4389 50.2684 44.4389 50.3201 44.4234C50.4339 44.4084 50.5445 44.3672 50.6463 44.3017L50.7793 44.2257H50.8518L51.033 44.3625C51.2022 44.4386 51.2747 44.6971 51.4801 44.8948C51.9131 45.3977 52.3778 45.8555 52.8697 46.2636L53.6913 46.9327L54.1384 47.2521C54.2472 47.3586 54.223 47.389 54.2834 47.4498C54.4941 47.7408 54.782 47.9247 55.093 47.9669C55.394 48.0129 55.6983 48.0129 55.9993 47.9669H56.1926C56.6584 47.9317 57.0955 47.6718 57.4129 47.2412C57.7302 46.8106 57.9034 46.2425 57.8963 45.6552C57.8949 45.2719 57.8234 44.8941 57.6871 44.5512C57.5509 44.2083 57.3537 43.9096 57.1109 43.6782C56.6849 43.2887 56.1808 43.0567 55.6557 43.0083C55.1305 42.9599 54.605 43.0971 54.1384 43.4044C53.1714 44.2504 52.3118 45.276 51.5888 46.4461C51.4259 46.7379 51.2396 47.008 51.033 47.2521C50.8543 47.4277 50.6596 47.5758 50.453 47.6932C50.2546 47.7544 50.0473 47.7544 49.8488 47.6932C49.3254 47.5331 48.8325 47.2436 48.3988 46.8415C48.1209 46.6134 47.843 46.4157 47.5893 46.1875C47.1714 45.8217 46.868 45.2839 46.7313 44.6667C46.5679 43.9926 46.5679 43.2725 46.7313 42.5984C47.4109 40.6149 48.5206 38.9124 49.9334 37.6861C50.1026 37.5188 50.2959 37.3667 50.4772 37.2146L51.2988 36.5911C51.9272 36.2565 52.5072 35.9067 53.208 35.6177C54.4575 35.2719 55.7352 35.1136 57.0143 35.1463C57.4493 35.1463 57.8963 35.2223 58.3193 35.3288L59.5276 35.7242C60.2735 36.1139 61.0035 36.5504 61.7147 37.0321C62.9759 38.1255 63.9447 39.6736 64.4938 41.4729L64.3972 41.5186Z" fill="#FFFD9C"></path></svg>