<svg xmlns="http://www.w3.org/2000/svg" width="70" height="118" viewBox="0 0 70 118" fill="none"><path d="M27.923 113.751C30.7262 90.5435 30.0802 66.5296 31.0674 43.1239C31.3355 36.7668 23.4136 36.7821 23.1455 43.1239C22.1949 65.6171 22.9749 88.825 20.2936 111.12C19.538 117.356 27.1674 120.032 27.923 113.751Z" fill="white"></path><path d="M44.9978 112.444C45.1684 90.9239 44.9978 69.5714 47.6912 48.2493C48.4591 42.0139 40.8297 39.3372 40.0497 45.6183C37.2831 67.8529 37.2466 89.9962 37.0759 112.444C37.0759 118.801 44.9491 118.801 44.9978 112.444Z" fill="white"></path><path d="M7.82589 55.96C11.6296 46.5686 16.1736 37.6734 21.3906 29.4062C25.4003 23.1252 34.0412 9.22476 41.6218 10.6239C42.1093 10.7152 42.219 10.8064 43.2184 11.9014C44.4213 13.3113 45.4962 14.8822 46.4237 16.5856C48.7034 20.6198 50.7402 24.8593 52.5174 29.2693C56.2339 37.6066 59.0999 46.4914 61.0487 55.7166C62.2674 62.3931 70.5184 59.5643 69.2753 52.8879C67.1181 41.3904 62.7549 30.0754 58.1359 19.8554C54.894 12.6923 49.9703 0.921012 42.4993 0.0845536C33.1028 -1.04086 24.2181 9.3008 18.5387 17.2548C11.4243 27.3707 5.3675 38.5724 0.513386 50.5914C-1.99724 56.6748 5.38839 62.0585 7.82589 55.96Z" fill="white"></path></svg>