<svg xmlns="http://www.w3.org/2000/svg" width="1329" height="665" viewBox="0 0 1329 665" fill="none"><path d="M568.36 655.629C554.014 657.663 538.629 657.238 522.692 654.369C505.775 651.368 488.351 644.946 471.4 635.463C455.108 626.399 439.474 614.868 425.193 601.385C410.855 588.413 397.905 573.738 386.855 557.943C365.03 526.499 350.988 492.124 346.571 459.325C342.661 430.692 343.33 403.336 348.551 378.32C358.5 332.301 376.734 291.272 402.542 256.835C408.916 248.374 415.684 240.007 423.181 232.106C430.678 224.206 439.294 217.544 447.266 210.339C464.249 197.595 482.685 186.651 502.419 177.597C559.01 151.501 624.194 139.218 694.638 141.376C725.959 142.937 758.142 147.512 790.814 155.049C799.105 157.233 807.23 158.891 815.575 161.476L840.722 169.355L867.291 179.999C876.193 183.881 884.975 188.996 893.762 193.433C928.923 213.083 962.048 239.758 990.545 271.369C1018.24 302.248 1041.25 336.701 1058.11 372.558C1074.72 407.489 1085.98 443.024 1091.36 477.537C1094.12 495.07 1095.42 512.257 1095.27 528.915C1095.03 537.006 1094.62 545.251 1093.91 552.646C1092.99 560.794 1091.51 568.669 1089.49 576.222C1081.95 606.328 1066.6 631.37 1044.66 649.369C1032.21 659.455 1015.92 664.621 997.476 664.332C977.289 663.309 955.32 654.13 935.834 638.577C919.641 625.493 905.719 609.146 895.546 591.272C886.36 575.327 878.982 558.903 873.614 542.455C863.184 510.98 857.973 479.861 858.229 450.589C857.898 391.978 878.665 342.967 916.949 312.003C941.211 292.08 971.774 280.036 1006.46 276.727C1041.15 273.417 1079.12 278.925 1117.67 292.857C1127.24 296.266 1136.8 300.411 1146.28 305.253C1155.81 309.79 1165.26 314.845 1174.6 320.392C1193.31 331.491 1211.3 344.959 1227.98 360.363C1259.62 390.26 1287.65 424.157 1310.73 460.441C1325.08 482.122 1329.76 492.072 1327.79 492.278C1325.82 492.484 1316.58 483.282 1300.61 468.005C1279.24 447.501 1256.7 428.546 1233.27 411.394C1218.87 401.122 1204.06 391.919 1189 383.891C1173.02 375.014 1156.77 367.605 1140.51 361.778C1133.16 358.72 1125.79 356.27 1118.48 354.454C1114.77 353.16 1111.07 352.208 1107.44 351.609C1105.59 351.167 1103.77 350.926 1102.01 350.889L1096.5 349.567C1089.23 347.963 1082.06 346.922 1075.05 346.454C1067.9 345.589 1060.93 345.41 1054.22 345.919C1027.28 347.112 1002.92 354.359 982.581 367.234C961.712 379.124 945.662 397.085 935.61 419.8C925.557 442.514 921.757 469.406 924.489 498.501C926.157 513.119 929.365 528.099 934.059 543.187C937.674 555.801 943.422 568.463 951.011 580.527C955.563 587.82 962.201 593.941 969.499 597.574C973.576 599.093 977.609 599.789 981.351 599.619C985.093 599.45 988.464 598.418 991.257 596.588C1011.01 584.167 1024.73 564.601 1030.91 540.047C1031.91 536.893 1032.43 533.72 1033.24 530.518C1033.9 527.436 1034.36 524.242 1034.61 520.953C1034.73 513.416 1035.75 506.192 1035.03 498.065C1035.06 483.231 1033.62 467.879 1030.73 452.219C1026.74 432.825 1020.43 413.124 1011.94 393.584C1003.25 374.169 992.284 355.15 979.355 337.069C960.102 310.288 936.336 286.503 909.995 267.654C905.676 264.581 901.157 262.138 896.669 259.218C892.23 256.262 887.672 253.674 883.059 251.49C843.52 232.911 803.591 221.681 765.508 218.428C725.566 214.208 686.872 214.413 650.04 219.04C568.773 229.024 496.435 259.969 456.779 322.814C435.402 352.86 420.943 388.764 414.037 428.957C411.019 447.71 411.9 468.291 416.633 489.623C421.137 508.856 431.543 528.347 446.214 545.029C454.934 555.291 465.093 564.219 476.017 571.222C486.941 578.225 498.382 583.143 509.584 585.651C533.907 588.974 555.958 584.69 573.02 573.328C612.059 549.156 641.608 513.452 659.486 468.852C672.043 434.255 678.013 395.505 677.169 354.076C677.598 313.984 668.079 270.66 649.405 227.714C640.288 207.598 627.638 188.206 612.278 170.8C596.918 153.393 579.191 138.361 560.251 126.68C520.029 102.897 478.216 88.0373 438.36 83.3619C374.932 75.6028 315.916 82.8351 265.521 104.543C252.743 109.504 240.503 115.309 228.85 121.932C217.055 128.317 206.322 136.217 195.114 143.421C174.119 159.465 155.087 177.795 138.191 198.242L126.84 211.426C122.685 215.181 120.375 221.32 117.396 226.037L107.979 240.849L99.7665 256.823L92.0117 271.258C89.878 275.887 88.2226 280.534 86.3432 284.933C82.7542 293.578 78.3002 300.754 75.8137 308.402C70.7016 323.374 64.7922 334.566 61.0574 344.243C55.7835 359.408 46.8849 371.972 34.9266 381.136C30.7367 384.771 26.2186 388.028 21.398 390.888C14.3216 393.457 8.80222 382.918 3.45908 359.616C1.89002 353.025 0.784407 346.502 0.151382 340.101C-0.0115131 333.272 -0.0862169 325.688 0.151172 317.597C0.794061 298.609 3.37297 280.45 7.85128 263.379C22.0789 205.249 48.6715 154.942 86.206 115.149C123.998 73.6184 171.232 42.1901 225.915 22.1906C282.436 0.866498 347.595 -5.18097 417.113 4.44547C453.716 9.63933 491.427 20.6191 528.983 37.0168C549.075 46.1006 568.93 57.2081 588.196 70.1429C608.472 84.0353 627.74 100.249 645.449 118.319C671.614 145.578 693.386 176.66 709.158 209.269C723.514 239.434 733.857 270.082 739.829 300.147C750.22 355.822 750.393 409.115 740.339 457.216C738.141 469.105 735.241 480.728 731.92 492.056C728.513 503.943 724.265 515.299 719.199 526.057C709.173 546.253 697.409 565.082 683.993 582.404C670.444 600.036 654.656 615.511 636.851 628.611C617.718 643.14 594.858 652.913 569.279 657.499L568.36 655.629Z" fill="#FFFD9C"></path></svg>