<svg xmlns="http://www.w3.org/2000/svg" width="4156" height="2137" viewBox="0 0 4156 2137" fill="none"><path d="M18.502 1829.78C22.0232 1805.03 57.3427 1727.13 271.821 1480.48C387.305 1347.68 515.963 1278.76 601.22 1232.55C703.785 1176.97 807.695 1150.5 1013.48 1107.92C1077.31 1094.72 1144.67 1090.1 1365.76 1086.47C1586.86 1082.85 1960.11 1082.85 2236.91 1065.24C2513.7 1047.63 2682.72 1012.42 2789.16 985.478C2998.09 932.591 3062.81 862.607 3126.94 793.302C3178.61 737.459 3208.78 617.611 3240.79 475.693C3272.11 336.846 3248.15 243.609 3234.02 206.368C3200.87 119.058 3145.18 80.0292 3100.69 40.815C3045.04 -8.22753 2935.4 33.5057 2874.9 70.6925C2771.73 134.106 2782.17 218.319 2773.32 335.215C2762.38 479.559 2803.19 637.565 2856.49 745.978C2901.38 837.289 2977.44 922.148 3190.37 1137.21C3288.27 1236.09 3414.72 1292.42 3546.34 1390.1C3683.17 1491.65 3742.31 1520.13 3795.66 1566.38C3856.69 1619.3 3905.78 1669.51 3955.77 1729.96C3996.21 1778.86 4016.33 1829.57 4039.43 1875.83C4062.53 1939.9 4098.06 1996.67 4115.94 2048.32C4119.51 2064.32 4123.03 2085.45 4137.33 2117.89" stroke="#F097D7" stroke-width="37" stroke-linecap="round"></path></svg>