<svg xmlns="http://www.w3.org/2000/svg" width="579" height="570" viewBox="0 0 579 570" fill="none"><path d="M272.837 429.226C298.407 425.135 323.132 415.069 345.725 399.555C368.072 385.232 387.254 364.251 401.578 338.466C407.751 326.453 411.754 312.903 413.307 298.758C413.97 291.889 413.97 284.944 413.307 278.075C412.692 271.136 411.427 264.311 409.537 257.741C408.254 252.354 406.072 247.368 403.136 243.111C400.2 238.854 396.576 235.423 392.502 233.044C383.157 228.997 372.967 229.213 363.738 233.655C347.253 241.048 332.746 254.044 321.848 271.181C309.923 289.293 300.228 309.53 293.084 331.222C289.766 340.8 286.99 350.657 284.776 360.72C282.692 370.701 281.152 380.848 280.168 391.09C278.294 411.767 278.882 432.677 281.914 453.138C283.31 462.912 285.655 472.437 288.895 481.501C290.466 485.776 292.262 489.916 294.271 493.893C296.364 497.618 298.699 501.121 301.253 504.366C303.665 507.6 306.332 510.524 309.212 513.093C312.563 515.362 316.193 518.067 319.265 520.162C322.337 522.256 326.247 524.176 330.226 525.485C334.037 526.906 337.905 528.071 341.816 528.976C373.861 535.958 409.328 525.223 440.396 506.373C472.117 487.957 498.82 458.312 517.193 421.11C534.187 387.949 545.502 350.747 550.425 311.849C556.018 273.616 552.523 234.173 540.372 198.398C532.1 176.336 519.311 157.399 503.3 143.505C486.958 129.445 468.503 119.678 449.053 114.793C409.368 104.629 368.185 108.868 330.366 127.011C318.637 132.858 313.47 135.738 313.121 133.731C312.772 131.724 317.45 126.313 327.084 118.633C340.427 108.326 354.855 100.395 369.951 95.0702C391.933 87.1734 414.892 84.4218 437.673 86.9541C460.604 89.5323 482.941 97.4968 503.509 110.43C524.79 124.151 542.839 144.576 555.871 169.686C568.299 195.11 575.85 223.785 577.933 253.465C580.002 282.198 578.542 311.157 573.604 339.339C564.192 395.897 542.277 448.022 510.351 489.792C493.897 510.474 474.781 527.554 453.8 540.321C433.078 553.426 410.799 562.266 387.824 566.502C373.647 569.318 359.237 569.816 344.957 567.986C330.02 566.124 315.487 560.828 302.09 552.364C298.739 550.095 295.109 547.914 292.037 545.383C288.965 542.852 285.055 539.448 282.332 536.132C276.423 529.414 271.216 521.79 266.833 513.442C258.773 497.371 253.053 479.644 249.938 461.08C243.863 425.761 243.863 389.231 249.938 353.913C256.166 318.904 268.044 285.852 284.846 256.781C294.175 240.762 305.35 226.557 318.008 214.63C331.451 201.922 346.931 192.991 363.389 188.449C372.257 186.197 381.362 185.785 390.338 187.227C399.916 188.847 409.067 193.207 417.077 199.969C424.867 206.874 431.369 215.806 436.137 226.15C440.549 235.569 443.841 245.741 445.911 256.345C449.822 276.857 449.822 298.231 445.911 318.743C441.865 338.602 434.75 357.279 424.966 373.723C405.822 404.521 381.202 429.322 353.056 446.157C336.244 456.758 318.51 464.899 300.205 470.418C281.554 476.448 262.24 478.629 243.026 476.876C223.698 474.7 204.808 468.413 187.173 458.287C169.695 447.668 153.933 433.113 140.676 415.351C120.69 388.617 106.573 355.879 99.6941 320.314C89.2997 267.25 94.2454 211.302 113.657 162.355L118.824 150.487L124.479 139.054C128.656 131.433 133.326 124.253 138.442 117.586C148.234 103.853 159.653 92.0798 172.303 82.6779C175.98 80.0891 179.895 78.0672 183.962 76.6563C189.019 74.7865 194.369 74.5166 199.531 75.8708C205.332 77.7368 210.454 82.0147 214.052 88.0013C215.626 90.4424 216.961 93.1083 218.032 95.9429C218.451 97.2519 218.94 98.4737 219.428 99.9573C219.917 101.441 220.266 103.361 220.545 105.106C221.72 113.879 221.12 122.879 218.8 131.287C216.937 138.272 214.601 145.045 211.818 151.534C206.676 163.909 200.547 175.604 193.527 186.442C180.042 209.515 162.293 228.168 141.793 240.811C136.035 243.975 129.984 246.232 123.781 247.531C120.569 248.172 117.327 248.551 114.076 248.665C111.004 248.665 108.421 248.665 105.559 248.665C94.0194 248.415 82.5506 246.362 71.4186 242.556C59.2687 238.713 47.8631 231.848 37.883 222.371C27.9029 212.895 19.5529 201.002 13.3318 187.402C2.79392 163.449 -1.6623 136.054 0.555471 108.859C1.89532 88.0878 6.64878 67.8856 14.5187 49.5153C19.8229 36.8036 26.9181 25.3922 35.4634 15.8292C41.1876 9.29185 47.9753 4.37968 55.361 1.42964C60.7749 -0.315756 66.4393 -0.465125 71.9073 0.993299C75.9564 1.65341 79.8935 3.12689 83.5666 5.35679C85.5912 7.18946 85.4516 9.45847 83.5666 12.6002C82.6044 14.4179 81.5307 16.1394 80.355 17.7491C79.0984 19.9309 77.4926 22.0253 75.817 24.7307C72.7451 30.4032 68.4863 36.163 64.0879 43.8428C58.9631 52.9401 54.6551 62.715 51.2418 72.9909C45.3939 90.1249 42.6292 108.656 43.1432 127.273C43.3189 143.778 48.0267 159.707 56.478 172.391C65.5792 184.444 77.6475 192.34 90.7576 194.82C94.4748 195.726 98.2264 196.396 101.998 196.827C105.768 196.827 110.166 197.35 113.587 197.525C119.45 197.181 125.166 195.118 130.273 191.503C143.782 182.043 155.648 169.316 165.181 154.065C170.208 146.39 174.693 138.185 178.586 129.542C180.279 125.856 181.726 122.004 182.915 118.022C183.135 117.28 183.322 116.522 183.473 115.753C183.672 115.196 183.812 114.609 183.892 114.008C184.73 112.786 181.798 112.873 188.5 112.961C189.601 112.872 190.697 112.697 191.781 112.437C192.759 112.437 193.108 112.437 193.876 112.001H194.853H195.342L184.52 117.149L185.219 116.713C186.27 116.135 187.275 115.434 188.221 114.619L189.617 113.31L190.664 112.437C191.327 111.788 191.956 111.089 192.549 110.342C194.225 108.51 194.504 106.852 194.155 108.248C193.52 111.811 193.52 115.506 194.155 119.069C194.155 120.117 194.155 122.298 194.783 123.695L193.946 124.218C192.914 124.845 191.912 125.544 190.943 126.313C188.101 128.66 185.395 131.256 182.845 134.08C176.78 140.809 171.132 148.102 165.949 155.897C163.62 159.306 161.43 162.86 159.387 166.544C157.432 170.995 155.058 175.271 153.313 179.809C141.704 206.456 135.428 236.219 135.021 266.555C134.506 297.038 140.455 327.148 152.265 353.825C163.832 380.033 181.413 401.31 202.742 414.914C213.569 421.615 225.116 426.319 237.022 428.877L246.098 430.448C249.03 430.448 251.753 431.146 254.755 431.146C260.844 431.252 266.932 430.844 272.977 429.925L272.837 429.226Z" fill="white"></path></svg>